<svg width="50" height="50" viewBox="0 0 50 50" fill="none" xmlns="http://www.w3.org/2000/svg">
<path fill-rule="evenodd" clip-rule="evenodd" d="M25.5099 0.126069C30.9888 -0.627164 36.5781 2.08434 40.6809 5.87209C44.5555 9.44914 45.6228 14.9288 47.0916 20.0503C48.5133 25.0077 51.5426 30.5458 49.045 35.0368C46.5288 39.5613 39.7099 38.3697 35.3806 41.1082C31.5721 43.5173 29.948 49.3098 25.5099 49.9241C21.01 50.5469 16.879 47.2234 13.4855 44.1386C10.3395 41.2789 9.20732 37.0879 7.2171 33.2955C4.66236 28.4273 -1.12721 24.1667 0.193156 18.8097C1.49974 13.5086 8.70379 12.872 13.0396 9.67221C17.3557 6.48693 20.2341 0.851378 25.5099 0.126069Z" fill="#3F4045" fill-opacity="0.4"/>
</svg>
