<svg width="50" height="50" viewBox="0 0 50 50" fill="none" xmlns="http://www.w3.org/2000/svg">
<path fill-rule="evenodd" clip-rule="evenodd" d="M25.6791 0.092303C31.6146 1.00889 32.9829 8.92197 37.4567 12.8369C41.2246 16.1341 48.0103 16.3825 49.6384 21.0586C51.266 25.7334 46.9796 30.2279 45.109 34.8154C43.3898 39.0316 42.7939 43.929 39.1585 46.7588C35.4542 49.6423 30.4096 50.2105 25.6791 49.9396C21.1537 49.6803 16.479 48.4336 13.3024 45.2778C10.339 42.3336 11.4005 37.4598 9.43813 33.8043C6.81198 28.9124 -0.298817 26.0307 0.00973367 20.5164C0.312016 15.1141 6.54426 12.1458 10.8413 8.72681C15.4163 5.08667 19.8486 -0.808089 25.6791 0.092303Z" fill="#3F4045" fill-opacity="0.4"/>
</svg>
