<svg width="50" height="50" viewBox="0 0 50 50" fill="none" xmlns="http://www.w3.org/2000/svg">
<path fill-rule="evenodd" clip-rule="evenodd" d="M28.4663 0.0649764C33.3797 -0.610283 37.3776 4.11791 40.6801 7.73339C43.4694 10.7871 44.033 14.9106 45.5204 18.7357C47.1104 22.8245 51.1635 26.7481 49.6786 30.8744C48.1914 35.0067 41.945 34.8571 38.6492 37.8287C34.6085 41.4718 33.9661 49.937 28.4663 49.9997C22.9913 50.062 22.4535 41.3163 18.1093 38.0627C13.9651 34.9589 7.27724 35.9699 4.21658 31.8379C0.836005 27.2739 -1.73436 20.2709 1.45372 15.5768C4.80704 10.6394 13.2886 13.7825 18.519 10.779C22.8814 8.27392 23.4546 0.753727 28.4663 0.0649764Z" fill="#3F4045" fill-opacity="0.8"/>
</svg>
