<svg width="50" height="50" viewBox="0 0 50 50" fill="none" xmlns="http://www.w3.org/2000/svg">
<path fill-rule="evenodd" clip-rule="evenodd" d="M24.7871 0.467386C29.4094 1.47278 32.3084 6.3036 36.2877 9.19769C40.6792 12.3915 47.2993 12.7442 49.2809 18.281C51.2605 23.8122 48.8622 30.6062 45.6217 35.2782C42.796 39.3523 37.2747 38.4534 33.4103 41.1631C30.0615 43.5113 28.6596 49.1968 24.7871 49.8876C20.8272 50.594 16.8428 47.8667 13.9822 44.6287C11.3396 41.6376 11.8347 36.6923 9.90741 33.0453C7.01523 27.5724 0.0589363 24.5812 0.000489216 18.1712C-0.0571123 11.8539 4.98225 6.72561 9.63711 3.40087C14.1005 0.212908 19.6289 -0.654587 24.7871 0.467386Z" fill="#3F4045" fill-opacity="0.8"/>
</svg>
