<svg width="1622" height="1843" viewBox="0 0 1622 1443" fill="none" xmlns="http://www.w3.org/2000/svg">
<path fill-rule="evenodd" clip-rule="evenodd" d="M476.579 1878.95C282.937 1847.93 41.6873 1844.33 -61.645 1665.65C-168.767 1480.42 28.1916 1229.44 -22.1322 1016.59C-69.9788 814.221 -339.881 718.915 -335.167 508.767C-330.562 303.467 -175.458 99.6599 0.240968 19.1905C173.205 -60.0261 354.61 138.37 539.341 108.246C721.144 78.599 944.176 12.6244 1122.61 53.4955C1475.61 171.08 1737.92 -22.2008 1846.13 125.533C1969.41 293.852 1983.63 644.442 1973.16 861.848C1962.56 1081.93 1406.09 1068.91 1293.43 1254.8C1182.63 1437.63 1228.11 1719.82 1063.2 1845.83C898.165 1971.93 673.391 1910.48 476.579 1878.95Z" fill="#3F4045"/>
</svg>
