<svg width="102" height="68" viewBox="0 0 102 68" fill="none" xmlns="http://www.w3.org/2000/svg">
<path fill-rule="evenodd" clip-rule="evenodd" d="M29.1642 48.2433C20.5067 41.0924 5.3584 42.348 1.19112 32.2519C-2.76782 22.6605 6.52291 14.9922 13.7838 10.9809C20.0843 7.50017 30.2163 14.3684 37.3292 12.2874C41.1785 11.1613 38.9943 2.16918 43.3018 2.34496C47.8365 2.53001 50.2988 13.165 54.7449 12.9981C65.9081 12.579 71.2468 -2.22512 82.9303 0.857012C91.6608 3.16015 97.1082 15.8483 99.7326 24.866C102.339 33.8213 102.787 44.5409 97.0934 49.5234C90.9746 54.8777 78.9042 47.908 70.7597 50.2188C66.2761 51.4909 65.2853 57.2215 61.483 59.6271C56.0053 63.0926 51.0476 69.9432 43.6828 67.3491C36.5755 64.8457 35.3949 53.3898 29.1642 48.2433Z" fill="#E9E8DE"/>
</svg>
