<svg width="30" height="30" viewBox="0 0 50 50" fill="none" xmlns="http://www.w3.org/2000/svg">
<path fill-rule="evenodd" clip-rule="evenodd" d="M21.9227 1.66477C26.6652 1.71419 31.3059 -0.317965 35.7926 1.15212C41.3452 2.97143 48.0341 5.39431 49.7167 10.7714C51.4012 16.1549 45.0861 20.7065 43.6137 26.1465C41.986 32.1608 45.0147 39.4733 40.6931 44.1118C36.2434 48.8879 28.3668 51.1443 21.9227 49.4286C15.692 47.7698 13.6915 40.483 9.46859 35.7986C6.4671 32.4691 2.25852 30.1384 0.780604 25.976C-0.708642 21.7816 0.181768 17.3034 1.38278 13.0253C2.64631 8.52455 3.61286 3.19401 7.83138 0.860769C12.0067 -1.4486 17.0995 1.61452 21.9227 1.66477Z" fill="#F6B452"/>
</svg>
