<svg width="30" height="30" viewBox="0 0 50 50" fill="none" xmlns="http://www.w3.org/2000/svg">
<path fill-rule="evenodd" clip-rule="evenodd" d="M21.3002 0.0577856C25.2326 0.362586 28.3016 3.38717 32.027 4.83775C37.9925 7.16063 47.3077 4.48972 49.6444 11.0945C51.9187 17.523 42.6274 22.011 40.3813 28.4521C38.3603 34.2473 41.2646 41.9559 37.3494 46.351C33.3921 50.7934 26.8872 49.8763 21.3002 49.8719C15.7172 49.8676 8.95484 51.0478 5.26712 46.3261C1.54147 41.5558 5.02621 34.04 4.04822 27.7826C3.27458 22.8328 -0.892952 18.6164 0.173479 13.7361C1.25483 8.78741 5.52195 5.62699 9.44452 3.08737C13.046 0.755644 17.1561 -0.263433 21.3002 0.0577856Z" fill="#F6B452"/>
</svg>
