<svg width="30" height="30" viewBox="0 0 50 50" fill="none" xmlns="http://www.w3.org/2000/svg">
<path fill-rule="evenodd" clip-rule="evenodd" d="M24.6183 0.031285C29.6385 0.215076 34.5424 1.51008 38.7384 4.58638C43.0878 7.77515 46.7522 12.1318 48.5491 17.5762C50.3916 23.159 50.4945 29.353 48.7705 34.9826C47.0629 40.5588 43.7651 45.674 39.0969 48.4421C34.7234 51.0354 29.56 49.6978 24.6183 49.3039C20.0741 48.9416 14.8858 49.7294 11.5705 46.2479C8.32032 42.8347 10.1025 36.6977 8.28536 32.152C6.10759 26.7041 -0.305253 23.2848 0.0113161 17.3315C0.330499 11.3289 5.24323 6.73617 9.80748 3.52722C14.1824 0.451414 19.448 -0.158 24.6183 0.031285Z" fill="#F6B452"/>
</svg>
