<svg width="30" height="30" viewBox="0 0 50 50" fill="none" xmlns="http://www.w3.org/2000/svg">
<path fill-rule="evenodd" clip-rule="evenodd" d="M26.3872 1.00989C30.2906 0.219493 34.2466 -0.689432 37.9906 0.789284C42.6586 2.63296 48.4368 4.87627 49.7972 10.2559C51.1619 15.6526 45.2277 19.9264 44.2199 25.4226C42.9979 32.0864 47.1873 40.0604 43.3678 45.3169C39.5762 50.5352 32.3565 50.0105 26.3872 49.9647C20.4541 49.9191 13.7739 49.7997 9.57308 45.0575C5.49329 40.4519 7.16417 32.7856 5.60709 26.5065C4.14348 20.6043 -2.1215 14.6385 0.738953 9.43285C3.83873 3.79166 11.8163 6.79906 17.4534 4.94783C20.5996 3.91461 23.1624 1.66287 26.3872 1.00989Z" fill="#F6B452"/>
</svg>
