<svg width="30" height="30" viewBox="0 0 50 50" fill="none" xmlns="http://www.w3.org/2000/svg">
<path fill-rule="evenodd" clip-rule="evenodd" d="M24.6823 1.16736C29.4406 1.38015 34.2804 0.0289518 38.5691 2.59858C43.3957 5.49048 48.6208 9.71321 49.7897 16.2107C50.9476 22.6477 47.0753 28.6571 44.2632 34.2515C42.0524 38.6496 38.9553 41.9478 35.4438 44.7501C32.1302 47.3945 28.613 49.5752 24.6823 49.8775C20.5599 50.1945 15.7937 50.154 12.9074 46.4832C10.0748 42.8807 12.5441 36.4612 10.6384 32.0162C7.99162 25.8429 0.136354 23.3758 0.00225511 16.3832C-0.125889 9.70104 5.23081 4.2942 10.0498 1.32321C14.5287 -1.43818 19.6855 0.943909 24.6823 1.16736Z" fill="#F6B452"/>
</svg>
