<svg width="102" height="86" viewBox="0 0 102 86" fill="none" xmlns="http://www.w3.org/2000/svg">
<path fill-rule="evenodd" clip-rule="evenodd" d="M20.2716 3.98393C28.8331 1.02532 35.8502 14.8324 44.866 14.2184C51.7565 13.7491 53.9806 2.54698 60.7682 1.22579C67.2092 -0.0279526 74.0949 3.32534 79.029 7.5686C83.929 11.7826 84.3599 19.129 87.8837 24.5448C91.9382 30.7763 102.393 34.5277 101.391 41.9372C100.319 49.8556 89.4673 52.2483 83.419 57.5343C79.4762 60.9802 75.0671 63.7206 71.7936 67.8043C67.4806 73.1848 67.9519 83.9162 61.2002 85.2525C54.2989 86.6185 51.2701 74.4888 44.3767 73.2309C37.1272 71.9081 30.0641 80.4976 23.0435 78.2901C16.5592 76.2512 14.182 68.306 10.5415 62.5919C6.57261 56.3624 -0.0419341 50.4802 0.613452 43.0844C1.28015 35.561 10.4735 31.7007 13.8793 24.9265C17.2047 18.3121 13.2699 6.40349 20.2716 3.98393Z" fill="#3F4045" fill-opacity="0.5"/>
</svg>
