<svg width="586" height="547" viewBox="0 0 586 547" fill="none" xmlns="http://www.w3.org/2000/svg">
<path fill-rule="evenodd" clip-rule="evenodd" d="M276.799 28.1888C331.021 46.5519 353.012 111.606 403.041 139.433C458.541 170.303 556.239 138.481 580.56 197.147C605.259 256.728 524.449 308.962 497.639 367.622C479.661 406.959 483.475 458.979 448.974 485.061C415.008 510.738 365.736 487.698 324.545 498.478C285.208 508.773 255.669 545.626 215.013 546.292C168.205 547.06 121.243 531.547 84.5967 502.414C44.0507 470.181 -4.43367 427.199 0.324616 375.621C5.28112 321.895 94.9399 310.941 107.11 258.376C124.746 182.205 33.9221 93.0707 80.3155 30.1367C119.983 -23.674 213.48 6.7448 276.799 28.1888Z" fill="#3F4045"/>
</svg>
