<svg width="85" height="85" viewBox="0 0 85 85" fill="none" xmlns="http://www.w3.org/2000/svg">
<path fill-rule="evenodd" clip-rule="evenodd" d="M44.9567 9.80182C48.2826 10.0399 51.5747 10.8947 54.8397 10.0871C62.5338 8.18387 71.4183 -4.71399 77.1305 1.84341C82.5582 8.07432 68.3871 18.3631 69.8141 27.2774C70.9965 34.6632 81.3369 35.0318 83.5669 42.0498C85.6267 48.532 86.0146 59.1435 80.9848 62.4318C74.0785 66.9468 64.5025 53.6491 57.9142 58.8206C51.8478 63.5824 59.1542 79.3057 53.1877 84.251C48.5446 88.0994 43.9049 75.908 38.3319 75.0512C32.0608 74.0872 24.2605 84.6754 19.878 79.1303C14.9745 72.926 25.2177 60.9154 21.4196 53.6525C17.3602 45.8898 4.61655 50.7342 0.854608 42.7525C-2.17054 36.334 3.58791 28.4088 6.44254 21.8756C9.0532 15.9008 11.6195 8.69386 16.8038 6.25081C22.4126 3.60769 28.5598 7.87928 34.5421 8.63385C38.0481 9.07607 41.438 9.5499 44.9567 9.80182Z" fill="#3F4045"/>
</svg>
