<svg width="342" height="484" viewBox="0 0 642 584" fill="none" xmlns="http://www.w3.org/2000/svg">
<path fill-rule="evenodd" clip-rule="evenodd" d="M301.499 0.159189C348.247 -3.832 372.709 68.4101 417.464 83.9607C480.808 105.97 565.23 55.5687 611.947 108.027C654.753 156.093 613.973 239.926 616.581 307.545C619.326 378.703 664.315 458.776 627.731 517.208C590.368 576.886 509.175 574.471 444.256 582.786C395.627 589.015 349.48 569.787 301.499 558.994C262.636 550.253 227.072 535.82 188.572 525.274C134.032 510.333 60.8876 533.856 27.1768 483.847C-5.19552 435.823 44.4103 367.516 41.8037 307.545C39.0142 243.366 -25.5967 170.423 11.4106 121.111C51.5627 67.6094 136.721 127.376 195.369 102.923C240.039 84.2976 253.939 4.21979 301.499 0.159189Z" fill="#3F4045" fill-opacity="0.8"/>
</svg>
