<svg width="700" height="700" viewBox="0 0 700 700" fill="none" xmlns="http://www.w3.org/2000/svg">
<path fill-rule="evenodd" clip-rule="evenodd" d="M308.171 11.4227C369.951 17.0305 435.54 19.8383 485.263 53.2908C533.353 85.6448 540.566 146.331 574.726 190.757C612.689 240.127 685.667 270.083 697.402 329.176C709.266 388.923 679.065 452.683 636.019 499.423C595.035 543.924 521.65 546.383 468.037 578.225C409.929 612.738 376.092 680.334 308.171 694.142C237.773 708.454 153.143 697.214 100.318 652.982C47.2927 608.582 58.522 531.663 39.1448 468.877C24.6248 421.829 2.82131 377.953 0.384009 329.176C-2.13437 278.775 7.93028 230.143 24.812 182.031C45.2006 123.924 52.8691 53.0477 109.165 19.1523C165.297 -14.6443 240.964 5.32234 308.171 11.4227Z" fill="black"/>
</svg>
