<svg width="25" height="25" viewBox="0 0 25 25" fill="none" xmlns="http://www.w3.org/2000/svg">
<path fill-rule="evenodd" clip-rule="evenodd" d="M14.003 4.41853C16.6054 4.75599 19.046 1.14588 21.3333 2.27603C23.5671 3.37974 22.0284 6.57683 22.7222 8.72666C23.2731 10.4339 25.2495 11.8001 24.9738 13.5569C24.6978 15.315 22.7698 16.4461 21.3151 17.6915C19.9686 18.8443 18.36 19.5765 16.824 20.5339C14.4066 22.0405 12.5918 25.5228 9.69515 24.9335C6.86912 24.3587 7.63348 20.3121 5.87407 18.3064C4.28499 16.4949 0.507631 16.172 0.0429692 13.9303C-0.418316 11.705 2.96899 10.2766 3.76324 8.12332C4.72367 5.51953 2.21223 1.22439 5.11736 0.173296C8.30226 -0.979017 10.5908 3.97607 14.003 4.41853Z" fill="black"/>
</svg>
