<svg width="25" height="25" viewBox="0 0 25 25" fill="none" xmlns="http://www.w3.org/2000/svg">
<path fill-rule="evenodd" clip-rule="evenodd" d="M11.1478 0.945445C12.9222 -0.0424352 15.9378 -0.622208 17.0974 1.09811C18.6277 3.36838 15.4437 6.93839 16.7985 9.3282C17.8898 11.2534 21.3268 9.68577 22.8535 11.252C24.2927 12.7285 25.7864 15.6094 24.5259 17.2557C22.8951 19.3856 18.9484 17.1436 16.9764 18.928C15.5121 20.2529 17.8551 23.9851 16.1138 24.8675C14.3739 25.749 13.0792 21.9469 11.1478 21.8812C9.31312 21.8188 8.16415 24.3785 6.33455 24.5349C4.36338 24.7035 1.90619 24.4337 0.721982 22.7726C-0.474478 21.0944 0.0430208 18.561 0.653059 16.5656C1.18876 14.8134 3.86649 14.1623 3.91674 12.323C3.98559 9.80232 -0.360186 7.64068 0.954537 5.52928C2.19386 3.53897 5.53778 7.31079 7.62106 6.37395C9.56436 5.50006 9.28026 1.98519 11.1478 0.945445Z" fill="#1F25AA"/>
</svg>
