<svg width="60" height="60" viewBox="0 0 432 349" fill="none" xmlns="http://www.w3.org/2000/svg">
<path fill-rule="evenodd" clip-rule="evenodd" d="M192.634 13.1984C223.296 -0.592396 275.405 -8.68603 295.443 15.3297C321.887 47.0226 266.867 96.8599 290.278 130.222C309.136 157.097 368.528 135.213 394.908 157.077C419.778 177.689 445.589 217.907 423.807 240.89C395.628 270.623 327.428 239.325 293.351 264.235C268.05 282.731 308.537 334.833 278.446 347.15C248.38 359.457 226.009 306.378 192.634 305.462C160.931 304.591 141.077 340.324 109.461 342.508C75.3992 344.861 32.939 341.094 12.4758 317.906C-8.19897 294.478 0.7434 259.112 11.2849 231.256C20.5419 206.795 66.813 197.705 67.6812 172.028C68.8711 136.84 -6.22401 106.664 16.4944 77.1888C37.91 49.404 95.6928 102.059 131.692 88.9803C165.272 76.7809 160.363 27.7132 192.634 13.1984Z" fill="#E9E8DE"/>
</svg>
