<svg width="254" height="254" viewBox="0 0 254 254" fill="none" xmlns="http://www.w3.org/2000/svg">
<path fill-rule="evenodd" clip-rule="evenodd" d="M137.237 13.0918C150.271 26.5632 141.176 71.1984 157.844 71.2771C191.374 71.4353 215.031 -0.817096 246.662 13.6081C269.407 23.9805 232.87 72.4108 223.52 101.228C218.266 117.424 202.151 128.928 203.578 146.4C206.023 176.349 251.904 207.784 233.755 226.576C213.195 247.865 186.469 198.757 160.929 190.561C153.062 188.037 143.91 189.639 137.237 195.602C119.106 211.806 111.948 251.552 90.0054 253.945C74.0879 255.68 75.5849 216.174 62.8229 203.717C44.4955 185.827 -7.92469 194.475 1.0179 167.082C14.2035 126.692 76.6797 152.374 92.2872 113.462C103.177 86.3112 52.7502 69.6187 52.384 39.0189C52.1331 18.0451 75.2101 6.95519 90.9552 2.14419C106.413 -2.57891 124.818 0.256373 137.237 13.0918Z" fill="#E9E8DE"/>
</svg>
