<svg width="254" height="254" viewBox="0 0 254 254" fill="none" xmlns="http://www.w3.org/2000/svg">
<path fill-rule="evenodd" clip-rule="evenodd" d="M119.498 4.64685e-05C140.72 -0.0505006 143.662 41.1515 163.009 51.1271C188.172 64.101 224.363 40.9696 243.367 63.8663C260.824 84.8998 253.587 122.105 244.33 149.106C235.832 173.896 211.939 185.073 195.393 203.803C180.419 220.752 172.729 255.102 151.686 253.973C128.018 252.703 124.883 203.009 101.481 198.763C71.8531 193.388 40.5817 251.609 17.5403 229.635C-3.55001 209.522 44.4344 172.639 41.3591 141.427C38.4502 111.902 -8.97282 94.1227 1.51024 66.9389C11.9227 39.938 52.9897 64.4467 76.1021 51.3341C95.1294 40.5392 98.2586 0.0506331 119.498 4.64685e-05Z" fill="#E9E8DE"/>
</svg>
