<svg width="180" height="180" viewBox="0 0 180 180" fill="none" xmlns="http://www.w3.org/2000/svg">
<path fill-rule="evenodd" clip-rule="evenodd" d="M43.6995 -10.0124C50.6552 -13.1341 62.4761 -14.9662 67.0218 -9.52996C73.0208 -2.35591 60.5394 8.92531 65.85 16.4771C70.1281 22.5606 83.6012 17.607 89.5857 22.5562C95.2274 27.2219 101.083 36.3257 96.1413 41.5282C89.7489 48.2585 74.2777 41.1738 66.5473 46.8125C60.8076 50.9992 69.9922 62.793 63.1661 65.5811C56.3455 68.367 51.2705 56.3521 43.6995 56.1446C36.5074 55.9475 32.0035 64.0361 24.8315 64.5304C17.1045 65.063 7.47227 64.2105 2.83017 58.9615C-1.85995 53.6583 0.168642 45.6528 2.55999 39.3474C4.65996 33.8104 15.1567 31.7528 15.3536 25.9405C15.6235 17.9753 -1.41193 11.1445 3.74179 4.47253C8.59995 -1.81686 21.7081 10.1021 29.8746 7.14168C37.4923 4.3802 36.3786 -6.7268 43.6995 -10.0124Z" fill="#E9E8DE"/>
</svg>
