<svg width="500" height="38" viewBox="0 0 500 38" fill="none" xmlns="http://www.w3.org/2000/svg">
<path fill-rule="evenodd" clip-rule="evenodd" d="M0 9.40727L20.8333 14.1727C41.6667 18.9382 83.3333 28.4691 125 26.0864C166.667 23.7036 208.333 9.40727 250 3.45045C291.667 -2.50636 333.333 -0.123637 375 5.83318C416.667 11.79 458.333 21.3209 479.167 26.0864L500 30.8518V38H479.167C458.333 38 416.667 38 375 38C333.333 38 291.667 38 250 38C208.333 38 166.667 38 125 38C83.3333 38 41.6667 38 20.8333 38H0V9.40727Z" fill="#E9E8DE" fill-opacity="0.5"/>
</svg>
