<svg width="500" height="38" viewBox="0 0 500 38" fill="none" xmlns="http://www.w3.org/2000/svg">
<path fill-rule="evenodd" clip-rule="evenodd" d="M0 22.819L21.6535 23.4791C41.3386 24.7992 82.6772 26.1192 125.984 21.499C167.323 16.2186 208.661 4.33787 250 1.03767C291.339 -2.26254 332.677 3.01779 375.984 6.97804C417.323 10.9383 458.661 14.8985 478.346 16.2186L500 18.1987V38H478.346C458.661 38 417.323 38 375.984 38C332.677 38 291.339 38 250 38C208.661 38 167.323 38 125.984 38C82.6772 38 41.3386 38 21.6535 38H0V22.819Z" fill="#E9E8DE" fill-opacity="0.5"/>
</svg>
