<svg width="500" height="38" viewBox="0 0 500 38" fill="none" xmlns="http://www.w3.org/2000/svg">
<path fill-rule="evenodd" clip-rule="evenodd" d="M500 1.34166L479.167 0.662804C458.333 -0.0160545 416.667 -1.37377 375 4.05709C333.333 9.48796 291.667 21.7074 250 23.0651C208.333 24.4228 166.667 14.9188 125 12.2034C83.3333 9.48796 41.6667 13.5611 20.8333 15.5977L1.19209e-05 17.6343V38H20.8333C41.6667 38 83.3333 38 125 38C166.667 38 208.333 38 250 38C291.667 38 333.333 38 375 38C416.667 38 458.333 38 479.167 38H500V1.34166Z" fill="#E9E8DE" fill-opacity="0.5"/>
</svg>
