<svg width="254" height="38" viewBox="0 0 254 38" fill="none" xmlns="http://www.w3.org/2000/svg">
<path fill-rule="evenodd" clip-rule="evenodd" d="M0 9.40727L10.5833 14.1727C21.1667 18.9382 42.3333 28.4691 63.5 26.0864C84.6667 23.7036 105.833 9.40727 127 3.45045C148.167 -2.50636 169.333 -0.123637 190.5 5.83318C211.667 11.79 232.833 21.3209 243.417 26.0864L254 30.8518V38H243.417C232.833 38 211.667 38 190.5 38C169.333 38 148.167 38 127 38C105.833 38 84.6667 38 63.5 38C42.3333 38 21.1667 38 10.5833 38H0V9.40727Z" fill="#E9E8DE" fill-opacity="0.4"/>
</svg>
