<svg width="272" height="313" viewBox="0 0 272 313" fill="none" xmlns="http://www.w3.org/2000/svg">
<path fill-rule="evenodd" clip-rule="evenodd" d="M152.352 55.32C180.667 59.545 207.22 14.3464 232.106 28.4958C256.41 42.3143 239.669 82.342 247.218 109.258C253.212 130.632 274.715 147.738 271.715 169.732C268.712 191.744 247.736 205.906 231.909 221.498C217.258 235.93 199.757 245.098 183.045 257.084C156.743 275.947 136.999 319.545 105.483 312.168C74.7361 304.971 83.0522 254.307 63.9099 229.196C46.6207 206.516 5.52303 202.473 0.467505 174.408C-4.55128 146.547 32.3026 128.663 40.944 101.704C51.3935 69.1045 24.0691 15.3293 55.6769 2.16967C90.3286 -12.2573 115.228 49.7804 152.352 55.32Z" fill="#3F4045" fill-opacity="0.5"/>
</svg>
