<svg width="1050" height="798" viewBox="0 0 1024 798" fill="none" xmlns="http://www.w3.org/2000/svg">
<path fill-rule="evenodd" clip-rule="evenodd" d="M281.187 1888.3C113.057 1846.4 -99.8491 1829 -173.648 1645.64C-250.154 1455.55 -51.4036 1217.59 -74.9893 1003.33C-97.414 799.621 -326.643 689.508 -301.842 481.084C-277.613 277.468 -120.493 83.9596 42.7216 14.1154C203.396 -54.6414 344.274 152.777 510.529 133.447C674.15 114.424 860.684 32.099 1014.4 82.9123C1161.93 131.681 1118.98 208.491 1200.12 361.403C1292.58 535.623 1509.05 652.607 1478.45 867.909C1447.47 1085.86 1182.39 1137.14 1064.55 1315.28C948.647 1490.5 961.148 1773.34 802.993 1889.03C644.729 2004.8 452.069 1930.89 281.187 1888.3Z" fill="#3F4045"/>
</svg>
