<svg width="350" height="1490" viewBox="0 0 320 1490" fill="none" xmlns="http://www.w3.org/2000/svg">
<path fill-rule="evenodd" clip-rule="evenodd" d="M84.3795 1910.42C-67.1332 1872.24 -259.749 1859.4 -322.779 1678.4C-388.122 1490.75 -202.96 1249.66 -219.826 1036.83C-235.862 834.483 -441.319 729.681 -414.45 521.648C-388.2 318.414 -241.708 122.445 -92.2967 49.4693C54.7888 -22.3702 178.114 181.172 329.218 158.426C477.927 136.04 610.632 -124.512 748.893 -77.1592C881.59 -31.7115 879.146 220.326 949.477 370.859C1029.61 542.367 1223.36 654.28 1191.09 869.282C1158.42 1086.93 917.064 1143.57 806.5 1323.41C697.755 1500.3 703.129 1781.64 557.338 1900.16C411.446 2018.75 238.373 1949.22 84.3795 1910.42Z" fill="#3F4045"/>
</svg>
