<svg width="1622" height="962" viewBox="0 0 1622 962" fill="none" xmlns="http://www.w3.org/2000/svg">
<path fill-rule="evenodd" clip-rule="evenodd" d="M281.187 1888.3C113.058 1846.4 -99.8479 1829 -173.647 1645.64C-250.153 1455.55 -51.4026 1217.59 -74.9883 1003.33C-97.413 799.62 -326.643 689.507 -301.842 481.083C-277.612 277.467 -120.492 83.9588 42.7225 14.1146C203.396 -54.6423 344.275 152.776 510.53 133.447C674.151 114.423 877.784 61.6862 1031.5 112.5C1332 249.5 1582.86 72.5875 1664 225.5C1756.45 399.719 1734.6 748.698 1704 964C1673.02 1181.95 1182.39 1137.14 1064.55 1315.28C948.649 1490.5 961.15 1773.34 802.994 1889.03C644.73 2004.8 452.069 1930.89 281.187 1888.3Z" fill="#3F4045"/>
</svg>
