<svg width="790" height="1071" viewBox="0 0 768 1071" fill="none" xmlns="http://www.w3.org/2000/svg">
<path fill-rule="evenodd" clip-rule="evenodd" d="M84.3795 1876.42C-67.1332 1838.24 -259.749 1825.4 -322.779 1644.4C-388.122 1456.75 -202.96 1215.66 -219.826 1002.83C-235.862 800.483 -441.319 695.681 -414.45 487.648C-388.2 284.414 -241.708 88.4448 -92.2967 15.4693C54.7888 -56.3702 178.114 147.172 329.218 124.426C477.927 102.04 648.739 16.1468 787 63.5001C919.697 108.948 879.146 186.326 949.477 336.859C1029.61 508.367 1223.36 620.28 1191.09 835.282C1158.42 1052.93 917.064 1109.57 806.5 1289.41C697.755 1466.3 703.129 1747.64 557.338 1866.16C411.446 1984.75 238.373 1915.22 84.3795 1876.42Z" fill="#3F4045"/>
</svg>
