<svg width="25" height="25" viewBox="0 0 25 25" fill="none" xmlns="http://www.w3.org/2000/svg">
<path fill-rule="evenodd" clip-rule="evenodd" d="M11.4028 4.78105C13.9137 3.95413 14.8251 -0.367808 17.4521 0.025198C19.636 0.351931 18.017 4.23227 19.258 5.95621C20.3642 7.49304 23.0318 7.53621 24.0166 9.14468C25.0154 10.776 25.3262 12.9376 24.6085 14.6952C23.8873 16.4615 21.8586 17.3907 20.2086 18.4705C18.8539 19.357 17.0974 19.4976 15.8012 20.4587C14.0702 21.7423 13.6058 25.0139 11.4028 25C9.19149 24.986 8.81316 21.6387 7.03277 20.4033C5.65637 19.4482 3.22547 20.0464 2.30691 18.6884C1.35721 17.2843 2.93243 15.3848 2.54034 13.7615C2.14865 12.1399 -0.450656 11.0094 0.0682031 9.41966C0.606814 7.76945 3.42486 8.04301 4.78466 6.88533C5.86944 5.96179 5.71179 3.87594 7.09724 3.43543C8.54813 2.9741 9.9573 5.25711 11.4028 4.78105Z" fill="#8CD297"/>
</svg>
