<svg width="61" height="47" viewBox="0 0 61 47" fill="none" xmlns="http://www.w3.org/2000/svg">
<path fill-rule="evenodd" clip-rule="evenodd" d="M39.8608 38.3359C35.7695 40.1521 33.8559 46.8456 29.6143 46.6567C25.224 46.4611 26.0305 38.8121 21.9839 37.5396C15.3514 35.454 4.46598 43.1209 0.7663 37.5854C-2.47001 32.7433 7.28889 26.7619 11.2392 21.4635C13.8983 17.8971 16.6267 14.6845 20.0349 11.7416C23.7866 8.50207 27.3622 5.03436 32.0053 3.53252C37.6986 1.69101 44.5619 -0.651664 48.9809 2.37896C53.4034 5.41194 50.8812 12.6965 52.7012 17.726C54.699 23.247 63.5654 27.5671 60.1051 33.1211C56.3216 39.1939 46.4869 35.3944 39.8608 38.3359Z" fill="#E9E8DE"/>
</svg>
