<svg width="61" height="47" viewBox="0 0 61 47" fill="none" xmlns="http://www.w3.org/2000/svg">
<path fill-rule="evenodd" clip-rule="evenodd" d="M39.8608 38.3356C35.7695 40.1519 33.8559 46.8453 29.6143 46.6564C25.224 46.4609 26.0305 38.8118 21.9839 37.5394C15.3514 35.4538 4.46598 43.1206 0.7663 37.5852C-2.47001 32.7431 7.28889 26.7616 11.2392 21.4633C13.8983 17.8968 16.6267 14.6843 20.0349 11.7413C23.7866 8.50183 27.3622 5.03412 32.0053 3.53227C37.6986 1.69077 44.5619 -0.651908 48.9809 2.37871C53.4034 5.4117 50.8812 12.6963 52.7012 17.7258C54.699 23.2467 63.5654 27.5668 60.1051 33.1208C56.3216 39.1937 46.4869 35.3941 39.8608 38.3356Z" fill="#3F4045"/>
</svg>
