<svg width="85" height="85" viewBox="0 0 85 85" fill="none" xmlns="http://www.w3.org/2000/svg">
<path fill-rule="evenodd" clip-rule="evenodd" d="M41.3985 3.45134C47.0613 5.83138 48.8977 13.0789 54.385 15.8052C59.4113 18.3024 65.9648 15.743 71.0277 18.1723C76.5863 20.8393 82.5038 24.6137 84.457 30.2342C86.4089 35.8507 82.5729 41.7398 81.2246 47.5142C79.9941 52.7841 78.7588 57.9016 76.8125 62.9727C74.6012 68.7344 73.8607 75.6039 68.9269 79.5558C64.0129 83.4918 56.3033 86.6263 50.4633 84.078C43.0845 80.8583 44.3739 67.3204 36.5077 65.4098C29.1039 63.6115 22.923 80.0686 16.6841 75.8737C10.4935 71.7112 23.1881 61.684 20.794 54.8441C19.0462 49.8506 10.0281 51.1328 6.58273 47.0136C2.85398 42.5557 -1.99338 36.0205 0.861028 31.013C4.01591 25.4783 15.5376 29.8051 19.3325 24.6463C23.9201 18.41 16.4157 7.62227 22.0467 2.21349C26.6449 -2.20321 35.4201 0.938624 41.3985 3.45134Z" fill="#E9E8DE"/>
</svg>
