<svg width="288" height="288" viewBox="0 0 288 288" fill="none" xmlns="http://www.w3.org/2000/svg">
<path fill-rule="evenodd" clip-rule="evenodd" d="M195.815 0.00211128C219.269 0.279711 230.916 29.8284 245.305 48.3582C261.744 69.529 296.458 91.4926 285.978 116.116C273.301 145.9 212.778 126.879 199.348 156.331C183.166 191.818 235.503 236.669 215.688 270.262C200.129 296.641 155.832 287.554 125.893 280.864C98.1879 274.673 67.6624 270.625 46.9028 251.258C29.3342 234.867 29.8937 195.733 14.6973 177.126C-4.28429 153.884 3.63903 108.353 3.57567 78.3808C3.51265 48.5666 -8.31512 65.4749 14.4206 46.2018C31.4944 31.7283 49.0868 12.8656 71.4962 13.018C94.0927 13.1716 106.396 49.3326 128.865 46.98C156.474 44.0895 168.052 -0.326503 195.815 0.00211128Z" fill="#E9EDC9"/>
</svg>
