<svg width="289" height="289" viewBox="0 0 289 289" fill="none" xmlns="http://www.w3.org/2000/svg">
<path fill-rule="evenodd" clip-rule="evenodd" d="M196.083 0.922155C219.536 1.19976 231.184 30.7485 245.572 49.2783C262.011 70.4491 296.726 92.4126 286.246 117.036C273.568 146.82 213.046 127.799 199.616 157.251C183.434 192.738 235.77 237.589 215.956 271.182C200.396 297.561 156.1 288.474 126.16 281.784C98.4555 275.593 67.93 271.545 47.1704 252.178C29.6018 235.787 30.1613 196.653 14.9649 178.046C-4.01671 154.804 3.90661 109.274 3.84325 79.3008C3.78023 49.4866 -8.04754 66.3949 14.6882 47.1219C31.762 32.6483 49.3544 13.7856 71.7638 13.938C94.3603 14.0917 106.663 50.2526 129.133 47.9001C156.742 45.0095 168.32 0.593541 196.083 0.922155Z" fill="#3F4045"/>
</svg>
