<svg width="121" height="155" viewBox="0 0 121 155" fill="none" xmlns="http://www.w3.org/2000/svg">
<path fill-rule="evenodd" clip-rule="evenodd" d="M-45.2261 -128.655C-23.9332 -140.509 12.2533 -147.466 26.1689 -126.823C44.533 -99.5794 6.32456 -56.7393 22.5816 -28.0616C35.6777 -4.95971 76.922 -23.7707 95.2418 -4.97639C112.512 12.7415 130.437 47.3126 115.31 67.069C95.7415 92.6273 48.3806 65.7231 24.7163 87.1359C7.14563 103.035 -1.60379 97.9123 -22.5 108.5C-43.3793 119.079 -75.3234 120.788 -98.5 120C-120.516 119.251 -81.0302 152.542 -102.985 154.419C-126.639 156.442 -156.126 153.204 -170.336 133.272C-184.694 113.133 -178.484 82.7321 -171.163 58.7877C-164.735 37.7609 -132.602 29.9474 -131.999 7.87547C-131.173 -22.3721 -183.322 -48.3119 -167.546 -73.6486C-152.674 -97.5324 -112.547 -52.2706 -87.5473 -63.5126C-64.2276 -73.9992 -67.6369 -116.178 -45.2261 -128.655Z" fill="#3F4045"/>
</svg>
