<svg width="100" height="60" viewBox="0 0 432 349" fill="none" xmlns="http://www.w3.org/2000/svg">
<path fill-rule="evenodd" clip-rule="evenodd" d="M211.026 81.1045C246.732 81.4378 239.976 33.4447 274.909 41.1863C303.997 47.6326 301.126 76.3928 321.933 98.6304C354.406 133.336 406.796 112.25 427.748 155.6C444.344 189.937 409.29 239.617 375.645 255.112C337.708 272.584 291.336 214.483 254.918 235.198C220.056 255.027 250.281 342.727 211.026 348.747C174.863 354.293 191.718 267.011 159.025 249.903C122.75 230.921 70.139 287.259 39.7628 259.128C14.2594 235.51 62.7145 190.777 57.1942 155.6C49.9942 109.719 -16.515 71.6825 3.8648 30.3714C23.7397 -9.91615 87.663 -1.97027 129.833 8.35702C165.119 16.9985 174.789 80.7664 211.026 81.1045Z" fill="#E9E8DE"/>
</svg>
