<svg width="145" height="125" viewBox="0 0 145 125" fill="none" xmlns="http://www.w3.org/2000/svg">
<path fill-rule="evenodd" clip-rule="evenodd" d="M34.1826 -67.4364C48.3779 -75.3395 72.5022 -79.9777 81.7792 -66.2151C94.022 -48.0529 68.5497 -19.4929 79.3877 -0.374366C88.1185 15.0269 115.615 2.48617 127.828 15.0157C139.342 26.8277 151.291 49.8751 141.207 63.046C128.161 80.0849 96.5871 62.1487 80.8109 76.424C69.0971 87.0233 87.8412 116.881 73.9104 123.94C59.9908 130.992 49.6337 100.575 34.1826 100.05C19.505 99.5506 10.3132 120.028 -4.32356 121.279C-20.093 122.628 -39.7505 120.47 -49.2241 107.181C-58.7958 93.7551 -54.6558 73.488 -49.7755 57.5251C-45.4899 43.5073 -24.068 38.2983 -23.6661 23.5836C-23.1152 3.41858 -57.8815 -13.8746 -47.3637 -30.7657C-37.4491 -46.6882 -10.6978 -16.5137 5.96849 -24.0084C21.5149 -30.9995 19.2421 -59.1185 34.1826 -67.4364Z" fill="#3F4045"/>
</svg>
