<svg width="100" height="100" viewBox="0 0 100 100" fill="none" xmlns="http://www.w3.org/2000/svg">
<path fill-rule="evenodd" clip-rule="evenodd" d="M44.5913 3.78178C51.6889 -0.169741 63.7511 -2.48883 68.3896 4.39245C74.511 13.4735 61.7749 27.7536 67.1939 37.3128C71.5592 45.0134 85.3073 38.7431 91.4139 45.0079C97.1708 50.9138 103.146 62.4375 98.1034 69.023C91.5805 77.5424 75.7935 68.5744 67.9054 75.712C62.0485 81.0116 71.4206 95.9406 64.4552 99.4698C57.4954 102.996 52.3168 87.7875 44.5913 87.5248C37.2525 87.2753 32.6566 97.514 25.3382 98.1397C17.4535 98.8139 7.62476 97.7348 2.88793 91.0905C-1.89791 84.3776 0.172083 74.244 2.61224 66.2626C4.75506 59.2536 15.466 56.6491 15.667 49.2918C15.9424 39.2093 -1.44074 30.5627 3.81815 22.1171C8.77545 14.1559 22.1511 29.2431 30.4842 25.4958C38.2575 22.0003 37.121 7.94076 44.5913 3.78178Z" fill="#3F4045"/>
</svg>
