<svg width="54" height="37" viewBox="0 0 54 37" fill="none" xmlns="http://www.w3.org/2000/svg">
<path fill-rule="evenodd" clip-rule="evenodd" d="M36.8109 4.10297C42.075 4.4693 48.4903 0.711001 52.3829 4.47321C55.5467 7.53093 50.4444 12.3094 49.4222 16.2917C48.6554 19.279 49.3729 23.0971 47.0832 25.1196C44.6452 27.2731 40.3319 25.6373 37.3191 26.9824C35.1608 27.946 34.5464 30.93 32.304 31.7179C30.0244 32.5189 27.3162 30.8127 24.9342 31.3342C20.276 32.3539 16.0639 38.8677 11.8286 36.2004C7.87053 33.7077 12.6554 27.4502 11.7414 23.0257C11.1432 20.1293 8.87042 17.8314 7.48078 15.1514C5.32078 10.9857 -1.53387 6.16656 1.22717 2.74833C4.44274 -1.23262 11.8796 3.74869 17.1711 3.15453C19.5378 2.88879 21.021 0.299268 23.4202 0.256388C25.7869 0.21409 27.786 2.25557 30.1104 2.92328C32.3329 3.56171 34.5374 3.94476 36.8109 4.10297Z" fill="#3F4045"/>
</svg>
