<svg width="160" height="173" viewBox="0 0 160 173" fill="none" xmlns="http://www.w3.org/2000/svg">
<path fill-rule="evenodd" clip-rule="evenodd" d="M7.54238 -17.7712C32.8809 -20.35 44.7275 -57.0144 70.0735 -59.5175C97.6333 -62.2393 129.892 -53.5168 146.826 -31.5266C163.563 -9.7918 162.554 23.1581 153.772 49.1747C145.569 73.4783 123.506 90.8269 101.259 103.474C84.0642 113.249 59.7928 100.477 43.5803 111.816C24.8183 124.938 28.2016 159.178 7.54238 169.02C-12.0684 178.362 -36.7309 169.696 -55.7073 159.116C-74.8006 148.471 -93.6959 131.766 -97.8689 110.25C-102.037 88.7616 -72.1665 70.5156 -77.03 49.1747C-84.2423 17.5273 -139.255 0.606068 -129.941 -30.4839C-121.779 -57.7318 -76.3036 -50.1042 -48.0714 -47.4937C-26.7947 -45.5263 -13.7154 -15.6078 7.54238 -17.7712Z" fill="#3F4045"/>
</svg>
