<svg width="320" height="263" viewBox="0 0 320 263" fill="none" xmlns="http://www.w3.org/2000/svg">
<path fill-rule="evenodd" clip-rule="evenodd" d="M142.736 32.2186C171.251 32.4725 179.016 -1.66331 206.914 4.23719C230.144 9.15038 198.135 56.817 214.752 73.766C240.685 100.218 299.08 82.2728 315.813 115.313C329.066 141.484 301.072 179.349 274.203 191.159C243.906 204.476 206.873 160.193 177.789 175.981C149.948 191.095 174.086 257.938 142.736 262.526C113.856 266.752 127.317 200.228 101.208 187.189C72.2379 172.721 30.2223 215.661 5.9635 194.22C-14.4038 176.219 24.293 142.125 19.8844 115.313C14.1344 80.3436 -10.312 63.7049 5.96352 32.2186C21.8359 1.51227 44.2171 -4.78314 77.8945 3.08809C106.075 9.67444 113.797 31.9608 142.736 32.2186Z" fill="#3F4045"/>
</svg>
