<svg width="77" height="74" viewBox="0 0 77 74" fill="none" xmlns="http://www.w3.org/2000/svg">
<path fill-rule="evenodd" clip-rule="evenodd" d="M47.5306 12.2711C57.2633 14.0676 70.0252 2.26979 75.3444 10.4564C81.033 19.2115 64.1032 23.6629 59.9214 31.3415C58.4749 33.9975 57.4826 37.4008 58.9377 40.5821C62.487 48.342 75.834 54.8743 74.0131 62.1503C72.5697 67.9179 60.6048 62.3351 53.6714 61.6253C48.9153 61.1383 43.5633 57.1203 39.5101 58.6178C32.0711 61.3663 30.9654 72.1326 22.6551 73.0846C15.9879 73.8484 7.27439 68.6091 3.24473 62.7722C-1.11513 56.4571 1.22137 49.1996 1.56172 42.5315C1.80085 37.8464 4.79512 34.1306 4.94671 29.4267C5.08133 25.2494 0.00565664 19.8928 2.39431 16.6955C4.97459 13.2416 12.9723 16.776 16.4312 14.054C20.0511 11.2053 17.4171 3.92098 21.5392 1.62907C25.2887 -0.455638 31.2447 1.25286 35.9728 3.18876C40.5389 5.05832 42.8165 11.4009 47.5306 12.2711Z" fill="#E9E8DE"/>
</svg>
