<svg width="500" height="38" viewBox="0 0 500 38" fill="none" xmlns="http://www.w3.org/2000/svg">
<path fill-rule="evenodd" clip-rule="evenodd" d="M500 9.40727L479.167 14.1727C458.333 18.9382 416.667 28.4691 375 26.0864C333.333 23.7036 291.667 9.40727 250 3.45045C208.333 -2.50636 166.667 -0.123637 125 5.83318C83.3334 11.79 41.6667 21.3209 20.8333 26.0864L-3.57252e-06 30.8518V38H20.8333C41.6667 38 83.3334 38 125 38C166.667 38 208.333 38 250 38C291.667 38 333.333 38 375 38C416.667 38 458.333 38 479.167 38H500V9.40727Z" fill="#E9E8DE" fill-opacity="0.7"/>
</svg>
