<svg width="500" height="38" viewBox="0 0 500 38" fill="none" xmlns="http://www.w3.org/2000/svg">
<path fill-rule="evenodd" clip-rule="evenodd" d="M500 22.819L478.346 23.4791C458.661 24.7992 417.323 26.1192 374.016 21.499C332.677 16.2186 291.339 4.33787 250 1.03767C208.661 -2.26254 167.323 3.01779 124.016 6.97804C82.6772 10.9383 41.3386 14.8985 21.6535 16.2186L-3.8147e-06 18.1987V38H21.6535C41.3386 38 82.6772 38 124.016 38C167.323 38 208.661 38 250 38C291.339 38 332.677 38 374.016 38C417.323 38 458.661 38 478.346 38H500V22.819Z" fill="#E9E8DE" fill-opacity="0.7"/>
</svg>
