<svg width="500" height="38" viewBox="0 0 500 38" fill="none" xmlns="http://www.w3.org/2000/svg">
<path fill-rule="evenodd" clip-rule="evenodd" d="M500 38L479.167 33.7778C458.333 29.5556 416.667 21.1111 375 13.7222C333.333 6.33333 291.667 0 250 2.11111C208.333 4.22222 166.667 14.7778 125 15.8333C83.3333 16.8889 41.6667 8.44444 20.8333 4.22222L1.19209e-05 0V38H20.8333C41.6667 38 83.3333 38 125 38C166.667 38 208.333 38 250 38C291.667 38 333.333 38 375 38C416.667 38 458.333 38 479.167 38H500Z" fill="#E9E8DE" fill-opacity="0.7"/>
</svg>
