<svg width="500" height="38" viewBox="0 0 500 38" fill="none" xmlns="http://www.w3.org/2000/svg">
<path fill-rule="evenodd" clip-rule="evenodd" d="M0 1.34166L20.8333 0.662804C41.6667 -0.0160545 83.3333 -1.37377 125 4.05709C166.667 9.48796 208.333 21.7074 250 23.0651C291.667 24.4228 333.333 14.9188 375 12.2034C416.667 9.48796 458.333 13.5611 479.167 15.5977L500 17.6343V38H479.167C458.333 38 416.667 38 375 38C333.333 38 291.667 38 250 38C208.333 38 166.667 38 125 38C83.3333 38 41.6667 38 20.8333 38H0V1.34166Z" fill="#E9E8DE" fill-opacity="0.7"/>
</svg>
