<svg width="254" height="38" viewBox="0 0 254 38" fill="none" xmlns="http://www.w3.org/2000/svg">
<path fill-rule="evenodd" clip-rule="evenodd" d="M254 38L243.417 33.7778C232.833 29.5556 211.667 21.1111 190.5 13.7222C169.333 6.33333 148.167 0 127 2.11111C105.833 4.22222 84.6667 14.7778 63.5 15.8333C42.3333 16.8889 21.1667 8.44444 10.5833 4.22222L-8.10623e-06 0V38H10.5833C21.1667 38 42.3333 38 63.5 38C84.6667 38 105.833 38 127 38C148.167 38 169.333 38 190.5 38C211.667 38 232.833 38 243.417 38H254Z" fill="#E9E8DE" fill-opacity="0.7"/>
</svg>
