<svg width="254" height="38" viewBox="0 0 254 38" fill="none" xmlns="http://www.w3.org/2000/svg">
<path fill-rule="evenodd" clip-rule="evenodd" d="M254 9.40727L243.417 14.1727C232.833 18.9382 211.667 28.4691 190.5 26.0864C169.333 23.7036 148.167 9.40727 127 3.45045C105.833 -2.50636 84.6667 -0.123637 63.5 5.83318C42.3333 11.79 21.1667 21.3209 10.5833 26.0864L-1.19208e-07 30.8518V38H10.5833C21.1667 38 42.3333 38 63.5 38C84.6667 38 105.833 38 127 38C148.167 38 169.333 38 190.5 38C211.667 38 232.833 38 243.417 38H254V9.40727Z" fill="#E9E8DE" fill-opacity="0.7"/>
</svg>
