<svg width="500" height="500" viewBox="0 0 500 500" fill="none" xmlns="http://www.w3.org/2000/svg">
<path fill-rule="evenodd" clip-rule="evenodd" d="M280.06 88.3706C332.109 95.1198 380.92 22.9176 426.666 45.5205C471.342 67.5947 440.569 131.537 454.444 174.533C465.463 208.677 504.99 236.003 499.475 271.138C493.956 306.3 455.397 328.923 426.303 353.83C399.371 376.886 367.201 391.53 336.479 410.677C288.131 440.81 251.836 510.456 193.903 498.671C137.382 487.173 152.67 406.242 117.481 366.128C85.6998 329.898 10.1526 323.439 0.859385 278.607C-8.36632 234.1 59.3798 205.532 75.2648 162.466C94.4734 110.391 44.2446 24.4878 102.347 3.46593C166.045 -19.5803 211.816 79.5213 280.06 88.3706Z" fill="#3F4045" fill-opacity="0.5"/>
</svg>
