<svg width="60" height="42" viewBox="0 0 60 42" fill="none" xmlns="http://www.w3.org/2000/svg">
<path fill-rule="evenodd" clip-rule="evenodd" d="M33.1414 3.77854C38.7924 2.97362 44.3771 -1.38046 49.3614 0.441532C54.3791 2.27569 51.3242 7.32439 52.4614 10.8408C53.216 13.1741 53.8935 15.3981 54.9393 17.6886C56.426 20.945 60.6222 23.8263 59.9218 27.1807C59.1527 30.8641 55.4755 34.1718 50.979 36.6557C45.9802 39.4171 39.8448 42.3025 33.1414 41.9744C26.4298 41.6459 22.5942 37.1664 16.874 34.9862C11.3805 32.8924 1.42118 33.2799 0.125674 29.3908C-1.36912 24.9034 10.9612 22.268 11.112 17.6886C11.2576 13.2669 -2.06526 10.2906 0.887587 6.25653C3.67687 2.44591 14.0013 5.03521 20.7537 4.51644C24.9416 4.1947 29.0301 4.36416 33.1414 3.77854Z" fill="#3F4045"/>
</svg>
