<svg width="61" height="43" viewBox="0 0 61 43" fill="none" xmlns="http://www.w3.org/2000/svg">
<path fill-rule="evenodd" clip-rule="evenodd" d="M33.5438 3.97678C39.1947 3.17186 44.7794 -1.18222 49.7638 0.639775C54.7814 2.47393 51.7265 7.52263 52.8638 11.0391C53.6184 13.3723 54.2958 15.5964 55.3416 17.8869C56.8284 21.1432 61.0246 24.0245 60.3242 27.3789C59.5551 31.0623 55.8778 34.37 51.3813 36.854C46.3825 39.6153 40.2471 42.5008 33.5438 42.1726C26.8322 41.8441 22.9965 37.3646 17.2763 35.1845C11.7829 33.0907 1.82352 33.4781 0.528018 29.589C-0.966781 25.1016 11.3635 22.4662 11.5143 17.8869C11.6599 13.4651 -1.66291 10.4888 1.28993 6.45477C4.07921 2.64415 14.4037 5.23345 21.156 4.71469C25.3439 4.39294 29.4325 4.56241 33.5438 3.97678Z" fill="#E9E8DE"/>
</svg>
