<svg width="100" height="100" viewBox="0 0 100 100" fill="none" xmlns="http://www.w3.org/2000/svg">
<path fill-rule="evenodd" clip-rule="evenodd" d="M53.0958 0.093776C60.6792 -0.854877 66.9233 5.62643 73.6482 9.04428C80.1078 12.3273 88.8307 13.7273 92.0755 19.9048C95.4465 26.3225 89.0321 34.0118 90.4541 41.0394C91.804 47.7105 99.8757 52.2683 99.9979 59.0573C100.12 65.8654 94.9204 71.6314 91.1091 77.4291C86.9537 83.7505 84.2549 92.8846 76.5702 94.6962C68.3558 96.6326 61.5166 85.5323 53.0958 86.3903C43.125 87.4062 36.7353 102.102 27.0265 99.7443C18.2953 97.624 20.2119 84.3461 15.355 77.2254C11.0708 70.9442 1.53005 67.6905 0.155265 60.3486C-1.22978 52.9518 7.07479 46.8691 8.28064 39.4448C9.6073 31.2768 1.35166 20.8806 7.52412 14.9797C14.0282 8.76187 26.2524 16.7418 35.0268 13.8757C42.4536 11.4497 45.2997 1.06903 53.0958 0.093776Z" fill="#3F4045" fill-opacity="0.6"/>
</svg>
