<svg width="252" height="317" viewBox="0 0 252 317" fill="none" xmlns="http://www.w3.org/2000/svg">
<path fill-rule="evenodd" clip-rule="evenodd" d="M234.22 220.471C233.531 253.73 245.138 303.348 213.654 314.984C181.307 326.938 156.268 269.701 121.164 262.253C89.5124 255.537 52.0834 299.096 29.3307 275.877C5.16002 251.211 46.2412 213.859 41.6168 181.076C38.379 158.124 11.2711 142.882 7.34046 119.986C2.25163 90.3421 -7.63884 50.787 16.3135 33.679C40.9744 16.0649 78.5338 52.6958 109.283 47.1732C143.216 41.0785 162.644 -7.21921 197.082 1.21242C229.379 9.12002 247.15 50.2147 251.149 81.907C254.814 110.955 220.392 129.685 216.899 158.276C214.307 179.489 234.665 198.974 234.22 220.471Z" fill="#E9E8DE"/>
</svg>
