<svg width="50" height="50" viewBox="0 0 432 349" fill="none" xmlns="http://www.w3.org/2000/svg">
<path fill-rule="evenodd" clip-rule="evenodd" d="M193.172 42.7997C231.763 43.1371 242.27 -2.20958 280.026 5.62875C311.465 12.1555 268.146 75.4767 290.634 97.992C325.731 133.131 404.759 109.293 427.404 153.184C445.341 187.95 407.455 238.25 371.092 253.939C330.09 271.629 279.97 212.803 240.61 233.776C202.931 253.854 235.599 342.649 193.172 348.744C154.086 354.359 172.304 265.987 136.969 248.665C97.763 229.446 40.9013 286.487 8.07069 258.005C-19.4933 234.092 32.8768 188.801 26.9105 153.184C19.1288 106.73 -13.9558 84.6268 8.07072 42.7997C29.5515 2.00892 59.8411 -6.35401 105.418 4.10227C143.556 12.8517 154.006 42.4573 193.172 42.7997Z" fill="#3F4045"/>
</svg>
