<svg width="1000" height="1000" viewBox="0 0 1000 1000" fill="none" xmlns="http://www.w3.org/2000/svg">
<path d="M964.354 561.816C917.235 590.518 904.237 625.37 925.359 666.373C946.481 707.376 947.7 743.048 929.015 773.39C910.33 803.732 899.363 843.915 896.113 893.938C892.864 943.961 857.931 952.572 791.315 919.77C724.699 886.967 682.049 886.147 663.364 917.309C644.679 948.471 617.87 951.752 582.938 927.15C548.005 902.548 517.54 892.708 491.544 897.628C465.548 902.548 438.739 903.369 411.118 900.088C383.496 896.808 342.065 916.079 286.822 957.902C231.58 999.725 186.492 1010.39 151.56 989.884C116.627 969.383 86.5686 942.731 61.3845 909.929C36.2005 877.127 19.1404 840.634 10.2041 800.452C1.26782 760.269 16.297 716.806 55.2916 670.063C94.2862 623.32 108.503 586.418 97.942 559.356C87.3809 532.294 63.4155 500.312 26.0457 463.41C-11.3242 426.507 -8.48084 396.986 34.5757 374.844C77.6323 352.703 102.816 325.641 110.128 293.659C117.439 261.677 120.283 221.084 118.658 171.881C117.033 122.678 147.091 112.427 208.833 141.129C270.574 169.831 304.289 149.739 309.975 80.8548C315.662 11.9703 340.44 -0.330471 384.309 43.9524C428.178 88.2353 465.954 93.5657 497.637 59.9435C529.32 26.3213 564.253 6.63999 602.435 0.899611C640.617 -4.84076 667.832 16.8907 684.08 66.0939C700.328 115.297 738.916 128.418 799.845 105.456C860.774 82.4949 901.8 89.0554 922.922 125.138C944.044 161.22 939.982 207.963 910.736 265.367C881.49 322.771 871.742 365.003 881.49 392.065C891.239 419.127 919.266 447.009 965.572 475.711C1011.88 504.413 1011.47 533.114 964.354 561.816Z" fill="#E9E8DE" fill-opacity="0.01"/>
</svg>
