<svg width="272" height="313" viewBox="0 0 272 313" fill="none" xmlns="http://www.w3.org/2000/svg">
<path fill-rule="evenodd" clip-rule="evenodd" d="M163.491 35.6546C197.557 35.9871 233.058 -16.6783 258.906 5.41604C286.683 29.1601 253.255 75.9565 253.283 112.407C253.298 131.053 256.76 148.403 259.029 166.911C262.279 193.415 278.019 219.375 269.504 244.694C259.806 273.535 239.993 304.826 210.279 311.882C180.435 318.97 154.785 290.496 126.503 278.654C101.936 268.367 72.7633 266.614 54.9748 246.854C37.0876 226.985 38.8768 197.655 30.7075 172.243C20.5642 140.69 -5.79476 111.82 1.15004 79.4196C8.29571 46.0823 33.82 12.4509 66.8676 3.54173C100.32 -5.47656 128.836 35.3164 163.491 35.6546Z" fill="#3F4045" fill-opacity="0.5"/>
</svg>
