<svg width="200" height="200" viewBox="0 0 200 200" fill="none" xmlns="http://www.w3.org/2000/svg">
<path fill-rule="evenodd" clip-rule="evenodd" d="M99.589 40.5795C114.871 43.6187 126.723 10.1332 139.689 18.4364C154.185 27.7194 131.568 54.6088 142.173 67.8497C151.557 79.5666 175.296 67.6408 186.896 77.3794C197.046 85.9006 203.925 102.948 197.52 114.314C189.847 127.929 160.394 120.374 154.541 134.791C147.128 153.051 176.27 174.886 166.039 191.858C158.18 204.897 133.425 199.919 119.33 193.206C104.045 185.928 103.594 162.281 88.377 154.874C78.2897 149.964 66.9964 162.41 55.6769 162.222C40.1741 161.965 18.3478 166.396 10.5672 153.583C2.79635 140.786 26.9466 126.65 25.1524 111.955C23.3273 97.0074 -5.17211 87.7385 0.828547 73.8242C7.12757 59.2179 38.5293 72.9783 47.6453 59.7985C59.1281 43.1966 31.8738 8.04362 51.2968 0.857188C71.3238 -6.5527 78.5633 36.398 99.589 40.5795Z" fill="#E9E8DE"/>
</svg>
