<svg width="60" height="42" viewBox="0 0 60 42" fill="none" xmlns="http://www.w3.org/2000/svg">
<path fill-rule="evenodd" clip-rule="evenodd" d="M23.8255 0.742607C29.8005 -0.888447 38.1587 0.244257 42.4485 3.38582C46.8592 6.61593 41.564 12.1342 44.6108 15.9646C47.9172 20.1214 60.1594 20.7779 59.9984 25.4496C59.8459 29.8774 49.0216 30.3579 44.0107 33.3831C39.7231 35.9715 38.5424 41.0234 32.8166 41.8592C27.0435 42.702 21.6884 39.5782 16.8889 37.3423C13.2128 35.6297 11.205 33.0006 8.63063 30.5916C6.36207 28.4689 3.93652 26.5038 2.688 24.0541C1.23574 21.2046 -1.3411 17.9644 0.846098 15.3177C3.04686 12.6547 9.82628 13.4959 13.1615 11.3805C17.925 8.35912 17.6747 2.42163 23.8255 0.742607Z" fill="#3F4045"/>
</svg>
