<svg width="61" height="43" viewBox="0 0 61 43" fill="none" xmlns="http://www.w3.org/2000/svg">
<path fill-rule="evenodd" clip-rule="evenodd" d="M24.2278 0.94085C30.2029 -0.690205 38.5611 0.442499 42.8508 3.58407C47.2615 6.81418 41.9663 12.3324 45.0131 16.1628C48.3195 20.3197 60.5617 20.9762 60.4008 25.6478C60.2482 30.0756 49.424 30.5562 44.413 33.5813C40.1254 36.1697 38.9447 41.2216 33.2189 42.0575C27.4459 42.9002 22.0908 39.7765 17.2912 37.5405C13.6151 35.8279 11.6073 33.1988 9.03297 30.7899C6.76441 28.6671 4.33887 26.702 3.09034 24.2523C1.63808 21.4029 -0.938755 18.1626 1.24844 15.516C3.44921 12.8529 10.2286 13.6941 13.5638 11.5787C18.3273 8.55736 18.077 2.61987 24.2278 0.94085Z" fill="#E9E8DE"/>
</svg>
