<svg width="25" height="25" viewBox="0 0 25 25" fill="none" xmlns="http://www.w3.org/2000/svg">
<path fill-rule="evenodd" clip-rule="evenodd" d="M14.079 3.07789C16.9533 2.80852 19.1779 -0.774093 21.8584 0.152757C24.3331 1.00843 23.5655 4.34012 24.162 6.56436C24.6357 8.33041 25.0574 10.0312 24.9936 11.8422C24.9225 13.8588 25.0663 15.9932 23.7701 17.6792C22.4049 19.4551 19.9283 20.1895 17.7681 21.241C14.9468 22.6142 12.1643 25.8628 9.1728 24.7845C6.04079 23.6555 6.80154 19.5266 5.53347 16.8307C4.73173 15.1262 3.86782 13.5639 3.08954 11.8514C2.05029 9.56479 -0.755683 7.39489 0.192734 5.07957C1.12157 2.81204 4.55231 1.91442 7.32366 1.51494C9.67154 1.1765 11.7122 3.29971 14.079 3.07789Z" fill="#3F4045" fill-opacity="0.5"/>
</svg>
