<svg width="25" height="25" viewBox="0 0 25 25" fill="none" xmlns="http://www.w3.org/2000/svg">
<path fill-rule="evenodd" clip-rule="evenodd" d="M13.3425 0.274772C15.6357 1.12312 15.4477 4.85581 17.4348 6.30362C19.2623 7.63517 22.3555 6.19158 23.8342 7.91913C25.2724 9.5994 25.2729 12.4055 24.4173 14.4614C23.5928 16.4425 20.8296 16.6303 19.5108 18.3072C18.1114 20.0867 18.5773 23.211 16.6425 24.3476C14.7358 25.4676 12.0097 25.0609 10.2073 23.772C8.45496 22.519 9.24769 19.333 7.62966 17.9027C5.52473 16.0419 0.639393 17.5719 0.0451445 14.7889C-0.526411 12.1122 4.49396 11.6912 5.7918 9.29563C6.92107 7.21122 5.26333 4.17091 6.77799 2.36133C8.30045 0.542433 11.143 -0.538872 13.3425 0.274772Z" fill="#3F4045" fill-opacity="0.5"/>
</svg>
