<svg width="30" height="30" viewBox="0 0 54 54" fill="none" xmlns="http://www.w3.org/2000/svg">
<path fill-rule="evenodd" clip-rule="evenodd" d="M23.9227 3.66477C28.6652 3.71419 33.3059 1.68203 37.7926 3.15212C43.3452 4.97143 50.0341 7.39431 51.7167 12.7714C53.4012 18.1549 47.0861 22.7065 45.6137 28.1465C43.986 34.1608 47.0147 41.4733 42.6931 46.1118C38.2434 50.8879 30.3668 53.1443 23.9227 51.4286C17.692 49.7698 15.6915 42.483 11.4686 37.7986C8.4671 34.4691 4.25852 32.1384 2.7806 27.976C1.29136 23.7816 2.18177 19.3034 3.38278 15.0253C4.64631 10.5245 5.61286 5.19401 9.83138 2.86077C14.0067 0.551397 19.0995 3.61452 23.9227 3.66477Z" stroke="#F6B452" stroke-width="3"/>
</svg>
