<svg width="30" height="30" viewBox="0 0 54 54" fill="none" xmlns="http://www.w3.org/2000/svg">
<path fill-rule="evenodd" clip-rule="evenodd" d="M26.6183 2.03128C31.6385 2.21508 36.5424 3.51008 40.7384 6.58638C45.0878 9.77515 48.7522 14.1318 50.5491 19.5762C52.3916 25.159 52.4945 31.353 50.7705 36.9826C49.0629 42.5588 45.7651 47.674 41.0969 50.4421C36.7234 53.0354 31.56 51.6978 26.6183 51.3039C22.0741 50.9416 16.8858 51.7294 13.5705 48.2479C10.3203 44.8347 12.1025 38.6977 10.2854 34.152C8.10759 28.7041 1.69475 25.2848 2.01132 19.3315C2.3305 13.3289 7.24323 8.73617 11.8075 5.52722C16.1824 2.45141 21.448 1.842 26.6183 2.03128Z" stroke="#F6B452" stroke-width="3"/>
</svg>
