<svg width="30" height="30" viewBox="0 0 54 54" fill="none" xmlns="http://www.w3.org/2000/svg">
<path fill-rule="evenodd" clip-rule="evenodd" d="M28.3872 3.00989C32.2906 2.21949 36.2466 1.31057 39.9906 2.78928C44.6586 4.63296 50.4368 6.87627 51.7972 12.2559C53.1619 17.6526 47.2277 21.9264 46.2199 27.4226C44.9979 34.0864 49.1873 42.0604 45.3678 47.3169C41.5762 52.5352 34.3565 52.0105 28.3872 51.9647C22.4541 51.9191 15.7739 51.7997 11.5731 47.0575C7.49329 42.4519 9.16417 34.7856 7.60709 28.5065C6.14348 22.6043 -0.121499 16.6385 2.73895 11.4328C5.83873 5.79166 13.8163 8.79906 19.4534 6.94783C22.5996 5.91461 25.1624 3.66287 28.3872 3.00989Z" stroke="#F6B452" stroke-width="3"/>
</svg>
