<svg width="30" height="30" viewBox="0 0 54 54" fill="none" xmlns="http://www.w3.org/2000/svg">
<path fill-rule="evenodd" clip-rule="evenodd" d="M23.3002 2.05779C27.2326 2.36259 30.3016 5.38717 34.027 6.83775C39.9925 9.16063 49.3077 6.48972 51.6444 13.0945C53.9187 19.523 44.6274 24.011 42.3813 30.4521C40.3603 36.2473 43.2646 43.9559 39.3494 48.351C35.3921 52.7934 28.8872 51.8763 23.3002 51.8719C17.7172 51.8676 10.9548 53.0478 7.26712 48.3261C3.54147 43.5558 7.02621 36.04 6.04822 29.7826C5.27458 24.8328 1.10705 20.6164 2.17348 15.7361C3.25483 10.7874 7.52195 7.62699 11.4445 5.08737C15.046 2.75564 19.1561 1.73657 23.3002 2.05779Z" stroke="#F6B452" stroke-width="3"/>
</svg>
