<svg width="30" height="30" viewBox="0 0 54 54" fill="none" xmlns="http://www.w3.org/2000/svg">
<path fill-rule="evenodd" clip-rule="evenodd" d="M26.6823 3.16736C31.4406 3.38015 36.2804 2.02895 40.5691 4.59858C45.3957 7.49048 50.6208 11.7132 51.7897 18.2107C52.9476 24.6477 49.0753 30.6571 46.2632 36.2515C44.0524 40.6496 40.9553 43.9478 37.4438 46.7501C34.1302 49.3945 30.613 51.5752 26.6823 51.8775C22.5599 52.1945 17.7937 52.154 14.9074 48.4832C12.0748 44.8807 14.5441 38.4612 12.6384 34.0162C9.99162 27.8429 2.13635 25.3758 2.00226 18.3832C1.87411 11.701 7.23081 6.2942 12.0498 3.32321C16.5287 0.561823 21.6855 2.94391 26.6823 3.16736Z" stroke="#F6B452" stroke-width="3"/>
</svg>
