<svg width="642" height="652" viewBox="0 0 642 652" fill="none" xmlns="http://www.w3.org/2000/svg">
<path fill-rule="evenodd" clip-rule="evenodd" d="M316.863 0.286858C382.649 -5.50857 418.687 77.9933 472.319 116.529C522.387 152.505 591.642 165.37 621.603 219.253C652.154 274.196 641.186 341.542 632.018 403.735C622.877 465.743 611.417 530.761 568.895 576.809C526.876 622.312 464.915 650.498 402.992 651.752C346.236 652.901 302.417 606.983 250.848 583.252C208.051 563.558 163.805 551.738 125.64 524.119C78.1713 489.767 15.6831 460.723 2.60634 403.606C-10.4716 346.485 28.2653 290.19 60.9453 241.549C90.0549 198.222 140.086 178.257 178.067 142.452C227.253 96.0824 249.527 6.21884 316.863 0.286858Z" fill="#3F4045" fill-opacity="0.5"/>
</svg>
