<svg width="272" height="313" viewBox="0 0 272 313" fill="none" xmlns="http://www.w3.org/2000/svg">
<path fill-rule="evenodd" clip-rule="evenodd" d="M140.581 0.315101C171.573 -4.74819 173.329 52.6039 197.807 72.1093C218.268 88.4132 256.397 79.3839 268.672 102.383C280.802 125.111 256.06 150.857 253.491 176.442C250.752 203.72 274.672 239.796 253.147 257.014C229.919 275.595 194.174 236.409 166.068 246.374C134.823 257.453 128.5 314.737 95.3639 312.96C65.594 311.363 63.3602 265.228 47.7924 240.031C35.1115 219.506 18.8748 201.808 12.3647 178.622C5.18049 153.036 -9.34166 120.327 8.65588 100.649C28.4111 79.049 70.9817 106.765 94.3181 89.0167C121.513 68.3344 106.757 5.84094 140.581 0.315101Z" fill="#3F4045" fill-opacity="0.5"/>
</svg>
