<svg width="174" height="250" viewBox="0 0 174 250" fill="none" xmlns="http://www.w3.org/2000/svg">
<path fill-rule="evenodd" clip-rule="evenodd" d="M35.7891 30.6588C58.1219 30.9005 64.2027 -1.58279 86.0522 4.03206C104.246 8.70739 79.1768 54.0664 92.1909 70.1949C112.502 95.3662 158.236 78.2898 171.34 109.731C181.721 134.635 159.795 170.666 138.752 181.905C115.024 194.577 86.02 152.438 63.242 167.462C41.437 181.844 60.342 245.45 35.7891 249.817C13.1703 253.839 23.713 190.535 3.26454 178.127C-19.4242 164.36 -52.3303 205.22 -71.3295 184.818C-87.2809 167.688 -56.9741 135.244 -60.4268 109.731C-64.9301 76.4541 -84.0763 60.6209 -71.3294 30.6588C-58.8984 1.43906 -41.3697 -4.55158 -14.994 2.93859C7.0762 9.20608 13.1241 30.4136 35.7891 30.6588Z" fill="#3F4045"/>
</svg>
