<svg width="700" height="700" viewBox="0 0 700 700" fill="none" xmlns="http://www.w3.org/2000/svg">
<rect width="700" height="700" fill="white"/>
<path fill-rule="evenodd" clip-rule="evenodd" d="M319.132 102.492C377.777 108.246 423.294 27.6203 481.512 36.8755C536.579 45.63 570.011 104.45 605.998 148.097C642.662 192.563 680.283 238.5 694.289 294.94C708.404 351.817 692.804 410.358 685.53 468.573C677.658 531.578 698.712 614.483 649.541 653.089C595.305 695.672 514.888 646.076 447.234 655.669C402.033 662.079 364.746 698.67 319.132 699.944C273.115 701.23 230.493 680.129 187.624 662.923C142.239 644.706 89.1786 634.852 59.0509 595.554C28.9301 556.264 35.1484 500.528 25.5562 451.522C16.1852 403.646 -8.38501 356.177 2.91191 308.74C14.1921 261.374 67.1118 237.205 87.1274 192.979C114.484 132.534 80.3481 27.1541 141.07 3.47087C204.978 -21.4548 251.072 95.8136 319.132 102.492Z" fill="black"/>
</svg>
