<svg width="418" height="322" viewBox="0 0 418 322" fill="none" xmlns="http://www.w3.org/2000/svg">
<path fill-rule="evenodd" clip-rule="evenodd" d="M204.187 74.83C238.736 75.1374 232.199 30.8573 266 38C294.146 43.9475 291.367 70.4828 311.5 91C342.921 123.021 393.612 103.566 413.886 143.562C429.944 175.243 396.026 221.079 363.472 235.375C326.764 251.496 281.895 197.89 246.657 217.002C212.925 235.297 242.171 316.212 204.187 321.767C169.196 326.883 185.505 246.354 153.871 230.57C118.772 213.056 67.866 265.035 38.4742 239.081C13.7973 217.29 60.6821 176.018 55.3407 143.562C48.3741 101.23 -15.9798 66.1369 3.73955 28.0218C22.9704 -9.14899 84.8221 -1.81784 125.625 7.71049C159.768 15.6834 169.124 74.518 204.187 74.83Z" fill="#3F4045"/>
</svg>
