<svg width="85" height="85" viewBox="0 0 85 85" fill="none" xmlns="http://www.w3.org/2000/svg">
<path fill-rule="evenodd" clip-rule="evenodd" d="M42.3253 17.2463C48.8201 18.5379 53.8572 4.30662 59.3677 7.83546C65.5285 11.7807 55.9166 23.2087 60.4236 28.8361C64.4118 33.8158 74.5008 28.7473 79.4309 32.8863C83.7447 36.5078 86.6682 43.7529 83.9458 48.5835C80.6848 54.37 68.1675 51.1591 65.6801 57.2862C62.5295 65.0468 74.9147 74.3265 70.5666 81.5398C67.2264 87.0812 56.7054 84.9655 50.7151 82.1128C44.2191 79.0192 44.0274 68.9695 37.5602 65.8215C33.2731 63.7346 28.4735 69.0243 23.6627 68.9444C17.074 68.8351 7.7978 70.7182 4.49105 65.2728C1.18845 59.8341 11.4523 53.8262 10.6898 47.5809C9.91409 41.2281 -2.19814 37.2889 0.352133 31.3753C3.02922 25.1676 16.3749 31.0158 20.2492 25.4143C25.1294 18.3586 13.5464 3.41854 21.8011 0.364305C30.3126 -2.7849 33.3894 15.4691 42.3253 17.2463Z" fill="#E9E8DE"/>
</svg>
