<svg width="80" height="50" viewBox="0 0 80 50" fill="none" xmlns="http://www.w3.org/2000/svg">
<path d="M15.89 21.21L15.19 27.72H8.05V49H1.4V6.51H0.35L1.05 -3.33786e-06H17.29L16.59 6.51H8.05V21.21H15.89ZM19.3785 6.51V-3.33786e-06H38.6285V6.51H32.3285V49H25.6785V6.51H19.3785ZM40.7586 6.51L41.4586 -3.33786e-06H52.5186C54.4786 -3.33786e-06 56.0653 0.606664 57.2786 1.82C58.4919 2.98666 59.0986 4.55 59.0986 6.51V28.42C59.0986 29.4467 58.8886 30.38 58.4686 31.22C58.0486 32.0133 57.4886 32.69 56.7886 33.25L61.2686 49H54.5486L50.5586 34.93H48.4586V49H41.8086V6.51H40.7586ZM52.0986 6.51H48.4586V28.42H52.0986C52.3319 28.42 52.4486 28.3033 52.4486 28.07V6.86C52.4486 6.62666 52.3319 6.51 52.0986 6.51ZM79.8164 42.77C79.8164 44.73 79.2097 46.3167 77.9964 47.53C76.7831 48.6967 75.1964 49.28 73.2364 49.28H68.8964C66.9364 49.28 65.3497 48.6967 64.1364 47.53C62.9231 46.3167 62.3164 44.73 62.3164 42.77V6.51H61.2664L61.9664 -3.33786e-06H68.9664V42.42C68.9664 42.6533 69.0831 42.77 69.3164 42.77H72.8164C73.0497 42.77 73.1664 42.6533 73.1664 42.42V0.139999H79.8164V42.77Z" fill="#E9E8DE"/>
</svg>
