<svg width="52" height="52" viewBox="0 0 52 52" fill="none" xmlns="http://www.w3.org/2000/svg">
<path fill-rule="evenodd" clip-rule="evenodd" d="M30.7324 10.491C33.6836 11.4209 36.4716 6.64484 39.4036 7.63969C42.2133 8.59301 42.6905 12.6073 44.4099 15.1317C46.3397 17.965 49.2209 20.0972 50.1645 23.4383C51.2427 27.2566 51.3449 31.4323 50.0726 35.184C48.693 39.2519 46.7499 44.3782 42.7432 45.3214C38.3975 46.3444 35.1056 38.8532 30.7324 39.7366C24.6335 40.9686 21.6482 52.7461 15.7261 50.779C10.5048 49.0447 16.0831 38.9855 13.3842 33.9742C10.7219 29.0311 1.11066 29.1184 1.00101 23.4383C0.892487 17.8168 9.58703 17.0036 12.9726 12.6525C15.6194 9.25083 14.2835 1.5379 18.4347 1.03266C23.5666 0.408059 25.7835 8.93166 30.7324 10.491Z" stroke="#3F4045" stroke-width="0.5"/>
</svg>
