<svg width="37" height="35" viewBox="0 0 37 35" fill="none" xmlns="http://www.w3.org/2000/svg">
<path d="M29.6276 14.7441C29.6928 14.7441 29.9558 14.8588 29.9599 14.9287C29.9775 15.2273 30.2184 15.4964 30.2184 15.7964C30.2184 16.1636 30.3303 16.559 30.4851 16.8857C30.5162 16.9515 30.5451 17.0534 30.5958 17.0991C30.6644 17.1607 30.8461 17.2444 30.8461 17.3473C30.8461 17.4075 30.9139 17.4061 30.9384 17.4601C30.9703 17.5303 30.9823 17.6032 30.9959 17.6776C31.0157 17.7868 31.0986 17.8807 31.1046 17.9935C31.1165 18.2198 31.1046 18.4499 31.1046 18.6766C31.1046 18.9217 31.2523 19.1308 31.2523 19.3597C31.2523 19.8721 31.2892 20.3788 31.2892 20.89C31.2892 21.2325 31.264 21.5829 31.2913 21.9239C31.3097 22.1543 31.4872 22.3405 31.5846 22.5352M31.1784 22.2029C31.1784 22.4795 30.8956 22.7746 30.7517 22.9989C30.5889 23.2527 30.4364 23.5932 30.4034 23.8979M30.4034 23.8979C30.4033 23.8991 30.4031 23.9003 30.403 23.9015C30.4009 23.9219 30.3839 23.9435 30.3745 23.9506M30.4034 23.8979C30.3998 23.9025 30.3963 23.9071 30.3927 23.9117C30.377 23.9323 30.3701 23.9441 30.3686 23.9495M30.4034 23.8979C30.5698 23.6822 30.7588 23.4833 30.9323 23.2737C30.9506 23.2515 31.0081 23.1624 31.0802 23.0666M30.3745 23.9506C30.37 23.9541 30.3672 23.9542 30.3686 23.9495M30.3745 23.9506C30.5421 23.9847 30.6975 24.0602 30.8215 24.1887C30.8646 24.2333 30.9133 24.3733 30.9199 24.2338C30.9293 24.037 30.9857 23.834 31.0123 23.6389C31.0342 23.4782 31.0451 23.2653 31.0802 23.0666M30.3745 23.9506C30.3725 23.9502 30.3706 23.9499 30.3686 23.9495M30.3686 23.9495C30.0584 23.8883 29.707 23.9678 29.4347 24.1148C29.3542 24.1583 29.1471 24.2434 29.3363 24.123C29.4913 24.0244 29.6656 23.9427 29.8286 23.8563C29.8788 23.8298 30.1035 23.6985 30.1035 23.6266C30.1035 23.6011 30.0415 23.6077 29.9689 23.6234M31.0802 23.0666C31.1345 22.9945 31.1972 22.9186 31.2578 22.8647M31.0802 23.0666C31.1066 22.9172 31.1466 22.7757 31.2153 22.6706C31.2255 22.6551 31.2428 22.7544 31.2578 22.8647M31.2578 22.8647C31.3326 22.7982 31.4043 22.7652 31.4533 22.8142C31.6567 23.0176 31.4601 23.6065 31.4348 23.8461C31.4322 23.8708 31.3511 24.0422 31.3343 23.9876C31.2555 23.7315 31.2963 23.3912 31.2871 23.126C31.2863 23.1021 31.2732 22.9777 31.2578 22.8647ZM29.9689 23.6234C29.877 23.6433 29.768 23.6778 29.7466 23.6799C29.4903 23.7056 30.0389 23.4258 30.044 23.4666C30.0502 23.5161 30.0198 23.5696 29.9689 23.6234ZM29.9689 23.6234C29.8178 23.783 29.4856 23.945 29.3896 24.0122C29.1482 24.1812 28.8824 24.2953 28.6059 24.3864M28.6059 24.3864C28.557 24.4025 28.5078 24.4179 28.4583 24.4328C28.3483 24.4658 28.2564 24.4691 28.1686 24.4532M28.6059 24.3864C28.4589 24.3957 28.3121 24.418 28.1686 24.4532M28.6059 24.3864C28.6579 24.3831 28.71 24.3815 28.7619 24.3815C29.1611 24.3815 29.5043 24.4493 29.8943 24.5005C30.1475 24.5337 30.3767 24.6031 30.6328 24.6031H30.812M28.1686 24.4532C28.0771 24.4367 27.9902 24.3992 27.8921 24.3528C27.8401 24.3282 27.81 24.3454 27.7629 24.3076C27.7344 24.2848 27.7594 24.2501 27.8104 24.2118M28.1686 24.4532C28.0648 24.4787 27.9626 24.5109 27.8634 24.5497C27.5242 24.6824 27.0925 24.8149 26.7269 24.7856C26.3386 24.7546 26.0009 24.4988 25.6171 24.4369C25.3045 24.3865 24.3514 24.4803 24.3514 24.9477C24.3514 24.9698 24.5018 25.0076 24.5319 25.0092C24.6207 25.0139 24.6405 25.0702 24.7165 25.081C25.1642 25.145 24.4707 26.0904 24.5032 26.2483C24.5223 26.341 24.7115 26.0782 24.8121 25.9314M27.8104 24.2118C27.9338 24.1193 28.2088 24.0066 28.2408 23.9958L28.2498 23.9928C28.4485 23.9259 28.7225 23.8337 28.9363 23.8666C29.0132 23.8784 28.8823 23.9521 28.8768 23.9548C28.7262 24.0268 28.5587 24.049 28.4029 24.1066C28.2182 24.1749 28.0167 24.2028 27.8104 24.2118ZM27.8104 24.2118C27.5039 24.2252 27.1865 24.1969 26.8972 24.1969C26.8075 24.1969 26.7233 24.196 26.6414 24.1915M26.6414 24.1915C26.4846 24.1828 26.336 24.1609 26.173 24.1066C26.1432 24.0967 25.9349 24.0861 26.0253 24.0861C26.1813 24.0861 26.3784 24.0799 26.5238 24.1435C26.5504 24.1552 26.6308 24.1804 26.6414 24.1915ZM26.6414 24.1915C26.6446 24.1948 26.6414 24.1969 26.6284 24.1969H26.1443C25.593 24.1969 25.0378 24.1765 24.4868 24.1969C24.4578 24.1979 24.2305 24.279 24.1793 24.2891M24.1793 24.2891C24.1601 24.2929 24.1657 24.2867 24.216 24.2625C24.4741 24.1382 24.7476 24.0949 25.0263 24.0471C25.2203 24.0139 25.3999 23.9256 25.5986 23.9035C25.658 23.8969 25.9598 23.8919 25.8633 23.924C25.3766 24.0863 24.8337 24.0423 24.3493 24.2153C24.2943 24.235 24.2374 24.2616 24.1793 24.2891ZM24.1793 24.2891C24.0838 24.3344 23.9852 24.382 23.8867 24.4048M23.8867 24.4048C23.8494 24.4134 23.8121 24.4184 23.775 24.4184C23.6164 24.4184 23.6826 24.7513 23.6826 24.8615C23.6826 24.9924 23.6228 25.0746 23.6088 25.1938C23.5958 25.3046 23.4242 25.2004 23.4242 25.1015C23.4242 24.8847 23.4072 24.3979 23.7196 24.3815C23.7854 24.378 23.8407 24.3865 23.8867 24.4048ZM23.8867 24.4048C24.2635 24.5538 24.0278 25.3552 23.9616 25.6164C23.8359 26.1129 23.6641 26.5648 23.5739 27.0606C23.5707 27.0782 23.5673 27.092 23.5638 27.1026M23.5638 27.1026C23.5273 27.2118 23.4761 26.9695 23.4693 26.9047C23.4623 26.8381 23.4609 26.7616 23.4588 26.6822M23.5638 27.1026C23.5232 26.9649 23.4874 26.8243 23.4588 26.6822M23.5638 27.1026C23.5724 27.1318 23.5813 27.1609 23.5903 27.1899C23.6315 27.3215 23.6112 27.4663 23.6457 27.6022C23.6774 27.7268 23.7196 27.871 23.7196 28.0002C23.7196 28.2451 23.7052 28.4942 23.7196 28.7387C23.7274 28.8721 23.8622 28.6327 23.8673 28.6197C23.9945 28.2926 24.0463 27.9326 24.1339 27.594C24.2816 27.0239 24.501 26.4368 24.8121 25.9314M23.4588 26.6822C23.4549 26.5325 23.4484 26.3724 23.3969 26.2479M23.4588 26.6822C23.4299 26.5384 23.4085 26.3931 23.3969 26.2479M23.3969 26.2479C23.3893 26.2294 23.3806 26.2117 23.3708 26.1949C23.3165 26.1018 23.3872 25.6995 23.3872 26.0103C23.3872 26.0893 23.3906 26.1686 23.3969 26.2479ZM24.8121 25.9314C24.8345 25.895 24.8573 25.8591 24.8807 25.8236C25.0181 25.6146 25.1787 25.4142 25.3073 25.2021C25.3262 25.171 25.4651 24.8914 25.4468 24.9826C25.3867 25.2832 25.0428 25.5983 24.8724 25.8421C24.8662 25.8511 24.8435 25.8856 24.8121 25.9314ZM30.812 24.6031H31.0115M30.812 24.6031C30.8231 24.5569 30.8345 24.5105 30.8461 24.4636C30.8463 24.4626 30.9559 24.1288 30.9917 24.2543C31.0206 24.3552 31.0154 24.4822 31.0115 24.6031M30.812 24.6031C30.7365 24.9164 30.6744 25.2155 30.6635 25.5467C30.6508 25.9357 30.6778 26.3242 30.7066 26.7119C30.7144 26.8162 30.699 27.0776 30.7722 27.1509M31.0115 24.6031H31.0861C31.2375 24.6031 31.3119 24.57 31.3815 24.6954C31.466 24.8475 31.4 25.1711 31.4 25.3374C31.4 25.5217 31.4102 25.7095 31.3979 25.8934C31.3752 26.2347 31.2349 26.5921 31.162 26.9252C31.1269 27.0859 31.1014 27.2978 31.0389 27.4463C30.9895 27.5637 31.0617 27.3947 31.0676 27.3396C31.1102 26.9459 31.1074 26.5511 31.1047 26.1556L31.1046 26.1416C31.1014 25.6915 31.0484 25.2422 31.0123 24.7938C31.0076 24.7358 31.0094 24.6704 31.0115 24.6031ZM23.018 25.1569V25.8585M31.2892 17.218C31.2892 16.9108 31.183 16.6272 31.1784 16.3236C31.1772 16.244 31.1699 15.7462 31.2441 16.0652C31.2895 16.2603 31.2998 16.4634 31.3548 16.656C31.3577 16.6661 31.3597 16.6763 31.361 16.6866M31.361 16.6866C31.3647 16.7157 31.3631 16.7453 31.3631 16.7749C31.3631 16.8651 31.3627 16.8038 31.361 16.6866ZM31.361 16.6866C31.3586 16.5244 31.3534 16.255 31.3425 16.1308C31.2738 15.3454 31.2591 14.5749 31.2892 13.7922C31.2966 13.6006 31.239 14.1739 31.1866 14.3584C31.1541 14.4729 31.1225 14.5825 31.0886 14.6904M31.0886 14.6904C31.0408 14.8425 30.9883 14.9914 30.922 15.1461C30.861 15.2886 30.7261 15.4155 30.7025 15.5749L30.702 15.5784C30.6937 15.6343 30.6461 15.955 30.684 15.858C30.8385 15.4632 31.0157 15.1105 31.0886 14.6904ZM31.0886 14.6904C31.0929 14.6654 31.0969 14.6403 31.1005 14.6148C31.1656 14.1509 31.1415 13.6766 31.1415 13.2096C31.1415 13.1413 31.1911 12.6704 31.0676 12.8855C30.8232 13.3115 30.6333 13.7835 30.4051 14.221C30.312 14.3993 30.1854 14.593 30.1261 14.783C30.1005 14.8648 30.0437 15.1608 29.9886 15.2159C29.9167 15.2878 30.0519 15.0226 30.0789 14.9246C30.1444 14.6867 30.1778 14.4413 30.2553 14.2066C30.3088 14.0446 30.3932 13.8997 30.403 13.7266C30.4039 13.7113 30.4358 13.5857 30.403 13.6076C30.2827 13.6878 30.201 13.9119 30.1281 14.0302C30.0292 14.1908 29.915 14.3447 29.8491 14.5225C29.7802 14.7086 29.6645 14.8345 29.6645 15.0374C29.6645 15.2935 29.6555 15.5349 29.6645 15.7862C29.6656 15.8173 29.667 15.8498 29.6702 15.8825M29.6702 15.8825C29.6779 15.9612 29.6962 16.0405 29.7466 16.1021C29.8802 16.2654 29.8013 16.0907 29.7363 15.9811C29.7166 15.9478 29.6944 15.915 29.6702 15.8825ZM29.6702 15.8825C29.538 15.705 29.3477 15.5392 29.2009 15.3923C29.1569 15.3483 29.0796 15.2762 29.0347 15.2426C28.7845 15.0549 29.1463 15.5755 29.1845 15.6303C29.3827 15.9148 29.6466 16.1076 29.9209 16.3134C30.0629 16.4199 30.1709 16.4954 30.2553 16.6642M22.1687 4.84816C22.1732 4.84816 22.1776 4.84813 22.182 4.84808M22.182 4.84808C22.2587 4.84718 22.3345 4.83879 22.4104 4.83022M22.182 4.84808C22.3131 4.86543 22.4447 4.88074 22.579 4.88713C22.894 4.90213 23.1837 5.03033 23.5021 5.03278C23.8568 5.03551 24.2208 5.05358 24.575 5.03073C24.7771 5.01769 24.596 4.88508 24.495 4.88508C23.7993 4.88508 23.1022 4.90915 22.4104 4.83022M22.182 4.84808C22.0822 4.83486 21.9827 4.82047 21.8826 4.80793M22.4104 4.83022C22.4881 4.82144 22.5658 4.81248 22.6446 4.81123C22.6718 4.8108 22.9013 4.80938 22.8847 4.79277C22.8078 4.71592 22.4796 4.77431 22.3698 4.77431C22.2945 4.77431 22.2021 4.7828 22.1041 4.79152M22.4104 4.83022C22.3599 4.82445 22.3094 4.81814 22.259 4.81123C22.2073 4.80415 22.1557 4.79758 22.1041 4.79152M22.1041 4.79152C22.0317 4.79797 21.9563 4.80455 21.8826 4.80793M22.1041 4.79152C21.8743 4.76454 21.6448 4.74763 21.4138 4.74082M21.8826 4.80793C21.751 4.81396 21.6247 4.80981 21.5304 4.77654M21.8826 4.80793C21.7665 4.79338 21.6496 4.78134 21.5304 4.77654M21.5304 4.77654C21.5213 4.77333 21.5125 4.76986 21.5041 4.7661C21.4749 4.75314 21.4447 4.74536 21.4138 4.74082M21.5304 4.77654C21.4945 4.77509 21.4584 4.77431 21.422 4.77431C21.2585 4.77431 21.1119 4.75939 20.9522 4.73943C20.825 4.72353 20.6759 4.76991 20.5686 4.6984C20.451 4.62 20.8499 4.66353 20.9912 4.66353C21.3235 4.66353 21.6559 4.66664 21.9882 4.66353C22.4379 4.65933 22.8868 4.62661 23.338 4.62661C24.2408 4.62661 25.1154 4.88508 26.0171 4.88508C26.0887 4.88508 26.1328 4.91441 26.1935 4.92201C26.2657 4.93103 25.9147 5.02638 25.8571 5.03278C25.5339 5.0687 25.2307 5.1661 24.9545 5.30972C24.6219 5.48267 24.3044 5.6085 23.9411 5.68923C23.8088 5.71864 23.6881 5.63066 23.7278 5.66871C23.8711 5.80632 23.9743 6.01541 24.0589 6.21455M21.4138 4.74082C21.3413 4.73015 21.2651 4.73738 21.1902 4.73738H21.1799C21.2581 4.73738 21.3361 4.73853 21.4138 4.74082ZM24.0589 6.21455C24.0886 6.28461 24.1161 6.35343 24.1422 6.41747C24.2475 6.6761 24.3842 7.49884 24.3842 7.21956C24.3842 6.84995 24.3039 6.47762 24.2734 6.11181C24.2704 6.07554 24.1269 6.21132 24.0589 6.21455ZM24.0589 6.21455C24.0564 6.21467 24.0541 6.21462 24.0519 6.21438C23.9305 6.2016 23.8047 6.0192 23.7278 5.9436C23.664 5.88085 23.4464 5.76984 23.4262 5.67897C23.4174 5.63946 23.3693 5.58412 23.3216 5.63179C23.2796 5.67378 23.4542 5.85063 23.4816 5.88616C23.5161 5.93084 23.7203 6.24491 23.7565 6.25131C23.8133 6.26133 23.9379 6.35102 23.9965 6.3826C24.0677 6.42095 24.1368 6.43207 24.1627 6.50978M23.4611 5.91898C23.6681 5.91898 23.9923 6.07662 24.1463 6.21438C24.2011 6.26349 24.3326 6.42674 24.1709 6.29849C23.8859 6.07245 23.7285 5.99283 23.3872 5.99283M26.6736 5.62358C26.4463 5.70979 26.1493 5.83063 25.9576 5.97847C25.6891 6.18566 25.5571 6.4321 25.4181 6.73544C25.2641 7.07138 25.1604 7.42573 25.0119 7.76318C24.8974 8.02359 24.8258 8.3201 24.7001 8.57143C24.6885 8.5946 24.6247 8.78484 24.6468 8.64118C24.714 8.20428 24.8186 7.77063 24.8786 7.33034C24.918 7.04149 24.8218 6.77904 25.0119 6.56517C25.2027 6.3506 25.4077 6.15753 25.5781 5.91898C25.6469 5.8227 25.9916 5.38382 25.6479 5.63179C25.2214 5.93942 24.9339 6.40917 24.6591 6.84211C24.5663 6.98837 24.4581 7.18277 24.4581 7.35906M24.1627 7.83908V8.86478C24.1627 8.94744 24.1135 9.25149 24.1647 9.32839C24.2148 9.4035 24.2153 9.15508 24.2386 9.06787C24.2995 8.83937 24.3397 8.6083 24.4047 8.38065C24.4231 8.31653 24.4282 8.12817 24.4581 8.18782C24.5121 8.29596 24.4581 8.55995 24.4581 8.68015C24.4581 9.17547 24.3842 9.66939 24.3842 10.1654C24.3842 10.4387 24.6889 10.6825 24.7535 10.9408M23.9411 9.72226C23.9108 9.96482 23.7881 10.2225 23.7483 10.4731C23.7231 10.6315 23.7196 10.7798 23.7196 10.9408C23.7196 11.0769 23.7441 11.47 23.8673 11.5316M23.3134 11.7531C23.2565 12.1084 23.1774 12.5828 23.416 12.8691C23.4466 12.9058 23.4913 12.9445 23.542 12.9744M23.542 12.9744C23.6488 13.0373 23.7824 13.0608 23.8673 12.9429C24.0055 12.7509 23.9846 12.5206 23.978 12.2865C23.9708 12.0294 23.8938 11.6416 23.7852 11.4003C23.7082 11.2291 23.6932 11.6378 23.6908 11.6629C23.6694 11.8931 23.7179 12.1389 23.6642 12.3645C23.6156 12.5687 23.5854 12.768 23.542 12.9744ZM23.542 12.9744C23.5346 13.0095 23.5268 13.0448 23.5185 13.0804C23.4974 13.1708 23.4747 13.3181 23.4923 13.4463M23.4923 13.4463C23.505 13.5387 23.5386 13.6211 23.6088 13.665C23.6371 13.6827 23.7407 13.7829 23.7483 13.7676C23.7888 13.6866 23.6971 13.5974 23.6457 13.5461C23.599 13.4994 23.5454 13.4722 23.4923 13.4463ZM23.4923 13.4463C23.4272 13.4145 23.363 13.3845 23.3134 13.3225C23.296 13.3007 23.2511 13.2957 23.2252 13.306C23.2092 13.3124 23.3741 13.4754 23.3893 13.4907C23.4452 13.5466 23.6992 13.7201 23.7175 13.8025C23.7311 13.8637 24.161 13.9076 24.2509 13.9502C24.4727 14.0553 24.658 14.1779 24.9176 14.2251C25.1468 14.2667 24.8497 14.264 24.7555 14.264C24.5546 14.264 24.3703 14.1968 24.1709 14.1902C24.1164 14.1884 24.0339 14.1792 23.9457 14.1668M23.9457 14.1668C23.7007 14.1325 23.4125 14.0736 23.5637 14.0794C23.695 14.0845 23.8214 14.1192 23.9457 14.1668ZM23.9457 14.1668C24.2165 14.2706 24.4768 14.4353 24.7535 14.4856C25.274 14.5802 25.8537 14.5303 26.3782 14.5594C26.6901 14.5768 26.9829 14.781 27.3013 14.781C27.4619 14.781 27.6756 14.7449 27.8306 14.7892C28.0084 14.84 28.3036 14.811 28.4542 14.9205C28.4768 14.9369 28.5331 14.933 28.5567 14.9205C28.6449 14.8738 28.5085 14.7486 28.4747 14.7153C28.107 14.3538 27.4294 14.1947 26.9505 14.0589C26.3751 13.8957 25.8082 13.6892 25.2355 13.5255C24.932 13.4388 24.6457 13.2805 24.3863 13.105C24.2522 13.0143 23.9595 12.857 24.2611 12.8609C24.8153 12.8681 25.342 13.1449 25.8869 13.2583M25.8869 13.2583C26.0005 13.2819 26.1149 13.2985 26.2305 13.304C26.582 13.3207 26.0365 13.004 25.9433 12.9347C25.5585 12.6489 25.1529 12.3466 24.8214 11.9876M25.8869 13.2583C25.6339 13.0968 25.426 12.9001 25.2335 12.6557C25.0667 12.4441 24.9345 12.2243 24.8214 11.9876M25.8869 13.2583C25.9328 13.2877 25.9803 13.3159 26.0294 13.343C26.3276 13.5074 26.6684 13.5095 27.0038 13.5235C27.5777 13.5474 28.1564 13.528 28.725 13.5625C28.9232 13.5745 29.055 13.7683 29.1763 13.903C29.1976 13.9266 29.2101 13.9491 29.2155 13.9703M24.8214 11.9876C24.7107 11.8677 24.6082 11.7415 24.5176 11.6075C24.3909 11.4203 24.3473 11.2721 24.3473 11.0536C24.3473 11.0227 24.4064 10.8142 24.4601 10.9305C24.5818 11.1941 24.607 11.485 24.7165 11.7511C24.7498 11.8319 24.7846 11.9106 24.8214 11.9876ZM29.2155 13.9703C29.2397 14.0663 29.1163 14.1379 28.9816 14.1869M29.2155 13.9703C29.141 14.0441 29.0629 14.1191 28.9816 14.1869M29.2155 13.9703C29.2475 13.9386 29.2789 13.907 29.3096 13.8763C29.4538 13.7321 29.5038 13.5147 29.5906 13.3409M28.9816 14.1869C28.8555 14.2327 28.7196 14.2586 28.686 14.2661C28.4981 14.3078 28.7384 14.3617 28.8357 14.2969C28.8854 14.2638 28.9341 14.2265 28.9816 14.1869ZM5.66323 10.83C5.66323 11.3257 5.59605 11.895 5.70015 12.3809C5.7687 12.7008 5.85965 11.7446 5.97709 11.4393C5.9966 11.3885 6.01875 11.318 6.04109 11.2383M6.04109 11.2383C6.14014 10.885 6.24282 10.3519 6.13505 10.5674C6.03992 10.7577 6.05486 11.0309 6.04109 11.2383ZM6.04109 11.2383C6.04096 11.2404 6.04082 11.2424 6.04068 11.2444C6.01862 11.5615 6.03248 11.8826 6.03248 12.2003C6.03248 12.518 5.99555 12.8302 5.99555 13.1481V14.301M6.36481 12.6763C6.38161 12.8611 6.50208 13.057 6.6202 13.2369M6.6202 13.2369C6.67967 13.3274 6.73855 13.4138 6.78329 13.4927C6.92217 13.7375 7.0695 14.0165 7.16895 14.2804C7.21708 14.4082 7.25492 14.6284 7.33306 14.7359C7.3949 14.8209 7.28148 14.3363 7.26742 14.2948C7.16587 13.995 7.00743 13.3119 6.6202 13.2369ZM6.6202 13.2369C6.59741 13.2324 6.57384 13.2301 6.54943 13.2301C6.23137 13.2301 6.27192 14.0681 6.23557 14.262C6.2104 14.3962 6.18564 14.5327 6.15361 14.6671M6.15361 14.6671C6.12671 14.7799 6.09469 14.8912 6.053 14.9984C6.04149 15.028 6.0201 15.0975 6.00376 15.0231C5.94971 14.7768 5.94513 14.4987 5.92991 14.2476C5.92255 14.1262 5.9153 14.0046 5.90859 13.8829M6.15361 14.6671C6.0687 14.4302 5.9841 14.1933 5.92376 13.9481C5.9184 13.9264 5.91335 13.9046 5.90859 13.8829M6.15361 14.6671C6.19991 14.7962 6.2463 14.9254 6.28891 15.0559C6.37597 15.3225 6.38202 15.5843 6.40994 15.86C6.42364 15.9953 6.41539 16.1206 6.4084 16.2483M5.90859 13.8829C5.90021 13.7309 5.89267 13.5788 5.88683 13.4271C5.88451 13.3667 5.91792 13.1792 5.87658 13.1276C5.85801 13.1044 5.84786 13.3023 5.84786 13.306C5.84786 13.5019 5.86689 13.6924 5.90859 13.8829ZM6.4084 16.2483C6.40491 16.3119 6.40173 16.3762 6.40173 16.4426C6.40173 16.4953 6.4119 16.6917 6.39968 16.5267C6.39511 16.465 6.38946 16.4037 6.38337 16.3427M6.4084 16.2483C6.40027 16.2798 6.39192 16.3113 6.38337 16.3427M6.4084 16.2483C6.5053 15.8725 6.57225 15.4867 6.61508 15.1051C6.63722 14.9079 6.70184 14.6668 6.82842 14.5041C6.89517 14.4182 6.86488 14.564 6.85714 14.5923C6.80468 14.7839 6.77448 14.9615 6.74842 15.1584C6.70905 15.4559 6.62328 15.7352 6.62328 16.0364M6.38337 16.3427C6.35919 16.1006 6.32788 15.8625 6.32788 15.6159C6.32788 15.2888 6.20953 15.5128 6.16377 15.7041C6.08439 16.0361 6.06612 16.3635 6.01402 16.697C6.0058 16.7496 5.99705 16.8009 5.9845 16.8517M6.38337 16.3427C6.33659 16.5142 6.28341 16.6834 6.22326 16.8488C6.17773 16.974 6.14276 17.1433 6.05094 16.978C6.0275 16.9358 6.00535 16.8937 5.9845 16.8517M5.9845 16.8517C5.97934 16.8727 5.97352 16.8935 5.96684 16.9144C5.94574 16.9804 5.92901 16.7717 5.92295 16.7188M5.9845 16.8517C5.96252 16.8074 5.942 16.7631 5.92295 16.7188M5.92295 16.7188C5.92247 16.7145 5.92205 16.7113 5.92171 16.7093C5.86663 16.3857 5.85975 16.0714 5.79042 15.7492C5.77928 15.6975 5.76824 15.6233 5.76399 15.5464M5.92295 16.7188C5.76291 16.3465 5.70681 15.9722 5.76399 15.5464M5.76399 15.5464C5.75857 15.4486 5.76414 15.3466 5.79452 15.2815C5.80182 15.2659 5.80953 15.2491 5.81739 15.2314M5.76399 15.5464C5.76701 15.5239 5.77035 15.5013 5.77401 15.4785C5.78342 15.4198 5.79941 15.3277 5.81739 15.2314M5.81739 15.2314C5.86478 15.1248 5.9176 14.9863 5.9176 14.8795C5.9176 14.7336 5.86152 14.9951 5.81739 15.2314ZM7.36178 14.781C7.50629 14.781 7.60642 14.9191 7.70231 15.0107C7.74335 15.05 7.78597 15.0858 7.82923 15.1204M7.82923 15.1204C7.95163 15.2181 8.07918 15.3052 8.19054 15.4272C8.26168 15.5051 8.36253 15.5972 8.44892 15.6968M7.82923 15.1204C7.77024 15.0252 7.71059 14.9324 7.65718 14.8425C7.6253 14.7889 7.41713 14.5289 7.59974 14.6333C7.75076 14.7196 7.89194 14.8288 8.00591 14.9656C8.19466 15.1921 8.30579 15.4436 8.44892 15.6968M7.82923 15.1204C7.94501 15.3071 8.05825 15.5024 8.11669 15.7C8.21041 16.0169 8.39568 16.3637 8.39568 16.7011C8.39568 16.8548 8.51978 16.7249 8.54543 16.6437C8.55822 16.6032 8.65588 16.3318 8.69108 16.3318C8.81502 16.3318 8.80185 16.7076 8.80185 16.7831C8.80185 17.2049 8.54659 17.5882 8.26849 17.8663C8.17998 17.9548 8.19727 17.9811 8.30132 17.8827C8.45196 17.7402 8.58476 17.5869 8.73006 17.4416C8.81282 17.3589 8.84334 17.3194 8.88391 17.2098C8.89759 17.1729 8.96995 16.9841 8.97007 16.9842C9.24905 17.2632 9.02505 17.7579 8.80185 17.9935C8.61027 18.1957 8.18511 18.3408 8.06335 18.5843M8.44892 15.6968C8.52712 15.787 8.59347 15.8834 8.61518 15.9811C8.63318 16.062 8.4962 15.779 8.46953 15.7328C8.46258 15.7208 8.45571 15.7088 8.44892 15.6968ZM7.1033 15.5195C7.17107 16.1971 7.21408 16.8585 7.21408 17.5442C7.21408 17.6052 7.22953 17.9725 7.23664 17.9606C7.42872 17.6405 7.39684 17.0921 7.44999 16.7319C7.47839 16.5394 7.43305 15.8223 7.75154 16.338C7.99685 16.7352 8.00415 17.2479 7.86026 17.6796C7.81243 17.8231 7.80416 17.9409 7.6941 18.0509C7.61312 18.1319 7.65718 17.7387 7.65718 17.6776C7.65718 17.6671 7.67574 17.4108 7.62025 17.4478C7.48492 17.538 7.38353 17.7708 7.30844 17.9053C7.15177 18.1858 7.05767 18.4798 6.96381 18.7853C6.8901 19.0252 6.81285 19.2871 6.68892 19.5074C6.64845 19.5793 6.69833 19.4073 6.70533 19.3884C6.77346 19.2045 6.91868 19.0367 6.91868 18.8427M7.58333 19.1381C7.44046 19.281 7.28968 19.4066 7.12792 19.5279C6.99451 19.628 6.87695 19.7769 6.73406 19.8602C6.549 19.9682 6.6709 19.8522 6.76278 19.7454C7.01063 19.4572 7.30333 19.2694 7.58333 19.0294C7.74313 18.8924 7.97931 18.91 7.69411 18.7156C7.48129 18.5705 7.18008 18.4424 7.06638 18.215M6.54943 17.218C6.54943 17.7663 6.52904 18.3718 6.41814 18.9104C6.39777 19.0094 6.32788 19.3007 6.32788 19.1997C6.32788 18.7177 6.33737 18.2268 6.24582 17.7514C6.23609 17.7008 6.05679 16.7287 5.91965 16.9801C5.80167 17.1964 5.58938 17.4065 5.58938 17.6632C5.58938 18.4809 5.88478 19.2762 5.88478 20.0982M6.18018 20.4674C6.15952 20.5 6.14046 20.533 6.12267 20.5664M6.12267 20.5664C6.09303 20.6221 6.06688 20.6787 6.04254 20.7358M6.12267 20.5664C6.14668 20.5788 6.16434 20.5978 6.17338 20.6248M6.12267 20.5664C5.93271 20.4684 5.3451 20.7843 5.48271 20.8531C5.67547 20.9495 5.87013 20.8669 6.04254 20.7358M6.04254 20.7358C5.96712 20.9129 5.90919 21.0949 5.81914 21.2675C5.77127 21.3592 5.73708 21.4993 5.73708 21.6039C5.73708 21.7643 5.89082 21.3225 5.96684 21.1813C6.03627 21.0524 6.18018 20.8247 6.18018 20.6705C6.18018 20.6533 6.17782 20.6381 6.17338 20.6248M6.04254 20.7358C6.08783 20.7014 6.13159 20.6636 6.17338 20.6248M6.17338 20.6248C6.27485 20.5306 6.36468 20.4306 6.43661 20.3587C6.45328 20.342 6.63455 20.167 6.59867 20.2746C6.55046 20.4192 6.47755 20.6414 6.37301 20.7546C6.30965 20.8233 6.34103 20.8876 6.26224 20.9475C6.18899 21.0031 6.18993 21.1634 6.12274 21.2018C5.98882 21.2784 6.02896 21.5252 5.92991 21.6573C5.85166 21.7616 5.92138 21.9449 5.83965 22.047C5.75319 22.1551 5.73708 22.3618 5.73708 22.4963C5.73708 22.7617 5.70016 23.0467 5.70016 23.2922C5.70016 24.3833 5.62631 25.4692 5.62631 26.5601M5.4786 26.9663C5.61136 27.1156 5.60413 27.3523 5.66323 27.5365C5.7116 27.6874 5.70015 27.844 5.70015 28.0002C5.70015 28.3275 5.56483 28.6218 5.55245 28.9438C5.54749 29.0728 5.33419 29.9603 5.55655 29.9921C5.62614 30.002 5.68561 29.9997 5.73643 29.9874M5.73643 29.9874C5.95199 29.9351 6.01199 29.7026 6.02786 29.4583M5.73643 29.9874C5.73736 29.9835 5.73826 29.9795 5.73913 29.9756C5.76116 29.8765 5.86394 29.8386 5.88273 29.7541C5.90683 29.6456 5.99574 29.5702 6.02786 29.4583M5.73643 29.9874C5.71863 30.0629 5.69191 30.1409 5.71861 30.2157C5.80362 30.4537 6.07016 30.4883 6.30941 30.4352C6.40122 30.4148 6.55417 30.3705 6.62328 30.31C6.68744 30.2539 6.84495 30.2743 6.92688 30.2239C7.08342 30.1275 7.59743 30.2464 7.48486 29.8997C7.44314 29.7713 7.40082 29.6442 7.34774 29.5216M6.02786 29.4583C6.03606 29.3321 6.03248 29.2028 6.03248 29.0935C6.03248 28.8425 5.9217 28.6103 5.9217 28.3694C5.9217 28.0588 6.47443 28.633 6.58635 28.7387C6.60225 28.7537 6.6139 28.7658 6.6218 28.7757M6.02786 29.4583C6.02957 29.4524 6.03111 29.4464 6.03248 29.4402C6.05352 29.3455 6.11531 29.009 6.20069 28.9602C6.20132 28.9598 6.20196 28.9595 6.20258 28.9591M6.6218 28.7757C6.66633 28.8311 6.5916 28.8125 6.48378 28.8125C6.33647 28.8125 6.31806 28.8924 6.20258 28.9591M6.6218 28.7757C6.62836 28.7756 6.635 28.7756 6.64174 28.7756C6.77788 28.7756 6.86803 28.8159 6.94329 28.9315C7.02468 29.0565 7.14179 29.152 7.22228 29.2802C7.2711 29.358 7.31188 29.4388 7.34774 29.5216M6.6218 28.7757C6.38368 28.7776 6.2642 28.8167 6.20258 28.9591M6.20258 28.9591C6.17106 29.032 6.15468 29.132 6.1453 29.2679C6.11616 29.6906 6.2927 29.6987 6.66841 29.6987C6.76422 29.6987 6.88497 29.7058 6.9474 29.6166C6.99786 29.5446 6.73639 29.551 6.69713 29.551C6.43453 29.551 6.91237 29.5151 7.34774 29.5216M7.34774 29.5216C7.53366 29.5244 7.71183 29.5349 7.82129 29.5592C7.90934 29.5788 8.46302 29.6644 8.37927 29.7808C8.33026 29.8488 8.04197 29.9161 7.96078 29.9203C7.82422 29.9273 7.69941 29.9941 7.56487 29.9941H8.49004C8.59291 29.9941 8.71653 29.9777 8.81827 29.9962C8.87764 30.0069 8.87751 30.0602 8.85519 30.1049C8.85306 30.1091 8.85069 30.1133 8.8481 30.1174M8.8481 30.1174C8.77806 30.2271 8.54691 30.2607 8.4326 30.2813C8.24234 30.3156 8.03604 30.3394 7.8418 30.3264C7.82824 30.3255 7.97878 30.2866 8.00591 30.2813C8.16686 30.2497 8.3142 30.1707 8.47773 30.15C8.60108 30.1344 8.72452 30.1241 8.8481 30.1174ZM8.8481 30.1174C9.12661 30.1022 9.40579 30.1049 9.686 30.1049H11.0174C11.5267 30.1049 12.0217 30.2157 12.5231 30.2157C12.8893 30.2157 13.131 30.0311 13.4729 29.9551C13.7954 29.8834 14.1258 29.8637 14.4514 29.8095M13.5652 30.1787C14.0677 30.2244 14.5746 30.4303 15.075 30.4372C15.2937 30.4402 15.66 30.5516 15.8709 30.4557C15.9791 30.4065 16.1144 30.409 16.232 30.4003C16.4658 30.383 16.7065 30.1977 16.9069 30.0864C16.9863 30.0423 16.8236 30.0273 16.7695 30.0146C16.5394 29.9609 16.2721 29.9941 16.0371 29.9941H15.2473C15.1698 29.9941 15.0451 30.0177 14.9683 29.9941C14.9188 29.9789 15.4882 29.5772 15.5181 29.5592C15.7118 29.4424 15.9073 29.3034 16.1315 29.2536C16.1836 29.242 15.7805 29.2761 15.7027 29.2966C15.3083 29.401 14.8981 29.5117 14.5129 29.6454C14.4885 29.6538 14.3138 29.689 14.3857 29.6454C14.5474 29.5472 14.7596 29.5061 14.9396 29.4484C15.204 29.3637 15.3221 29.3857 15.5263 29.1961C15.6886 29.0454 15.7318 28.7537 15.8094 28.554C15.8246 28.515 15.2401 28.4924 15.1345 28.5745C15.0347 28.6521 14.9244 28.7273 14.8206 28.794C14.7097 28.8654 14.6751 29.0471 14.5622 29.1161C14.3611 29.239 14.1983 29.6987 13.9344 29.6987M16.0392 28.0002C16.1477 27.9881 16.3123 27.9238 16.4064 27.8709C16.501 27.8177 16.5987 27.8452 16.6853 27.7971C16.7787 27.7452 16.8271 27.8155 16.9069 27.8155C17.2297 27.8155 17.5605 27.9625 17.8813 27.9981C18.1425 28.0271 18.2327 28.1528 18.4024 28.3325C18.4848 28.4197 18.5096 28.6234 18.5131 28.7387C18.5161 28.8359 18.5947 28.9095 18.6239 28.9971M17.5162 29.1448C17.4488 29.1448 17.384 29.1388 17.3212 29.1282M17.3212 29.1282C17.2433 29.1149 17.1685 29.0945 17.0955 29.0693M17.3212 29.1282C17.3171 29.1255 17.3131 29.1229 17.309 29.1202C17.2963 29.1119 17.2335 29.0554 17.1896 29M17.3212 29.1282C17.4593 29.2179 17.5857 29.2925 17.7541 29.2925C17.8443 29.2925 17.935 29.2778 18.0242 29.2681M17.0955 29.0693C16.8496 28.9844 16.6239 28.8456 16.3715 28.7469C16.312 28.7236 16.1465 28.6942 16.0987 28.6463C16.0859 28.6336 16.4606 28.6841 16.4946 28.6935C16.6806 28.745 16.9207 28.8743 17.1457 28.9142M17.0955 29.0693C17.0976 29.0671 17.0996 29.0649 17.1018 29.0628C17.1214 29.0432 17.1527 29.0216 17.1896 29M17.0955 29.0693C16.8814 29.2976 17.1634 29.7726 17.4505 29.7726C17.593 29.7726 17.994 29.4956 18.0242 29.2681M17.1457 28.9142C17.2144 28.9265 17.2817 28.9303 17.3456 28.9211M17.1457 28.9142C17.1462 28.8984 17.1572 28.8879 17.1838 28.8864C17.2594 28.8819 17.34 28.882 17.4209 28.8891M17.1457 28.9142C17.145 28.936 17.1641 28.9678 17.1896 29M17.3456 28.9211C17.3818 28.9159 17.4169 28.9065 17.4505 28.892M17.3456 28.9211C17.3726 28.909 17.3984 28.8981 17.4209 28.8891M17.3456 28.9211C17.2937 28.9444 17.2371 28.9722 17.1896 29M17.4505 28.892C17.4602 28.8878 17.4698 28.8832 17.4792 28.8781C17.5305 28.8508 17.4914 28.8609 17.4209 28.8891M17.4505 28.892C17.6493 28.9136 17.8477 28.979 17.9798 29.1243C18.0187 29.1671 18.031 29.2163 18.0242 29.2681M17.4505 28.892C17.4407 28.8909 17.4308 28.8899 17.4209 28.8891M18.0242 29.2681C18.068 29.2633 18.1114 29.2597 18.1541 29.2597C18.1707 29.2597 17.9491 29.5227 17.9223 29.551C17.8852 29.5903 17.6455 29.9593 17.709 30.0228C17.7136 30.0274 17.7259 30.0302 17.7395 30.0317M17.7395 30.0317C17.7761 30.0357 17.8224 30.031 17.7562 30.031C17.7511 30.031 17.7455 30.0313 17.7395 30.0317ZM17.7395 30.0317C17.6839 30.0355 17.5948 30.0564 17.5531 30.0762C17.2723 30.2092 17.9625 30.0913 18.0413 30.0762C18.2336 30.0393 18.4306 30.0048 18.6239 29.9941C18.7239 29.9886 18.8506 29.9696 18.9562 29.9572C19.0916 29.9413 18.936 29.5576 18.9214 29.4915C18.8828 29.3181 19.726 29.4738 19.7706 29.7192C19.8108 29.9399 19.8457 30.0288 19.6394 30.1623C19.4508 30.2843 19.1258 30.3634 18.9009 30.3634H19.1737C19.3791 30.3634 19.5799 30.4003 19.7871 30.4003C20.0108 30.4003 20.1949 30.4372 20.4148 30.4372C20.6797 30.4372 21.0254 30.4902 21.2825 30.4187C21.507 30.3564 21.7387 30.3224 21.9656 30.2875C22.0856 30.269 22.218 30.1418 22.3349 30.1418C22.8523 30.1418 23.3289 29.9189 23.8488 29.8854C24.4461 29.8468 25.0402 29.8464 25.6397 29.8464M19.6947 29.5141C19.3385 29.1578 19.0173 28.8105 18.5296 28.6628C18.0475 28.5167 17.4815 28.1959 16.9541 28.3038C16.8601 28.323 16.7451 28.3456 16.6546 28.3715C16.6035 28.386 16.7099 28.4656 16.753 28.4966C16.9217 28.6178 17.1221 28.6742 17.309 28.7592C17.6079 28.895 17.9702 29.071 18.1972 29.311C18.3778 29.5019 18.5247 29.7113 18.6814 29.9203C18.7858 30.0595 18.9686 30.2261 19.1039 30.2977C19.228 30.3634 18.785 30.5111 18.6978 30.5111M23.978 29.2556C23.8568 29.2691 23.7418 29.3048 23.6243 29.3321M23.6243 29.3321C23.5414 29.3513 23.4572 29.3664 23.3688 29.3664C23.2818 29.3664 23.4472 29.1707 23.4796 29.1448C23.625 29.0284 23.5888 29.1981 23.6129 29.2946C23.616 29.3072 23.6199 29.3197 23.6243 29.3321ZM23.6243 29.3321C23.7191 29.5957 24.0996 29.8154 24.3247 29.9367C24.3795 29.9662 24.4351 29.9537 24.495 29.9572C24.5428 29.96 24.327 30.057 24.2668 30.0827M24.2668 30.0827C24.26 30.0856 24.2551 30.0876 24.2529 30.0885C24.2198 30.1009 24.1823 30.1144 24.142 30.128M24.2668 30.0827C24.129 30.0975 23.9914 30.1121 23.8551 30.131M24.2668 30.0827C24.5403 30.0533 24.814 30.0231 25.0776 29.9572C25.2406 29.9164 25.4409 29.7726 25.6027 29.7726M24.142 30.128C24.1284 30.1326 24.1145 30.1372 24.1004 30.1418M24.142 30.128C24.0895 30.1299 24.0374 30.1332 23.9858 30.1382M24.142 30.128C24.2245 30.1249 24.3077 30.1251 24.391 30.1268M24.1004 30.1418C23.9404 30.1938 23.7475 30.2449 23.6088 30.2526C23.3162 30.2688 23.5684 30.2189 23.736 30.1787C23.8174 30.1592 23.901 30.1463 23.9858 30.1382M24.1004 30.1418C24.1979 30.1414 24.2947 30.1345 24.391 30.1268M24.1004 30.1418C24.0972 30.1418 24.094 30.1418 24.0909 30.1418C24.0574 30.1418 24.022 30.1402 23.9858 30.1382M23.9858 30.1382C23.943 30.1358 23.899 30.1327 23.8551 30.131M24.391 30.1268C24.5939 30.1309 24.7972 30.1441 24.9914 30.1418C25.1323 30.1401 25.277 30.1074 25.418 30.086M24.391 30.1268C24.5193 30.1166 24.6467 30.1049 24.774 30.1049C24.9172 30.1049 25.2053 30.0954 25.418 30.086M25.418 30.086C25.4869 30.0756 25.5549 30.068 25.6212 30.068C25.7607 30.068 25.6251 30.0769 25.418 30.086ZM23.8551 30.131C23.7772 30.1278 23.6999 30.1286 23.6314 30.1439C23.5591 30.1599 23.3887 30.1633 23.3298 30.2157C23.2967 30.245 23.259 30.249 23.2313 30.2813C23.1307 30.3987 23.5262 30.1846 23.6785 30.1582C23.737 30.1481 23.7959 30.1391 23.8551 30.131ZM26.2305 25.5262C25.9596 25.8874 25.6667 26.285 25.4243 26.6688C25.3024 26.8618 25.1694 27.052 25.094 27.2699C25.0606 27.3664 25.0489 27.4316 25.0489 27.5386C25.0489 27.7192 24.9958 27.8682 24.9668 28.0453C24.9367 28.2287 24.899 28.45 24.8437 28.6238C24.7853 28.8073 24.7865 28.9216 24.6796 29.0792C24.5232 29.3097 24.4396 29.2473 24.536 28.9581C24.7325 28.3688 24.9357 27.7866 25.1063 27.1878C25.3031 26.497 25.5323 25.8511 25.8079 25.1897C25.8682 25.045 25.931 24.8348 26.0828 24.759C26.2897 24.6555 26.4314 24.9746 26.4725 25.1056C26.616 25.5621 26.6411 26.0322 26.5628 26.5067C26.5364 26.6665 26.4655 26.8178 26.4325 26.9744M26.4325 26.9744C26.4284 26.9939 26.4249 27.0135 26.4221 27.0332M26.4325 26.9744C26.1586 27.2481 25.8918 27.5289 25.6233 27.795C25.5315 27.8859 25.3566 28.1048 25.2509 28.2005M26.4325 26.9744C26.4526 26.9544 26.4727 26.9344 26.4928 26.9144M26.4221 27.0332C26.4176 27.0646 26.4151 27.0963 26.4151 27.1283C26.4151 27.1498 26.4368 27.0912 26.4479 27.0729C26.5238 26.9485 26.6132 26.8326 26.7002 26.716C26.7033 26.7118 26.7064 26.7077 26.7095 26.7035M26.4221 27.0332C26.4456 26.9935 26.4691 26.954 26.4928 26.9144M26.4221 27.0332C26.3512 27.1527 26.2811 27.2725 26.2112 27.3926M26.7095 26.7035C26.9972 26.3167 27.2428 25.9084 27.5064 25.5057C27.5779 25.3964 27.6829 25.2768 27.7362 25.1569C27.744 25.1394 27.4687 25.4289 27.4408 25.4667C27.0996 25.9298 26.7899 26.4178 26.4928 26.9144M26.7095 26.7035C26.6367 26.773 26.5645 26.8434 26.4928 26.9144M26.7095 26.7035C26.9406 26.4833 27.1786 26.2728 27.4285 26.0842C27.4625 26.0585 27.4968 26.0334 27.5313 26.0089M26.2112 27.3926C26.2048 27.4038 26.1983 27.4149 26.1918 27.4261M26.2112 27.3926C26.202 27.4037 26.1946 27.4157 26.1881 27.4289M26.2112 27.3926C26.2307 27.3694 26.2585 27.3508 26.3043 27.3355M26.1918 27.4261C26.188 27.4327 26.1842 27.4392 26.1803 27.4458M26.1918 27.4261C26.7237 27.0189 27.489 26.4873 27.1659 26.7673C26.8614 27.0312 26.5899 27.3903 26.3526 27.7385M26.1918 27.4261C26.1906 27.427 26.1893 27.428 26.1881 27.4289M26.1803 27.4458C26.0409 27.6861 25.9029 27.927 25.7641 28.1668M26.1803 27.4458C26.1668 27.4776 26.1552 27.5155 26.1341 27.5612C26.0516 27.7387 25.939 27.9365 25.8243 28.0945C25.8068 28.1187 25.7859 28.1426 25.7641 28.1668M26.1803 27.4458C26.1828 27.44 26.1854 27.4344 26.1881 27.4289M25.7641 28.1668C25.726 28.2325 25.688 28.2981 25.6498 28.3635M25.7641 28.1668C25.7016 28.2359 25.6304 28.3069 25.6027 28.3899C25.5888 28.4316 25.6127 28.4088 25.6498 28.3635M25.6498 28.3635C25.5556 28.5251 25.4608 28.6858 25.3648 28.8453C25.2167 29.0913 25.0638 29.334 24.9299 29.5879C24.915 29.6162 24.8004 29.7672 24.8335 29.7479C25.0132 29.6431 25.1417 29.4118 25.2725 29.2577C25.6082 28.8619 25.8809 28.455 26.1648 28.0207C26.2248 27.9289 26.2874 27.8341 26.3526 27.7385M25.6498 28.3635C25.698 28.3047 25.7687 28.208 25.8079 28.1663C25.9387 28.0271 26.0826 27.9101 26.2407 27.8032C26.289 27.7706 26.3261 27.7487 26.3526 27.7385M26.3526 27.7385C26.4181 27.7131 26.4187 27.7588 26.3618 27.8894C26.2161 28.2235 26.1529 28.5939 26.0438 28.9417C25.9675 29.1848 25.6072 29.8419 25.7874 29.6618C25.9051 29.544 25.9828 29.3607 26.0643 29.2187C26.0863 29.1804 26.1084 29.1423 26.1306 29.1042M26.1881 27.4289C26.0521 27.5331 25.9316 27.6289 25.8489 27.7006C25.6933 27.8356 25.4566 28.1115 25.2509 28.2005M25.2509 28.2005C25.2395 28.2054 25.2282 28.2098 25.2171 28.2135C25.1732 28.2281 25.1895 28.1495 25.2236 28.0529M25.2509 28.2005C25.1904 28.2552 25.1526 28.2697 25.1658 28.1971C25.1742 28.1509 25.1954 28.1022 25.2236 28.0529M25.2236 28.0529C25.27 27.9213 25.3494 27.7564 25.3545 27.7478C25.6838 27.2019 26.0689 26.6889 26.4151 26.1539C26.7362 25.6576 25.812 27.171 25.4981 27.6719C25.4324 27.7768 25.3013 27.9172 25.2236 28.0529ZM27.5313 26.0089C27.8408 25.7892 28.1681 25.6134 28.4911 25.4154C28.5419 25.3843 28.6552 25.359 28.6142 25.4605C28.5086 25.7217 28.3037 25.98 28.1394 26.2236M27.5313 26.0089C27.4458 26.1594 27.4064 26.2936 27.5311 26.3016C27.7441 26.3153 27.9454 26.2832 28.1394 26.2236M27.5313 26.0089C27.6386 25.8202 27.8185 25.6056 27.8388 25.5816C28.1039 25.2671 28.5211 25.1004 28.9055 24.9723C29.1204 24.9006 29.6794 24.8635 29.6645 25.2062C29.6588 25.3368 29.6118 25.5151 29.5382 25.6847M28.1394 26.2236C28.1147 26.2602 28.0909 26.2965 28.0685 26.3324C27.8575 26.6706 27.6661 27.0161 27.4695 27.3622C27.46 27.3789 27.2491 27.6578 27.371 27.5529C27.5692 27.3825 27.7172 27.1455 27.9003 26.958C28.1419 26.7108 28.3675 26.4491 28.6224 26.2154C28.7544 26.0945 28.9957 25.9312 29.0819 25.7846C29.085 25.7793 29.0889 25.7745 29.0933 25.7701M28.1394 26.2236C28.3671 26.1536 28.5847 26.0459 28.7988 25.9303C28.8644 25.8949 28.9963 25.8231 29.0933 25.7701M29.0933 25.7701C29.1169 25.7462 29.1563 25.734 29.1845 25.719C29.2481 25.6851 29.1871 25.7188 29.0933 25.7701ZM29.5382 25.6847C29.4543 25.8783 29.3358 26.0605 29.205 26.1477C29.1896 26.158 29.0614 26.2552 29.0593 26.2544C28.9982 26.23 29.3423 25.865 29.3609 25.8462C29.4152 25.7912 29.4758 25.7379 29.5382 25.6847ZM29.5382 25.6847C29.6745 25.5685 29.819 25.453 29.923 25.3231C30.1 25.1018 29.5904 25.7828 29.406 25.998C29.3348 26.081 28.9779 26.4942 29.2788 26.1847C29.5751 25.88 29.849 25.5456 30.2102 25.3128C30.5505 25.0935 30.1493 25.6366 30.083 25.7354C29.7588 26.2181 29.3823 26.7208 28.9424 27.1057C28.8061 27.225 28.6542 27.4316 28.4993 27.5201C28.2168 27.6816 28.6135 27.186 28.6634 27.1345C29.0643 26.7207 29.4629 26.2542 29.9189 25.8995C29.9424 25.8812 30.0015 25.8224 29.9722 25.8277C29.9213 25.837 29.869 25.8893 29.8327 25.92C29.6212 26.099 29.4078 26.2745 29.1927 26.4493C28.4694 27.0372 27.8038 27.7058 27.1791 28.4047M27.1791 28.4047C26.9564 28.6538 26.7389 28.9068 26.5259 29.1612C26.453 29.2482 26.3123 29.3474 26.2694 29.4546C26.2249 29.566 26.4481 29.2942 26.5341 29.2105C26.9582 28.797 27.4938 28.4762 27.9639 28.113C28.156 27.9645 28.4646 27.8002 28.6224 27.6227C28.6472 27.5948 28.3356 27.7118 28.3188 27.7212C27.9313 27.9372 27.5592 28.1767 27.1791 28.4047ZM27.1791 28.4047C27.161 28.4155 27.143 28.4263 27.1249 28.4371C26.8654 28.5916 26.5884 28.7333 26.3495 28.9192C26.2771 28.9754 26.2063 29.0482 26.1306 29.1042M26.1306 29.1042C26.1149 29.1158 26.099 29.1267 26.0828 29.1366C25.9328 29.2283 25.9922 29.172 26.0869 29.0299C26.341 28.6488 26.6301 28.2706 26.85 27.8689C27.0375 27.5261 26.659 28.2195 26.6284 28.2709C26.4631 28.549 26.2936 28.8248 26.1306 29.1042ZM26.1566 30.1787C26.3013 30.1787 26.4457 30.175 26.5899 30.1692M26.5899 30.1692C27.0855 30.1492 27.5788 30.1049 28.0767 30.1049H28.2778C28.3329 30.1049 28.047 30.1395 28.0152 30.1418C27.5917 30.1726 27.1717 30.1787 26.7474 30.1787C26.5864 30.1787 26.5519 30.1815 26.5899 30.1692ZM26.5899 30.1692C26.6198 30.1594 26.6949 30.1402 26.7884 30.1028C27.1867 29.9435 27.6377 29.816 28.0603 29.7438C28.678 29.6384 29.2636 29.3703 29.8286 29.1161C30.0021 29.038 30.1654 29.0083 30.2471 28.8207C30.4598 28.3322 30.4399 27.7495 30.4399 27.2247C30.4399 26.9992 29.9563 27.2506 29.5961 27.4758M29.5961 27.4758C29.5788 27.4866 29.5617 27.4974 29.545 27.5081M29.5961 27.4758C29.6069 27.4326 29.6178 27.3914 29.6284 27.353M29.5961 27.4758C29.5019 27.852 29.4162 28.3735 29.6255 28.4084C29.6976 28.4204 29.7725 28.4667 29.8491 28.4802C29.9712 28.5017 29.3743 28.8819 29.326 28.9069C28.8254 29.1661 28.274 29.3585 27.7485 29.5633C27.6015 29.6206 27.4465 29.6994 27.291 29.7295C27.2167 29.7439 27.0995 29.8013 27.0305 29.8013C26.9581 29.8013 27.066 29.6557 27.1126 29.6002C27.2986 29.3787 27.4704 29.1467 27.6541 28.9233C27.8684 28.6627 28.0638 28.376 28.3475 28.1868C28.3568 28.1806 28.4336 28.1015 28.4214 28.1355C28.3724 28.2714 28.245 28.3968 28.1588 28.5089C28.0483 28.6525 27.7996 28.8316 27.7444 28.9971M29.545 27.5081C29.384 27.6109 29.2558 27.7028 29.2214 27.7335C28.912 28.009 28.6751 28.3537 28.3988 28.6607C28.2725 28.801 28.2263 28.9525 28.169 29.1243C28.066 29.4335 28.5212 29.0062 28.565 28.9643C28.9983 28.5501 29.2669 28.0281 29.545 27.5081ZM29.545 27.5081C29.571 27.4594 29.5971 27.4107 29.6235 27.3622C29.6251 27.3591 29.6268 27.3561 29.6284 27.353M29.6284 27.353C29.7979 27.0365 29.8596 26.712 30.0317 26.4001C30.0604 26.348 30.2175 26.0309 30.0912 26.2278C29.9086 26.5123 29.8165 26.8036 29.7014 27.116C29.6865 27.1564 29.6588 27.2429 29.6284 27.353ZM31.1046 27.7417C31.1614 27.8623 31.1413 28.0008 31.16 28.1314C31.1941 28.3703 31.2154 28.6083 31.2154 28.8494C31.2154 29.0468 31.2299 29.2514 31.2154 29.4484C31.1997 29.6601 31.0463 29.8223 30.8411 29.9315M30.8411 29.9315C30.8365 29.934 30.832 29.9363 30.8274 29.9387M30.8411 29.9315C30.8392 29.9309 30.8373 29.9302 30.8354 29.9295M30.8411 29.9315C30.8553 29.9367 30.8693 29.9425 30.883 29.949C30.971 29.9907 31.274 30.0942 31.2892 30.2157C31.3101 30.383 31.2919 30.3949 31.2154 30.548M30.8274 29.9387C30.5289 30.0925 30.1271 30.1364 29.8778 30.0597C29.7281 30.0137 29.4892 29.9986 29.3322 29.9941C29.1288 29.9883 28.8884 29.9842 28.7044 30.0762C28.6181 30.1193 28.3797 30.2526 28.5937 30.2526H29.1106C29.2613 30.2526 29.3964 30.323 29.5455 30.3264C29.9916 30.3366 30.5179 30.2872 30.8274 29.9387ZM30.8274 29.9387C30.8301 29.9357 30.8328 29.9326 30.8354 29.9295M30.8354 29.9295C30.8691 29.8905 30.9002 29.8479 30.9282 29.8013C31.0934 29.5258 31.3729 28.9348 30.8543 28.9233L30.8529 28.9232C30.5938 28.9175 30.3746 28.9126 30.2471 29.1818C30.1608 29.364 30.0227 29.4214 30.1158 29.6331C30.1652 29.7454 30.4538 29.8277 30.5692 29.8628C30.6568 29.8895 30.7499 29.8995 30.8354 29.9295ZM26.932 5.32818C26.8674 5.73208 26.5479 6.16006 26.3494 6.50978C26.2574 6.67193 26.1514 6.83699 26.0627 7.00809M26.0627 7.00809C26.0424 7.0471 26.0231 7.08644 26.0051 7.12612M26.0627 7.00809C26.0522 7.08981 26.0387 7.17166 26.0294 7.24828C26.0015 7.47913 25.9455 7.69745 25.8808 7.91473M26.0627 7.00809C26.0718 6.93713 26.0787 6.86628 26.0787 6.79903C26.0787 6.78642 26.0315 6.99497 26.0233 7.03494C26.0171 7.0653 26.011 7.0957 26.0051 7.12612M26.0051 7.12612C25.9698 7.2037 25.9394 7.28262 25.9166 7.36316C25.8274 7.67876 25.7872 7.99958 25.7422 8.32321C25.7206 8.47897 25.5176 8.90536 25.6048 8.77452C25.6845 8.65494 25.7094 8.46881 25.7504 8.33552C25.7941 8.19365 25.8393 8.0544 25.8808 7.91473M26.0051 7.12612C25.9542 7.38707 25.9134 7.65016 25.8808 7.91473M25.8808 7.91473C25.774 8.78161 25.7543 9.66437 25.751 10.5396M25.751 10.5396C25.75 10.8049 25.7504 11.0694 25.7504 11.3326C25.7504 11.6188 25.7956 11.9438 25.7484 12.227C25.6869 12.5959 25.6054 11.4923 25.5576 11.1213C25.5401 10.9856 25.5218 10.8502 25.5029 10.715M25.751 10.5396C25.6907 10.5877 25.5977 10.6584 25.5029 10.715M25.751 10.5396C25.7763 10.5194 25.7958 10.5032 25.8073 10.4937L25.8099 10.4915C25.9525 10.3733 26.0995 10.2581 26.2414 10.1393M25.5029 10.715C25.4423 10.2811 25.3755 9.84904 25.3114 9.4166C25.2916 9.28299 25.2644 9.39981 25.2424 9.55046M25.5029 10.715C25.4199 10.7645 25.3356 10.8033 25.2707 10.8067M25.2424 9.55046C25.2225 9.68713 25.2068 9.85165 25.2048 9.88227C25.1878 10.1419 25.1383 10.5117 25.1948 10.7858M25.2424 9.55046C25.2486 9.73512 25.2548 9.91968 25.2622 10.1038C25.2714 10.3312 25.2913 10.5761 25.2707 10.8067M25.2424 9.55046C25.2298 9.17173 25.2174 8.79253 25.1945 8.41553C25.1791 8.16098 25.013 8.30692 24.9012 8.43809C24.511 8.8958 24.6454 9.38592 24.8991 9.86791C25.0436 10.1425 25.0514 10.4665 25.1678 10.748C25.1745 10.7641 25.1837 10.7766 25.1948 10.7858M25.1948 10.7858C25.2004 10.8132 25.2071 10.8396 25.215 10.8649C25.227 10.9032 25.2498 10.9762 25.2622 10.8833C25.2656 10.858 25.2684 10.8324 25.2707 10.8067M25.1948 10.7858C25.2145 10.8021 25.2405 10.8082 25.2707 10.8067M26.2414 10.1393C26.2796 10.1073 26.3175 10.075 26.3548 10.0424M26.2414 10.1393C26.2293 9.7534 26.2356 9.37774 26.3043 9.60123C26.347 9.74 26.3478 9.89477 26.3548 10.0424M26.2414 10.1393C26.2478 10.3428 26.2593 10.5492 26.2694 10.6721C26.3218 11.3042 26.3751 11.942 26.5997 12.5409C26.6071 12.5607 26.6135 12.5777 26.6189 12.5921M26.3548 10.0424C26.3914 10.0103 26.4274 9.9779 26.4627 9.94499M26.3548 10.0424C26.3565 10.0784 26.3586 10.1141 26.3618 10.149C26.3861 10.4169 26.4377 10.6796 26.4807 10.9449C26.4819 10.952 26.4836 10.9646 26.4856 10.9809M26.4627 9.94499C26.5593 9.855 26.6505 9.76134 26.7325 9.66156M26.4627 9.94499C26.4475 8.29066 26.4889 5.9704 26.4889 7.02879C26.4889 7.91105 26.6145 8.7858 26.7325 9.66156M26.4627 9.94499C26.4665 10.35 26.4736 10.7151 26.4856 10.9809M26.7325 9.66156C26.8099 9.56742 26.8791 9.46784 26.9372 9.36075M26.7325 9.66156C26.7818 10.0274 26.8298 10.3935 26.8667 10.7603M26.9372 9.36075C27.013 9.22074 27.0697 9.06789 27.1003 8.8976C27.1148 8.81643 27.1563 8.73515 27.1536 8.65143C27.1502 8.54657 27.0323 8.83626 27.0264 8.85247C26.9654 9.02116 26.9454 9.18891 26.9372 9.36075ZM26.9372 9.36075C26.9331 9.44652 26.9319 9.53331 26.93 9.62174C26.9219 10.002 26.8837 10.3806 26.8667 10.7603M26.8667 10.7603C26.8639 10.8232 26.8617 10.8861 26.8602 10.949C26.8587 11.0162 26.8566 11.0842 26.8544 11.1527M26.8667 10.7603C26.8831 10.9237 26.8974 11.0873 26.9086 11.2511M26.8544 11.1527C26.8448 11.4579 26.8356 11.7725 26.8869 12.0691C26.954 12.4567 26.9303 11.6703 26.9279 11.6095C26.9233 11.4899 26.9168 11.3704 26.9086 11.2511M26.8544 11.1527C26.8077 11.0671 26.762 10.9817 26.7166 10.8977C26.5854 10.6548 26.6366 11.0551 26.6366 11.1459V12.4629C26.6366 12.5091 26.6394 12.5505 26.6421 12.5831M26.8544 11.1527C26.8723 11.1855 26.8904 11.2183 26.9086 11.2511M26.9086 11.2511C27.0686 11.5379 27.2447 11.8213 27.4695 12.0526C27.5867 12.1732 27.6963 12.2282 27.8253 12.2524M26.4856 10.9809C26.486 10.9902 26.4865 10.9994 26.4869 11.0085C26.4918 11.1123 26.4923 11.2088 26.5177 11.31C26.5256 11.3417 26.4986 11.085 26.4856 10.9809ZM26.6189 12.5921C26.6567 12.6926 26.6493 12.6671 26.6421 12.5831M26.6189 12.5921C26.3839 12.6843 26.1579 12.7997 25.9474 12.947C25.654 13.1524 26.6114 12.6783 26.9485 12.5573C26.9976 12.5397 27.0492 12.5203 27.1028 12.4999M26.6189 12.5921C26.6267 12.5891 26.6344 12.5861 26.6421 12.5831M26.6421 12.5831C26.7689 12.5343 26.8982 12.4922 27.0291 12.4553M27.8253 12.2524C27.8647 12.2598 27.906 12.2643 27.9498 12.2669M27.8253 12.2524C28.0351 12.1986 28.2434 12.1696 28.4296 12.1962C28.4946 12.2055 28.419 12.2267 28.3175 12.244M27.8253 12.2524C27.7351 12.2755 27.6447 12.3033 27.5556 12.3332M27.9498 12.2669C27.9898 12.2693 28.0319 12.2701 28.0767 12.2701C28.1312 12.2701 28.2333 12.2584 28.3175 12.244M27.9498 12.2669C27.8187 12.2865 27.687 12.3082 27.5556 12.3332M27.9498 12.2669C27.9846 12.2617 28.0194 12.2566 28.0542 12.2516C28.1392 12.2395 28.228 12.2371 28.3175 12.244M28.3175 12.244C28.6246 12.268 28.9402 12.4024 29.1458 12.6321M27.5556 12.3332C27.4625 12.3645 27.3709 12.3981 27.2827 12.4314M27.5556 12.3332C27.4365 12.3558 27.3177 12.3812 27.1997 12.4103M27.2827 12.4314C27.2209 12.4548 27.1607 12.4779 27.1028 12.4999M27.2827 12.4314C27.2551 12.4241 27.2275 12.4169 27.1997 12.4103M27.2827 12.4314C27.3424 12.4472 27.4018 12.4636 27.4613 12.4752C27.8013 12.5418 28.1683 12.6298 28.4932 12.7501C28.5725 12.7795 28.6846 12.8408 28.766 12.8076C28.8871 12.758 29.0187 12.6969 29.1458 12.6321M27.1028 12.4999C27.2361 12.586 27.366 12.6962 27.4982 12.7727L27.5 12.7737C27.7539 12.9205 28.0198 13.0742 28.3208 13.0742C28.52 13.0742 28.6943 13.0145 28.885 12.9717C28.9736 12.9518 29.3456 12.921 29.2358 12.7501C29.2089 12.7084 29.1788 12.669 29.1458 12.6321M27.1028 12.4999C27.0784 12.4841 27.0538 12.4691 27.0291 12.4553M27.0291 12.4553C27.0857 12.4394 27.1426 12.4244 27.1997 12.4103M27.0291 12.4553C27.0044 12.4415 26.9796 12.4289 26.9546 12.4178C26.9076 12.3969 26.9626 12.3809 26.9854 12.3809C27.0577 12.3809 27.129 12.3935 27.1997 12.4103M29.1458 12.6321C29.2359 12.5862 29.3238 12.5384 29.404 12.4916C29.5513 12.4057 29.6836 12.3006 29.7383 12.1306C29.7828 11.9926 29.85 11.8701 29.8881 11.7367C29.906 11.674 29.9514 11.8336 29.9517 11.8352C29.9702 11.9585 29.9599 12.0882 29.9599 12.2126C29.9599 12.3213 29.9264 12.4987 29.9661 12.6045C30.0063 12.7117 30.1548 12.7072 30.2471 12.7214C30.4172 12.7476 30.5658 12.833 30.7394 12.8527C30.9754 12.8795 31.3035 12.9136 31.4697 12.7091C31.6584 12.4768 31.6435 12.2518 31.6584 11.9747C31.661 11.9284 31.8264 11.7302 31.642 11.8475C31.5424 11.9109 31.5224 12.0608 31.4369 12.1142C31.3713 12.1552 31.2892 12.3424 31.2892 12.4178M30.6615 8.02371C30.7101 8.38853 30.8003 8.75435 30.8584 9.11915C30.9457 9.66762 30.9157 10.2318 30.9487 10.7849C30.9635 11.0332 30.9569 11.2829 30.9569 11.5316C30.9569 11.5583 30.9518 11.6098 30.9589 11.5418C30.9789 11.3524 30.9938 11.1716 30.9938 10.9798V7.32624C30.9938 7.1906 30.9799 7.18265 31.0143 7.33034C31.099 7.69316 31.1731 8.05412 31.2318 8.42168C31.3533 9.18297 31.3261 9.94419 31.3261 10.7151C31.3261 10.8529 31.2292 10.9941 31.2174 11.1418C31.2036 11.3142 31.1161 11.44 31.0759 11.6054C31.0536 11.6969 31.0798 11.7777 31.0389 11.8639C31.0003 11.9456 30.9388 12.0096 30.922 12.1019C30.9096 12.1703 30.8628 12.2224 30.8482 12.2886C30.806 12.4782 30.8092 12.0822 30.8092 12.0444C30.8092 11.6985 30.7878 11.3372 30.7169 10.9982C30.6953 10.8954 30.6777 10.5936 30.5507 10.5428C30.468 10.5097 30.3931 10.5619 30.3329 10.6391M30.3329 10.6391C30.2596 10.7332 30.2078 10.8644 30.1897 10.9244C30.0594 11.3539 30.1076 11.8332 30.1076 12.2762C30.1076 12.536 30.1329 12.6458 30.202 12.3132C30.3163 11.7624 30.3333 11.2007 30.3329 10.6391ZM30.3329 10.6391C30.3328 10.3892 30.3291 10.1393 30.3291 9.89048C30.3291 9.6851 30.4534 8.83256 30.1979 8.70477C30.0897 8.65069 29.9429 8.75055 29.8758 8.82375C29.5856 9.14036 29.3737 9.51296 29.1968 9.90073C29.0559 10.2095 28.905 10.515 28.7783 10.83C28.7539 10.8906 28.677 11.0319 28.7085 11.1028C28.7178 11.1236 28.7336 11.1328 28.7547 11.1322M28.7547 11.1322C28.8478 11.1299 29.0449 10.9396 29.2421 10.7172M28.7547 11.1322C28.9003 10.9664 29.0604 10.8204 29.2421 10.7172M28.7547 11.1322C28.6485 11.2532 28.5501 11.3846 28.4568 11.5176M29.2421 10.7172C29.3895 10.551 29.5368 10.367 29.6409 10.2301M29.2421 10.7172C29.282 10.6945 29.323 10.6739 29.365 10.6556C29.4293 10.6277 29.4766 10.6168 29.511 10.6195M29.6409 10.2301C29.7181 10.1286 29.7716 10.053 29.7835 10.03C29.9521 9.70402 30.1729 9.27345 30.1814 8.8976C30.1901 8.51898 29.8365 9.57802 29.7383 9.94381C29.7145 10.0328 29.6785 10.1298 29.6409 10.2301ZM29.6409 10.2301C29.593 10.358 29.5424 10.4912 29.511 10.6195M29.511 10.6195C29.4919 10.6977 29.4799 10.7741 29.4799 10.8464C29.4799 10.8607 29.5321 10.7855 29.589 10.692M29.511 10.6195C29.5559 10.6231 29.5789 10.6497 29.589 10.692M29.589 10.692C29.6147 10.6499 29.6413 10.6041 29.6645 10.5612M29.589 10.692C29.5952 10.7175 29.5967 10.7486 29.5955 10.7838M29.6645 10.5612C29.6969 10.5012 29.7227 10.4468 29.7301 10.4156C29.7724 10.2381 29.7334 10.3434 29.6645 10.5612ZM29.6645 10.5612C29.6437 10.6267 29.6203 10.7025 29.5955 10.7838M29.5955 10.7838C29.4985 11.1016 29.3815 11.5039 29.3281 11.7121C29.2487 12.0213 29.2119 12.3416 29.1127 12.6455C29.0856 12.7283 29.0368 12.8205 29.0368 12.9101C29.0368 13.148 29.2154 12.4677 29.2747 12.2373C29.387 11.8009 29.538 11.3424 29.5865 10.8936C29.5908 10.8543 29.5943 10.8172 29.5955 10.7838ZM28.4568 11.5176C28.3207 11.7116 28.1954 11.9087 28.0726 12.0814C28.0344 12.1351 27.9331 12.2411 27.9331 12.3173C27.9331 12.4087 28.0667 12.1923 28.1342 12.1306C28.3969 11.8904 28.6653 11.6196 28.8829 11.3367C28.9686 11.2254 28.6385 11.4469 28.5937 11.4741C28.533 11.511 28.4887 11.5231 28.4568 11.5176ZM28.4568 11.5176C28.3372 11.497 28.3911 11.2286 28.409 11.0803C28.4317 10.8929 28.4658 10.7057 28.506 10.5191M28.506 10.5191C28.5741 10.203 28.6595 9.88855 28.7356 9.57778M28.506 10.5191C28.3959 10.6753 28.2855 10.8305 28.1793 10.9859C28.0052 11.2405 27.8337 11.5523 27.6049 11.7654C27.4856 11.8766 27.5542 11.6133 27.5639 11.5808C27.684 11.1777 27.8503 10.7526 28.048 10.3578M28.506 10.5191C28.7724 10.1413 29.0377 9.7573 29.2419 9.34891C29.2509 9.33085 29.3411 9.15681 29.246 9.18275C29.0709 9.23051 28.8896 9.40824 28.7356 9.57778M28.7356 9.57778C28.7375 9.56987 28.7394 9.56196 28.7414 9.55405C28.8536 9.0927 28.4054 9.73092 28.3352 9.84329C28.2339 10.0053 28.1377 10.1784 28.048 10.3578M28.7356 9.57778C28.6545 9.66708 28.5809 9.75411 28.5198 9.81868C28.3573 9.99044 28.1996 10.171 28.048 10.3578M28.048 10.3578C27.7711 10.6988 27.5147 11.0605 27.2869 11.427C27.2148 11.543 27.1913 11.5206 27.2357 11.4044C27.3378 11.1366 27.4741 10.8795 27.5926 10.6187C27.7578 10.2552 28.0579 9.85383 28.1116 9.45148C28.1314 9.30269 27.7761 9.65125 27.7362 9.68534C27.6395 9.76796 27.4138 10.0378 27.568 9.75098C27.8459 9.23396 28.1662 8.73367 28.4214 8.20628C28.5325 7.97653 28.1038 8.3698 28.0603 8.41142C27.82 8.64151 27.5852 8.87354 27.3382 9.09454C27.2189 9.20131 27.4968 8.63038 27.5228 8.58169C27.5632 8.50621 28.0401 7.73846 27.9434 7.69549C27.7881 7.62646 27.5066 7.83955 27.3957 7.92935C27.116 8.15573 27.2994 7.58584 27.3382 7.48625C27.4141 7.29132 27.5069 7.10063 27.5926 6.90981C27.6279 6.83107 27.7844 6.65971 27.6993 6.6739C27.6019 6.69013 27.4538 6.88788 27.3957 6.95699C27.2225 7.16297 27.0458 7.38639 26.9013 7.61343C26.8723 7.65896 26.6508 8.12815 26.8028 7.92935C26.8741 7.83609 26.9786 7.78773 27.0428 7.69138M30.2922 7.35906C29.961 7.5539 29.7787 8.0115 29.4819 8.26372C29.3693 8.35942 29.3368 8.46681 29.1845 8.46681C29.129 8.46681 29.0676 8.48614 29.0047 8.51639M29.0047 8.51639C28.9771 8.52964 28.9492 8.54499 28.9214 8.56172M29.0047 8.51639C28.9746 8.55646 28.9123 8.65863 28.9157 8.61451C28.9171 8.597 28.919 8.57939 28.9214 8.56172M29.0047 8.51639C29.0058 8.51481 29.007 8.51332 29.0081 8.51194C29.1078 8.38473 29.2069 8.25687 29.3076 8.13038C29.4846 7.90778 29.6482 7.66118 29.8355 7.44134M28.9214 8.56172C28.7899 8.64098 28.6603 8.75136 28.5732 8.8176C28.5323 8.84866 28.2578 9.06254 28.3044 8.86068C28.3999 8.44686 28.8077 8.04657 29.0573 7.716C29.1063 7.65115 29.1298 7.56583 29.2029 7.52522C29.2884 7.47773 29.1317 7.9008 29.1188 7.93755C29.0508 8.13206 28.9503 8.35197 28.9214 8.56172ZM29.8355 7.44134C29.9039 7.36096 29.9756 7.28415 30.0522 7.21341C30.2207 7.05784 30.3379 6.87051 30.4933 6.71082C30.5175 6.68591 30.6127 6.61109 30.6081 6.61646C30.4643 6.7843 30.3631 6.99501 30.2204 7.16828C30.0989 7.3158 29.9834 7.40117 29.8355 7.44134ZM29.8355 7.44134C29.7631 7.461 29.683 7.46983 29.5907 7.46983C29.2863 7.46983 29.0207 7.42516 28.7188 7.50676C28.6025 7.5382 28.5119 7.55521 28.409 7.60933C28.3623 7.63394 28.2934 7.6781 28.2429 7.68933C28.1202 7.7166 28.0972 7.57804 28.112 7.40397M28.112 7.40397C28.1171 7.34453 28.1265 7.28096 28.1379 7.21843M28.112 7.40397C28.0134 7.48357 28.0684 7.42013 28.0952 7.3488C28.111 7.3067 28.125 7.26304 28.1379 7.21843M28.112 7.40397C28.1152 7.40145 28.1184 7.39879 28.1219 7.39598C28.2889 7.25929 28.4198 7.08744 28.5342 6.9057C28.5808 6.83163 28.6197 6.80518 28.7044 6.80518M28.1379 7.21843C28.1693 7.0461 28.2153 6.88172 28.2244 6.8339C28.2357 6.77461 28.2526 6.71335 28.2674 6.65166M28.1379 7.21843C28.1839 7.0591 28.2145 6.88763 28.2531 6.73133C28.258 6.71158 28.2628 6.68325 28.2674 6.65166M28.2674 6.65166C28.2842 6.58162 28.2983 6.51102 28.2983 6.44209C28.2983 6.36485 28.2847 6.53174 28.2674 6.65166ZM26.5997 4.73738C27.9397 4.61557 29.2933 4.73738 30.643 4.73738C30.8113 4.73738 31.2072 4.77636 31.2153 5.00406C31.2213 5.172 31.2394 5.36959 31.1969 5.53127C31.1683 5.63976 31.1046 5.738 31.1046 5.85334V6.71082C31.1046 6.86361 31.1415 7.00186 31.1415 7.15392C31.1415 7.26761 31.0676 7.35742 31.0676 7.44727C31.0676 7.5118 30.9656 7.36776 30.9199 7.32213C30.7904 7.19258 30.6986 7.03109 30.5692 6.9016C30.4884 6.82081 30.382 6.72716 30.2661 6.65168M30.2661 6.65168C30.1409 6.57013 30.0047 6.50978 29.8778 6.50978H29.5353C29.4037 6.50978 29.9651 5.74688 30.0543 5.6564C30.1146 5.59514 30.2874 5.33801 30.3661 5.32818C30.3885 5.32538 30.4272 5.27446 30.4379 5.31177C30.468 5.41735 30.4399 5.56622 30.4399 5.67487C30.4399 5.96773 30.4309 6.22586 30.3579 6.50978C30.3428 6.56846 30.3102 6.61486 30.2661 6.65168ZM30.2661 6.65168C30.114 6.77869 29.8245 6.79195 29.6399 6.80313C29.5549 6.80828 28.9996 6.93151 28.9465 6.87083C28.7399 6.63466 29.2136 5.81885 29.3773 5.63179C29.4267 5.57528 29.4954 5.46533 29.3547 5.50255C29.1037 5.56901 28.8649 5.71604 28.6532 5.8636C28.504 5.96754 28.4598 6.04849 28.3033 6.06399M28.3033 6.06399C28.2854 6.06577 28.2661 6.06668 28.2449 6.06668H27.5311C27.3335 6.06668 27.2206 6.14966 27.0449 6.22874C26.9739 6.26069 26.8934 6.2881 26.8213 6.31695C26.6692 6.37778 27.0296 6.06351 27.1454 5.9477C27.2865 5.80655 27.5843 5.47588 27.8039 5.47588C28.103 5.47588 28.4084 5.40203 28.7044 5.40203C28.9532 5.40203 28.6471 5.67822 28.5752 5.77128C28.5217 5.84054 28.3759 6.02265 28.3033 6.06399ZM28.3033 6.06399C28.3016 6.06497 28.2999 6.06587 28.2983 6.06668M15.9284 5.29126C16.2328 5.29126 16.5198 5.0483 16.8146 5.03278C16.9735 5.02442 17.1356 5.03278 17.2946 5.03278C17.5993 5.03278 17.8839 4.94487 18.1829 4.88508C18.4666 4.82834 18.7592 4.84816 19.0486 4.84816C19.1882 4.84816 19.3209 4.77431 19.4732 4.77431C19.6619 4.77431 19.8362 4.70046 20.0271 4.70046M16.8146 4.62661C16.5522 4.62661 16.2959 4.51583 16.0392 4.51583C15.7973 4.51583 16.3638 4.47891 16.4433 4.47891C16.7633 4.47891 17.092 4.56311 17.3869 4.62866C17.6596 4.68924 17.3763 4.82696 17.2392 4.86867C16.9485 4.95716 16.6825 5.13756 16.4002 5.24613C16.0806 5.36905 15.7488 5.48642 15.5879 5.80821C15.5434 5.89721 15.3884 5.99914 15.3171 6.06668C15.2434 6.13644 15.1928 6.18813 15.1325 6.26567C15.1283 6.27099 15.0126 6.32516 15.0278 6.32516C15.139 6.32516 15.2438 6.30821 15.3376 6.2431C15.4217 6.18467 15.5482 6.18778 15.6043 6.10361C15.6593 6.02105 16.037 5.81455 15.8504 6.02771C15.7637 6.12682 15.4655 6.37454 15.5858 6.32106C15.7884 6.23102 15.9175 6.04544 16.113 5.9477C16.1455 5.93144 16.3198 5.7841 16.3325 5.82872C16.389 6.02627 15.8508 6.21812 15.7438 6.32516M15.5222 4.95893C15.1386 4.76712 14.8012 4.70046 14.3796 4.70046C14.1976 4.70046 14.0214 4.77431 13.8421 4.77431C13.727 4.77431 13.6401 4.84816 13.5262 4.84816C13.1279 4.84816 12.7416 4.95389 12.3385 4.95893C11.9179 4.96419 10.6583 5.03278 11.0789 5.03278C12.2302 5.03278 13.3641 5.33023 14.4986 5.4923C14.5578 5.50075 15.4268 5.49994 15.4463 5.60717C15.4875 5.83353 14.7595 5.99784 14.6319 6.05027C14.1889 6.23227 13.7046 6.31968 13.2698 6.51799C13.0878 6.601 12.9824 6.62056 13.2493 6.62056H14.3324C14.4233 6.62056 14.9314 6.56583 14.9314 6.67595C14.9314 6.81779 14.9315 7.0549 14.9704 7.19085C14.9975 7.28574 15.2583 6.98316 15.235 7.02674C15.2339 7.02885 15.2328 7.03099 15.2316 7.03314M15.2316 7.03314C15.1808 7.1294 15.1254 7.25531 15.0504 7.33034C15.0329 7.34785 15.0163 7.36606 15.0004 7.38487M15.2316 7.03314C15.1247 7.11609 15.0748 7.24013 15.0053 7.37547C15.0037 7.37861 15.002 7.38174 15.0004 7.38487M15.2316 7.03314C15.2523 7.01708 15.2751 7.00257 15.3007 6.98981M15.0004 7.38487C14.8895 7.51652 14.816 7.67727 14.7332 7.83139M15.0004 7.38487C14.9202 7.5399 14.8292 7.68698 14.7332 7.83139M14.7332 7.83139C14.6705 7.94826 14.6025 8.06133 14.5088 8.155C14.4896 8.17426 14.4755 8.18854 14.4657 8.19859M14.7332 7.83139C14.6775 7.9152 14.6201 7.99811 14.5622 8.08115C14.5309 8.12587 14.4893 8.17298 14.4657 8.19859M14.4657 8.19859C14.4377 8.22722 14.4445 8.22152 14.4657 8.19859ZM14.156 8.46681C14.1333 8.67107 13.8599 8.78383 13.758 8.94683C13.7439 8.96934 13.5817 9.09453 13.7293 9.09453C13.8042 9.09453 14.1053 8.98578 14.1211 8.93042C14.1381 8.871 14.2543 8.85204 14.2647 8.81555C14.295 8.70953 14.3425 8.69236 14.396 8.59605C14.4407 8.51551 14.5091 8.54318 14.5622 8.4504C14.6116 8.36392 14.7099 8.36558 14.7099 8.24526M14.4883 9.05761C14.4729 9.18089 14.1722 9.38376 14.0821 9.46378C13.9393 9.59075 13.7732 9.66544 13.6021 9.75098C13.5085 9.7978 13.505 9.85237 13.397 9.87201C13.3726 9.87643 13.1396 9.96538 13.1836 10.0095C13.3058 10.1316 13.8525 9.78057 13.6739 10.1079C13.5864 10.2684 13.1657 10.3869 12.9928 10.3869C12.7646 10.3869 12.5473 10.3783 12.3241 10.352C12.0388 10.3185 11.7098 10.3397 11.4605 10.1838C11.2428 10.0478 10.9127 9.86996 10.6481 9.86996M11.8666 10.9039C12.1603 10.9039 12.4597 10.9211 12.7528 10.9039C12.8662 10.8972 12.9931 10.7705 13.1241 10.7541C13.1697 10.7484 13.4933 10.6094 13.5201 10.5715C13.5947 10.4657 13.7516 10.3892 13.8462 10.2946C13.9759 10.1649 14.1789 10.0293 14.2586 9.86996C14.4819 9.42323 13.7802 9.82046 13.6472 9.71406C13.534 9.62347 13.7024 9.49392 13.7683 9.42071C13.7739 9.41443 13.7795 9.40489 13.785 9.39327M13.785 9.39327C13.812 9.33672 13.8382 9.23102 13.8688 9.21352C13.8765 9.20914 13.8617 9.31508 13.8471 9.41835M13.785 9.39327C13.8059 9.40142 13.8266 9.40979 13.8471 9.41835M13.785 9.39327C13.5727 9.31036 13.3404 9.25002 13.1303 9.24224C13.1169 9.24174 13.1048 9.23999 13.0939 9.23709M13.8471 9.41835C13.8353 9.50108 13.8237 9.58208 13.8237 9.60328C13.8237 9.77702 14.2064 9.5951 14.0575 9.51712C13.9917 9.48262 13.9209 9.44925 13.8471 9.41835ZM13.0939 9.23709C12.8873 9.18192 13.1101 8.70887 13.259 8.43082M13.0939 9.23709C13.2264 8.84525 13.3463 8.42989 13.2698 8.42989C13.2663 8.42989 13.2627 8.43021 13.259 8.43082M13.0939 9.23709C13.0386 9.40068 12.9811 9.56018 12.9348 9.68363M13.259 8.43082C13.3082 8.33892 13.3493 8.26833 13.3642 8.24116C13.4608 8.0645 13.5167 7.90569 13.6125 7.79794M13.259 8.43082C13.1818 8.44365 13.0632 8.58491 13.0154 8.63092C12.7314 8.9044 12.437 9.16478 12.16 9.44738C12.1538 9.45364 12.1321 9.47335 12.1006 9.5008M13.6125 7.79794C13.6711 7.73201 13.7446 7.68519 13.8516 7.66508M13.6125 7.79794C13.6853 7.75586 13.7668 7.70778 13.8516 7.66508M13.6125 7.79794C13.5977 7.80646 13.5833 7.81474 13.5693 7.82267C13.4614 7.88379 13.3862 7.90111 13.4626 7.75703C13.58 7.53582 13.6342 7.28433 13.7293 7.0534C13.8105 6.85621 13.3886 7.33519 13.36 7.36727C13.2774 7.46003 13.1936 7.55274 13.1098 7.64593M13.8516 7.66508C13.883 7.65917 13.9173 7.65557 13.955 7.65446C14.0322 7.65219 14.2595 7.54779 14.2421 7.54779C14.1169 7.54779 13.9804 7.60021 13.8516 7.66508ZM13.1098 7.64593C12.6836 8.11935 12.2549 8.60513 11.9651 9.17249C11.8614 9.37555 11.7267 9.57512 11.6307 9.77765C11.539 9.9713 11.9426 9.63856 12.1006 9.5008M13.1098 7.64593C13.1043 7.65436 13.0988 7.66268 13.0934 7.67087C12.7919 8.12561 12.5204 8.65473 12.2913 9.14992C12.2644 9.20811 12.153 9.3754 12.1006 9.5008M13.1098 7.64593C13.1704 7.55293 13.2352 7.4469 13.3067 7.36521C13.3124 7.35871 13.4008 7.30634 13.3642 7.29342C13.3095 7.27412 13.2422 7.34681 13.2082 7.37547C12.9665 7.57919 12.7389 7.80048 12.4862 7.99089C12.2602 8.16112 12.0244 8.31139 11.8051 8.49143C11.7097 8.5697 11.615 8.66547 11.5035 8.72118C11.4797 8.73309 11.4486 8.75807 11.4687 8.71298C11.5512 8.52723 11.6536 8.35061 11.7353 8.16321C11.7962 8.02364 11.8625 7.87707 11.9356 7.73163M12.1006 9.5008C12.079 9.5524 12.0675 9.5969 12.0759 9.6238C12.0791 9.63417 12.2359 9.59241 12.242 9.59097C12.4387 9.5451 12.683 9.49692 12.8841 9.54584C12.9365 9.55858 12.9454 9.61568 12.9348 9.68363M12.9348 9.68363C12.8955 9.7886 12.8642 9.86752 12.8493 9.90073C12.7736 10.0689 12.9096 9.8455 12.9348 9.68363ZM11.9356 7.73163C12.0006 7.60204 12.0711 7.47336 12.1479 7.35135M11.9356 7.73163C11.9817 7.66818 12.0284 7.60546 12.0759 7.54369C12.1837 7.40337 12.3503 7.26702 12.4123 7.09648C12.4279 7.05368 12.3546 7.16719 12.322 7.19905C12.2668 7.25315 12.2078 7.30274 12.1479 7.35135M11.9356 7.73163C11.7343 8.00865 11.5454 8.29955 11.362 8.58579C11.3001 8.68238 11.2441 8.78429 11.1906 8.88843M12.1479 7.35135C12.2228 7.23226 12.3038 7.11953 12.3918 7.01853C12.5698 6.81419 11.9955 7.34259 11.9528 7.38778C11.6846 7.67151 11.4314 7.96893 11.177 8.26496M12.1479 7.35135C12.0812 7.40549 12.0134 7.45841 11.9487 7.51497C11.682 7.74807 11.4249 8.00232 11.177 8.26496M11.177 8.26496C10.9814 8.49263 10.785 8.71947 10.5804 8.93863C10.4536 9.07452 10.357 9.18492 10.5455 8.96735C10.7491 8.73249 10.9595 8.49549 11.177 8.26496ZM11.1906 8.88843C11.0892 9.08595 10.9967 9.29148 10.8897 9.4839M11.1906 8.88843C11.1917 8.88739 11.1927 8.88634 11.1938 8.88529C11.2447 8.83433 11.031 9.25585 10.9968 9.31198C10.9618 9.36957 10.9259 9.42683 10.8897 9.4839M11.1906 8.88843C10.9662 9.11355 10.7729 9.37891 10.5948 9.64021C10.5777 9.66521 10.4278 9.80837 10.5086 9.71406C10.6039 9.60294 10.6765 9.41554 10.722 9.27916M10.8897 9.4839C10.838 9.57677 10.783 9.66659 10.722 9.75098C10.7056 9.77359 10.689 9.79816 10.6785 9.81403M10.8897 9.4839C10.83 9.57797 10.7693 9.67155 10.7097 9.76534C10.6954 9.78776 10.6853 9.80356 10.6785 9.81403M10.6785 9.81403C10.6657 9.83335 10.6619 9.83977 10.6785 9.81403ZM10.0204 9.68534C9.75509 9.68534 9.51204 9.33632 9.30034 9.24224C8.94188 9.08292 8.59275 8.76221 8.17413 8.76221C7.98251 8.76221 7.62737 8.69765 7.48076 8.84427C7.3516 8.97343 7.93822 8.98736 7.99155 9.02069C8.14656 9.11757 8.35881 9.09768 8.52286 9.16018C8.65133 9.20912 8.84541 9.18925 8.95776 9.27096C9.03108 9.32428 8.84729 9.27916 8.78134 9.27916C8.61333 9.27916 8.45076 9.26388 8.2849 9.24019C7.92916 9.18937 7.47986 9.16426 7.16279 9.36942C7.00917 9.46882 6.71062 9.46793 6.61507 9.64841C6.44411 9.97133 6.40173 9.4035 6.40173 9.27916M5.4786 10.3131C5.51691 9.39373 5.70015 8.48165 5.70015 7.56215C5.70015 7.232 5.70492 7.72249 5.70557 8.26868M5.70557 8.26868C5.70571 8.39103 5.70565 8.51618 5.70528 8.63552M5.70557 8.26868C5.68631 8.39232 5.66784 8.51583 5.65092 8.63913C5.6391 8.72519 5.6618 8.70643 5.70528 8.63552M5.70557 8.26868C5.80242 7.6469 5.91931 7.0216 5.96068 6.40106C5.96091 6.39762 6.01435 6.05241 5.95862 6.12207C5.91549 6.17599 5.99555 5.92983 5.99555 5.84513M5.70528 8.63552C5.70465 8.8408 5.70311 9.02891 5.70015 9.15608C5.69553 9.35486 5.3918 9.85867 5.64476 9.9992C5.72501 10.0438 5.70235 10.1284 5.81503 10.1284C6.01672 10.1284 6.36882 9.92911 6.44686 9.73047C6.49155 9.61671 6.58255 9.51539 6.58635 9.38994C6.59812 9.00162 6.52614 8.61133 6.38326 8.24936C6.34258 8.1463 6.30541 7.85235 6.1371 7.97858C5.98787 8.0905 5.79865 8.48326 5.70528 8.63552ZM5.70015 4.88508C5.93581 4.86544 6.16431 4.84816 6.40173 4.84816C6.5051 4.84816 6.20062 4.91934 6.12684 4.99175C5.9818 5.13411 5.64987 5.47034 5.66323 5.69743C5.668 5.77858 5.78988 5.81506 5.80887 5.90052C5.86442 6.15047 6.66356 5.54118 6.75867 5.47588C7.11475 5.23141 7.47369 4.99372 7.82522 4.74362M7.82522 4.74362C7.83486 4.73676 7.84449 4.7299 7.85411 4.72302C7.90932 4.68358 7.87899 4.70141 7.81018 4.74095M7.82522 4.74362C7.82021 4.74273 7.8152 4.74184 7.81018 4.74095M7.82522 4.74362C7.96122 4.76778 8.09284 4.79288 8.21516 4.81123C8.55051 4.86153 8.8883 4.84816 9.22649 4.84816C9.49687 4.84816 9.73405 4.73071 10.0019 4.70251C10.2938 4.67179 10.6145 4.66353 10.9066 4.66353M7.81018 4.74095C7.69566 4.80676 7.47456 4.93268 7.36383 4.95483C7.20996 4.9856 7.02206 4.95893 6.86534 4.95893H6.54943C6.26343 4.95893 6.61786 4.75405 6.70943 4.72507C7.04225 4.61975 7.44157 4.67585 7.81018 4.74095ZM13.1221 6.02976C12.9673 6.12989 12.7745 6.16926 12.5851 6.21168M12.5851 6.21168C12.4999 6.23077 12.4155 6.25048 12.3355 6.27663M12.5851 6.21168C12.5892 6.20542 12.5919 6.19945 12.5928 6.19387C12.6018 6.13988 12.4816 6.20601 12.4328 6.2308C12.4004 6.24725 12.3685 6.2612 12.3366 6.2736M12.5851 6.21168C12.5441 6.2744 12.3587 6.36651 12.322 6.39491C12.3007 6.41143 12.2795 6.42813 12.2584 6.44497M12.3355 6.27663C12.3129 6.28404 12.2906 6.29197 12.2687 6.30054C12.1434 6.34972 12.0148 6.38927 11.8867 6.4301M12.3355 6.27663C12.3359 6.27562 12.3362 6.27461 12.3366 6.2736M12.3355 6.27663C12.315 6.3358 12.2887 6.39147 12.2584 6.44497M11.8867 6.4301C11.7648 6.46897 11.6434 6.50901 11.526 6.55963M11.8867 6.4301C11.6755 6.52181 11.4723 6.63702 11.2533 6.70672C11.2241 6.716 11.2858 6.68147 11.3577 6.64367M11.8867 6.4301C11.9647 6.39623 12.0438 6.36556 12.1251 6.34157C12.1992 6.31971 12.268 6.30021 12.3366 6.2736M11.526 6.55963C11.5233 6.56079 11.5206 6.56195 11.5179 6.56312C11.4958 6.57276 11.4226 6.60955 11.3577 6.64367M11.526 6.55963C11.535 6.54638 11.5362 6.53243 11.5261 6.51799C11.4743 6.44393 11.2687 6.44361 11.09 6.45451M11.526 6.55963C11.5027 6.59349 11.4278 6.62272 11.3577 6.64367M11.3577 6.64367C11.2892 6.66413 11.2253 6.6767 11.2184 6.678C11.1612 6.68877 11.1023 6.69376 11.0442 6.69168M12.3366 6.2736C12.3541 6.22256 12.3673 6.16891 12.3754 6.11182C12.4006 5.93257 12.3554 5.75679 12.3467 5.57845C12.3291 5.22114 12.0522 5.34964 11.8461 5.46152C11.6985 5.54168 11.5674 5.66646 11.4758 5.81355M12.2584 6.44497C11.9989 6.65207 11.7573 6.8805 11.4912 7.08007C11.2244 7.28019 10.9429 7.46091 10.6542 7.62893M12.2584 6.44497C12.187 6.57075 12.0927 6.68447 11.9959 6.80313C11.7291 7.13016 11.3024 7.19491 11.0092 7.47804C10.8004 7.67956 10.6452 7.96056 10.5558 8.22885C10.4923 8.41937 10.4266 8.60594 10.4266 8.80734V9.20531M10.6542 7.62893C10.4485 7.74864 10.2392 7.8619 10.0288 7.97112M10.6542 7.62893C10.6863 7.52359 10.7133 7.41786 10.7322 7.31188C10.7365 7.28781 10.7464 7.23562 10.7557 7.17156M10.6542 7.62893C10.5565 7.94952 10.4113 8.26643 10.3035 8.57554C10.2748 8.65779 10.233 8.8448 10.1599 8.90171C10.1406 8.91668 10.1174 8.71326 10.1065 8.69657C9.98976 8.51722 9.67896 8.48958 9.49112 8.46681C9.4658 8.46374 9.21213 8.43798 9.21213 8.41142C9.21213 8.37701 9.28344 8.30907 9.37098 8.23834M10.0288 7.97112C9.99938 7.98641 9.96992 8.00162 9.94045 8.01676M10.0288 7.97112C10.3425 7.79342 10.567 7.49423 10.7466 7.18674C10.7493 7.18201 10.7524 7.17694 10.7557 7.17156M10.0288 7.97112C10.0001 7.98738 9.97068 8.00262 9.94045 8.01676M9.94045 8.01676C9.84405 8.06627 9.74752 8.11501 9.65113 8.16321C9.57234 8.2026 9.47442 8.22449 9.37098 8.23834M9.94045 8.01676C9.91304 8.02958 9.88499 8.04149 9.85627 8.05243C9.74676 8.09415 9.63095 8.11831 9.51235 8.1305M9.37098 8.23834C9.31853 8.24536 9.26466 8.25032 9.21114 8.25444M9.37098 8.23834C9.4163 8.20172 9.46597 8.16435 9.51235 8.1305M9.21114 8.25444C9.10084 8.26294 8.99205 8.2679 8.90032 8.28014C8.78475 8.29555 8.79931 8.23713 8.85109 8.14064C8.85608 8.13133 8.86119 8.12204 8.8664 8.11277M9.21114 8.25444C9.29091 8.21592 9.36937 8.17646 9.44715 8.13601M9.21114 8.25444C9.1688 8.27489 9.12608 8.29508 9.0829 8.31501C8.9633 8.37021 8.81592 8.45712 8.78339 8.29449C8.7709 8.23202 8.76865 8.16754 8.7745 8.1024M8.8664 8.11277C9.10555 7.68722 9.56916 7.30021 9.95884 7.02263C10.165 6.87578 10.4102 6.70476 10.6768 6.71082C10.8033 6.7137 10.7821 6.9902 10.7557 7.17156M8.8664 8.11277C9.05576 8.13335 9.25426 8.14894 9.44715 8.13601M8.8664 8.11277C8.8355 8.10941 8.80485 8.10592 8.7745 8.1024M10.7557 7.17156C10.8161 7.07423 10.966 6.87482 11.0442 6.69168M9.51235 8.1305C9.58793 8.07533 9.65479 8.02948 9.67985 8.0114C9.68013 8.0112 9.68041 8.011 9.6807 8.01079M9.51235 8.1305C9.49071 8.13272 9.46897 8.13455 9.44715 8.13601M9.6807 8.01079C9.74277 7.96639 9.94188 7.86343 9.87678 7.90063C9.81117 7.93812 9.74594 7.97483 9.6807 8.01079ZM9.6807 8.01079C9.60308 8.05358 9.52546 8.0953 9.44715 8.13601M8.7745 8.1024C8.79848 7.83523 8.9585 7.55682 9.10546 7.35906C9.20916 7.21951 9.34182 7.08854 9.49196 6.96991M8.7745 8.1024C8.75476 8.1001 8.73516 8.0978 8.7157 8.09551C8.63192 8.08565 8.55654 8.06558 8.48894 8.03679M9.49196 6.96991C9.60452 6.88097 9.7269 6.79897 9.85427 6.7255M9.49196 6.96991C9.55509 7.00901 9.6344 7.03014 9.73319 7.02674C9.83251 7.02331 9.86144 6.87971 9.85427 6.7255M9.49196 6.96991C9.47534 6.95962 9.45984 6.94808 9.4454 6.93541M9.85427 6.7255C10.02 6.62989 10.1942 6.54872 10.3662 6.48551M9.85427 6.7255C9.85184 6.67323 9.84526 6.61974 9.83586 6.57008M10.3662 6.48551C10.4419 6.45769 10.5171 6.43335 10.591 6.41278M10.3662 6.48551C10.1874 6.49796 10.0066 6.52241 9.83586 6.57008M10.3662 6.48551C10.4538 6.47941 10.5408 6.47619 10.626 6.47453M10.591 6.41278C10.6282 6.40244 10.6651 6.39305 10.7014 6.38465C10.7021 6.38449 10.7028 6.38433 10.7035 6.38417M10.591 6.41278C10.6029 6.43613 10.6147 6.45691 10.626 6.47453M10.591 6.41278C10.4644 6.16402 10.3252 5.62321 10.5743 5.5046C10.7572 5.4175 10.9884 5.36777 11.0727 5.59281C11.1109 5.69458 11.1298 5.82352 11.122 5.95169M10.7035 6.38417C10.7562 6.37204 10.8808 6.344 10.9725 6.35375M10.7035 6.38417C10.6885 6.43446 10.6984 6.46458 10.7283 6.47319M10.7035 6.38417C10.7052 6.37844 10.7073 6.37244 10.7096 6.36619C10.7839 6.17019 10.941 6.04395 11.122 5.95169M10.9725 6.35375C11.0171 6.3585 11.0539 6.3722 11.0707 6.40106C11.0802 6.41732 11.0865 6.43524 11.09 6.45451M10.9725 6.35375C11.067 6.25064 11.1129 6.10169 11.122 5.95169M10.9725 6.35375C10.9277 6.40258 10.872 6.44114 10.804 6.46465C10.7934 6.46834 10.7834 6.4711 10.7742 6.47295M11.09 6.45451C11.1024 6.52146 11.0813 6.60474 11.0442 6.69168M11.09 6.45451C10.9767 6.46143 10.8742 6.47286 10.8286 6.47286C10.8106 6.47286 10.7925 6.47288 10.7742 6.47295M11.0442 6.69168C10.883 6.68589 10.7279 6.62557 10.6317 6.48312C10.6298 6.48035 10.6279 6.47748 10.626 6.47453M8.48894 8.03679C8.33552 7.97146 8.22219 7.86124 8.14184 7.72377M8.48894 8.03679C8.67057 7.85827 8.80762 7.62446 8.91098 7.4005M8.48894 8.03679C8.38547 8.1385 8.26752 8.22226 8.1331 8.27603C7.75298 8.42808 7.13909 8.51824 7.07562 7.97167M8.14184 7.72377C8.09908 7.65061 8.06566 7.56974 8.04052 7.4838M8.14184 7.72377C8.17954 7.67981 8.21504 7.63363 8.24778 7.58592M8.14184 7.72377C7.94002 7.95903 7.67524 8.13038 7.43563 8.13038C7.27415 8.13038 7.15753 8.07051 7.07562 7.97167M8.04052 7.4838C7.96034 7.2098 7.9642 6.88432 8.01741 6.59335M8.04052 7.4838C8.04658 7.47434 8.05256 7.46485 8.05845 7.45534M8.04052 7.4838C7.81865 7.82969 7.47952 8.13147 7.06801 7.87294M8.01741 6.59335C8.02589 6.54698 8.03562 6.50149 8.04646 6.45723M8.01741 6.59335C8.06445 6.54203 8.11073 6.48895 8.15443 6.43528M8.01741 6.59335C7.80453 6.82557 7.57581 7.0219 7.49717 7.07597C7.47516 7.0911 7.45267 7.10542 7.42975 7.11893M8.04646 6.45723C8.05709 6.41386 8.06878 6.37166 8.08141 6.33097M8.04646 6.45723C8.04443 6.45769 8.04254 6.45812 8.04079 6.4585C7.84465 6.50156 7.6753 6.59104 7.53536 6.71239M8.04646 6.45723C8.06957 6.452 8.11024 6.44216 8.15443 6.43528M8.08141 6.33097C8.08162 6.3303 8.08183 6.32964 8.08203 6.32897M8.08141 6.33097C8.08087 6.33061 8.08033 6.33025 8.07978 6.32989M8.08141 6.33097C8.11542 6.35359 8.14809 6.37823 8.17905 6.40463M8.08203 6.32897C8.10455 6.25667 8.13003 6.18914 8.15772 6.12823C8.21983 5.99158 8.31452 5.86773 8.42267 5.77237M8.08203 6.32897C8.08128 6.32928 8.08053 6.32958 8.07978 6.32989M8.08203 6.32897C8.1351 6.30737 8.18923 6.28834 8.24388 6.27182C8.25721 6.26779 8.2711 6.26372 8.28552 6.25963M8.42267 5.77237C8.7519 5.48206 9.20584 5.45578 9.24496 6.13643C9.2452 6.14077 9.24543 6.1451 9.24564 6.14944M8.42267 5.77237C8.40525 5.73588 8.3764 5.70433 8.33414 5.67897C7.9755 5.46379 7.57343 5.65404 7.31557 5.93981M8.42267 5.77237C8.48123 5.89503 8.41055 6.07346 8.28552 6.25963M9.24564 6.14944C9.25384 6.31814 9.23256 6.48144 9.19364 6.64091M9.24564 6.14944C9.06294 6.13216 8.86384 6.14653 8.68158 6.1743M9.24564 6.14944C9.2594 6.15074 9.27306 6.15222 9.28661 6.15388M9.19364 6.64091C9.15743 6.78924 9.10595 6.93426 9.0487 7.07723M9.19364 6.64091C9.08277 6.6007 8.87211 6.64846 8.72727 6.6983M9.19364 6.64091C9.21051 6.64703 9.22508 6.65519 9.23675 6.66569C9.27066 6.69621 9.31082 6.76529 9.32156 6.82917M9.0487 7.07723C9.02631 7.13315 9.00304 7.18876 8.97946 7.24413M9.0487 7.07723C9.06989 7.07125 9.0907 7.06414 9.11104 7.0559M9.0487 7.07723C8.98403 7.09549 8.91586 7.10323 8.84699 7.10059C8.82074 7.09958 8.79909 7.09361 8.78029 7.08462M8.97946 7.24413C8.96953 7.26744 8.95955 7.2907 8.94956 7.31393C8.93725 7.34253 8.9244 7.37143 8.91098 7.4005M8.97946 7.24413C8.94342 7.30102 8.91012 7.35851 8.88097 7.41414M8.97946 7.24413C9.02046 7.17942 9.06501 7.11547 9.11104 7.0559M8.91098 7.4005C8.95775 7.37879 8.99362 7.35977 9.01315 7.34675C9.17602 7.23817 9.32089 7.09597 9.4454 6.93541M8.91098 7.4005C8.90142 7.40495 8.8914 7.4095 8.88097 7.41414M7.07562 7.97167C7.07526 7.96852 7.07491 7.96536 7.07458 7.96217C7.07153 7.9325 7.06934 7.90274 7.06801 7.87294M7.07562 7.97167C7.03705 7.92511 7.00618 7.86992 6.98194 7.80826M7.06801 7.87294C7.05825 7.65331 7.0953 7.43171 7.17521 7.2303M7.06801 7.87294C7.06747 7.8726 7.06692 7.87225 7.06638 7.87191C7.03573 7.85255 7.00762 7.83126 6.98194 7.80826M7.17521 7.2303C7.24719 7.04886 7.35395 6.88381 7.49257 6.75135M7.17521 7.2303C7.23193 7.21326 7.28787 7.19163 7.34213 7.16562M7.17521 7.2303C7.08685 7.25684 6.99657 7.27225 6.90771 7.27574M7.49257 6.75135C7.50651 6.73803 7.52078 6.72503 7.53536 6.71239M7.49257 6.75135C7.50596 6.55203 7.4878 6.34979 7.43365 6.18253M7.49257 6.75135C7.49217 6.75729 7.49175 6.76322 7.49129 6.76915M7.53536 6.71239C7.52007 6.73078 7.50537 6.7497 7.49129 6.76915M7.53536 6.71239C7.67747 6.54143 7.87027 6.41552 8.07978 6.32989M8.15443 6.43528C8.17157 6.43261 8.18925 6.43038 8.20663 6.42904M8.15443 6.43528C8.16273 6.42508 8.17094 6.41486 8.17905 6.40463M8.20663 6.42904C8.26271 6.42471 8.31576 6.4296 8.33824 6.4585C8.37207 6.50199 8.38186 6.56573 8.37706 6.63801M8.20663 6.42904C8.1976 6.42075 8.1884 6.41261 8.17905 6.40463M8.20663 6.42904C8.274 6.49091 8.33217 6.56145 8.37706 6.63801M8.37706 6.63801C8.36822 6.7711 8.30991 6.93316 8.26106 7.05115M8.37706 6.63801C8.40525 6.68611 8.42821 6.73658 8.44491 6.78877C8.44679 6.79465 8.44857 6.80056 8.45024 6.80651M8.26106 7.05115C8.24187 7.0975 8.22413 7.13705 8.21144 7.16537C8.1706 7.25647 8.11902 7.35752 8.05845 7.45534M8.26106 7.05115C8.14355 7.18679 8.04811 7.34017 8.05845 7.45534M8.26106 7.05115C8.31272 6.99151 8.36865 6.9353 8.42173 6.88727M8.05845 7.45534C8.06008 7.4735 8.06434 7.49072 8.07156 7.50676C8.09674 7.56272 8.16219 7.58505 8.24778 7.58592M6.98194 7.80826C6.83066 7.67275 6.76365 7.47793 6.75807 7.26997M6.98194 7.80826C6.92307 7.65846 6.90339 7.47052 6.90771 7.27574M6.75807 7.26997C6.75005 6.97127 6.86878 6.64549 7.04656 6.42958M6.75807 7.26997C6.80708 7.27585 6.85717 7.27772 6.90771 7.27574M6.75807 7.26997C6.46789 7.2352 6.21517 7.0602 6.12684 6.71492C6.00308 6.23112 6.03876 5.6934 6.56994 5.52922C6.87928 5.43361 7.15369 5.68602 7.31557 5.93981M7.04656 6.42958C7.08118 6.38754 7.11804 6.34966 7.15664 6.31695C7.2399 6.24641 7.3344 6.203 7.43365 6.18253M7.04656 6.42958C6.98029 6.64802 6.91449 6.9703 6.90771 7.27574M7.04656 6.42958C7.06592 6.36576 7.08532 6.31081 7.1033 6.26772C7.15008 6.15564 7.22367 6.04166 7.31557 5.93981M7.43365 6.18253C7.64863 6.13819 7.88594 6.20148 8.07978 6.32989M7.43365 6.18253C7.41865 6.13617 7.40087 6.0925 7.38024 6.05233C7.36136 6.01556 7.33972 5.97767 7.31557 5.93981M8.17905 6.40463C8.2173 6.35633 8.25323 6.30772 8.28552 6.25963M8.45024 6.80651C8.45449 6.82169 8.45807 6.83712 8.46099 6.85277M8.45024 6.80651C8.44068 6.83342 8.43116 6.86034 8.42173 6.88727M8.45024 6.80651C8.49797 6.67211 8.54656 6.53795 8.58851 6.40311C8.60413 6.35291 8.64347 6.2057 8.66864 6.1763M8.46099 6.85277C8.46961 6.89893 8.47253 6.94704 8.47035 6.99639M8.46099 6.85277C8.44816 6.86371 8.43503 6.87523 8.42173 6.88727M8.46099 6.85277C8.51478 6.80694 8.56346 6.77146 8.59877 6.75185C8.62558 6.73695 8.67156 6.71747 8.72727 6.6983M8.47035 6.99639C8.46185 7.18828 8.37611 7.39886 8.24778 7.58592M8.47035 6.99639C8.50076 6.97063 8.53269 6.95289 8.56184 6.95289C8.67202 6.95289 8.7002 7.04629 8.78029 7.08462M8.47035 6.99639C8.41593 7.04249 8.3664 7.11426 8.34645 7.15597C8.32392 7.20307 8.24145 7.49498 8.30132 7.2688C8.33521 7.14074 8.37743 7.01382 8.42173 6.88727M8.24778 7.58592C8.40554 7.58753 8.63171 7.51623 8.80025 7.44829M8.28552 6.25963C8.39083 6.22977 8.52414 6.19892 8.66864 6.1763M7.42975 7.11893C7.40115 7.13579 7.37189 7.15136 7.34213 7.16562M7.42975 7.11893C7.46118 7.00948 7.48203 6.89006 7.49129 6.76915M7.42975 7.11893C7.40252 7.21377 7.36733 7.30113 7.32485 7.37547C7.31833 7.38689 7.32715 7.2775 7.34213 7.16562M7.34213 7.16562C7.35389 7.0779 7.36943 6.98865 7.38434 6.95494C7.41381 6.88833 7.44982 6.82645 7.49129 6.76915M8.66864 6.1763C8.67294 6.17563 8.67726 6.17496 8.68158 6.1743M8.66864 6.1763C8.6736 6.17051 8.67801 6.16929 8.68158 6.1743M8.68158 6.1743C8.68748 6.18258 8.69108 6.20783 8.69108 6.25746C8.69108 6.40473 8.70727 6.5515 8.72727 6.6983M9.28661 6.15388C9.48108 6.1778 9.65348 6.24022 9.76191 6.36414C9.76517 6.36787 9.76842 6.3722 9.77164 6.3771M9.28661 6.15388C9.25795 6.37117 9.25899 6.6283 9.3487 6.80703M9.28661 6.15388C9.29172 6.11512 9.29778 6.07762 9.30445 6.04207C9.33222 5.89392 9.60887 5.19115 9.88089 5.48409C10.0395 5.65491 9.90577 6.0096 9.84396 6.18977C9.8226 6.25205 9.79846 6.3147 9.77164 6.3771M9.77164 6.3771C9.79675 6.41526 9.82021 6.48736 9.83586 6.57008M9.77164 6.3771C9.73408 6.46452 9.69126 6.55145 9.64345 6.63623M9.83586 6.57008C9.77 6.58846 9.70564 6.6103 9.64345 6.63623M9.4454 6.93541C9.40546 6.90038 9.37365 6.85673 9.3487 6.80703M9.4454 6.93541C9.51861 6.841 9.58479 6.74024 9.64345 6.63623M9.3487 6.80703C9.33955 6.81425 9.3305 6.82163 9.32156 6.82917M9.3487 6.80703C9.43841 6.73617 9.53779 6.68029 9.64345 6.63623M8.88097 7.41414C8.85616 7.42517 8.82905 7.43668 8.80025 7.44829M8.88097 7.41414C8.85314 7.46724 8.8291 7.51866 8.81006 7.56625C8.7913 7.61316 8.79697 7.50897 8.80025 7.44829M8.80025 7.44829C8.80114 7.43183 8.80185 7.41857 8.80185 7.4124C8.80185 7.30273 8.793 7.19354 8.78029 7.08462M8.72727 6.6983C8.74479 6.82694 8.76524 6.95559 8.78029 7.08462M9.32156 6.82917C9.32829 6.86921 9.32346 6.9072 9.29829 6.93237C9.24391 6.98675 9.18021 7.02788 9.11104 7.0559M9.32156 6.82917C9.31651 6.83343 9.31148 6.83775 9.3065 6.84211C9.24222 6.89835 9.1752 6.97287 9.11104 7.0559M10.626 6.47453C10.6605 6.47386 10.6946 6.47344 10.7283 6.47319M10.7283 6.47319C10.7437 6.47308 10.759 6.473 10.7742 6.47295M10.7283 6.47319C10.7404 6.47669 10.7559 6.47663 10.7742 6.47295M11.122 5.95169C11.1429 5.94104 11.1641 5.93084 11.1856 5.92104C11.2254 5.90281 11.3441 5.85364 11.4758 5.81355M11.4758 5.81355C11.6907 5.74818 11.9405 5.70698 11.9405 5.8636C11.9405 6.12014 11.7198 6.27329 11.4851 6.31695C11.3286 6.34607 11.3389 6.17236 11.3661 6.06668C11.3889 5.97817 11.4266 5.89263 11.4758 5.81355ZM5 4H32V31H5V4ZM17.1478 5.94544C18.9222 4.95756 21.9378 4.37779 23.0974 6.09811C24.6277 8.36838 21.4437 11.9384 22.7985 14.3282C23.8898 16.2534 27.3268 14.6858 28.8535 16.252C30.2927 17.7285 31.7864 20.6094 30.5259 22.2557C28.8951 24.3856 24.9484 22.1436 22.9764 23.928C21.5121 25.2529 23.8551 28.9851 22.1138 29.8675C20.3739 30.749 19.0792 26.9469 17.1478 26.8812C15.3131 26.8188 14.1642 29.3785 12.3346 29.5349C10.3634 29.7035 7.90619 29.4337 6.72198 27.7726C5.52552 26.0944 6.04302 23.561 6.65306 21.5656C7.18876 19.8134 9.86649 19.1623 9.91674 17.323C9.98559 14.8023 5.63981 12.6407 6.95454 10.5293C8.19386 8.53897 11.5378 12.3108 13.6211 11.374C15.5644 10.5001 15.2803 6.98519 17.1478 5.94544Z" stroke="#E9E8DE" stroke-linecap="round"/>
<rect y="3" width="5" height="29" fill="#E9E8DE"/>
<rect x="32" y="3" width="5" height="32" fill="#E9E8DE"/>
<rect y="35" width="5" height="33" transform="rotate(-90 0 35)" fill="#E9E8DE"/>
<rect y="5" width="5" height="37" transform="rotate(-90 0 5)" fill="#E9E8DE"/>
</svg>
