<svg width="50" height="50" viewBox="0 0 50 50" fill="none" xmlns="http://www.w3.org/2000/svg">
<path fill-rule="evenodd" clip-rule="evenodd" d="M17.9665 0H0V22.3344V50H16.0389C15.6167 49.9998 15.18 49.9298 14.7261 49.779C11.7998 48.807 12.2658 45.22 12.7656 41.3723C13.1576 38.3548 13.5705 35.1769 12.3842 32.9742C11.1919 30.7605 8.60603 29.5557 6.10399 28.39C3.01903 26.9526 0.0615526 25.5747 0.00100667 22.4383C0.000334438 22.4035 0 22.3689 0 22.3344C0 19.0389 3.05952 17.4131 6.24348 15.7211C8.40013 14.5751 10.6139 13.3987 11.9726 11.6525C13.0623 10.252 13.4769 8.12072 13.8773 6.06253C14.4495 3.12159 14.9926 0.329885 17.4347 0.0326552C17.6155 0.0106502 17.7927 0 17.9665 0ZM16.0427 50C18.6277 49.9987 20.668 47.3796 22.7896 44.6561C24.8397 42.0245 26.9656 39.2955 29.7324 38.7366C31.9054 38.2976 33.8115 39.9264 35.7125 41.5509C37.6373 43.1957 39.5568 44.8361 41.7432 44.3214C45.7499 43.3782 47.693 38.2519 49.0726 34.184C50.3449 30.4323 50.2427 26.2566 49.1645 22.4383C48.5447 20.2435 47.0887 18.5704 45.6155 16.8776C44.8461 15.9934 44.072 15.1038 43.4099 14.1317C42.8246 13.2724 42.3832 12.2404 41.9448 11.2153C41.0953 9.22898 40.2569 7.26849 38.4036 6.63969C36.931 6.14005 35.4948 7.09604 34.056 8.05375C32.63 9.00295 31.2014 9.95385 29.7324 9.49097C27.5153 8.79241 25.8466 6.69615 24.2184 4.65085C22.3402 2.29151 20.516 0 17.9665 0H50V50H16.0427Z" fill="black"/>
</svg>
