<svg width="500" height="53" viewBox="0 0 500 53" fill="none" xmlns="http://www.w3.org/2000/svg">
<path fill-rule="evenodd" clip-rule="evenodd" d="M0 28.8881C0 33.8381 3.6214 38.0432 8.51659 38.7775L20.8333 40.625C41.6667 43.75 83.3333 50 125 45.8333C166.667 41.6667 208.333 27.0833 250 25C291.667 22.9167 333.333 33.3333 375 39.5833C416.667 45.8333 458.333 47.9167 479.167 48.9583L489.501 49.475C495.212 49.7606 500 45.2065 500 39.4875V10C500 4.47715 495.523 0 490 0H479.167C458.333 0 416.667 0 375 0C333.333 0 291.667 0 250 0C208.333 0 166.667 0 125 0C83.3333 0 41.6667 0 20.8333 0H10C4.47715 0 0 4.47715 0 10V28.8881Z" fill="#548686" fill-opacity="0.7"/>
<path fill-rule="evenodd" clip-rule="evenodd" d="M0 27.8775C0 22.7744 3.84251 18.4899 8.91553 17.9365L20.8333 16.6364C41.6667 14.3636 83.3333 9.81818 125 13.2273C166.667 16.6364 208.333 28 250 24.5909C291.667 21.1818 333.333 3 375 3C416.667 3 458.333 21.1818 479.167 30.2727L495.055 37.2058C498.058 38.5164 500 41.482 500 44.759V44.759C500 49.3104 496.31 53 491.759 53H479.167C458.333 53 416.667 53 375 53C333.333 53 291.667 53 250 53C208.333 53 166.667 53 125 53C83.3333 53 41.6667 53 20.8333 53H10C4.47715 53 0 48.5228 0 43V27.8775Z" fill="#E9E8DE" fill-opacity="0.7"/>
</svg>
