<svg width="500" height="53" viewBox="0 0 500 53" fill="none" xmlns="http://www.w3.org/2000/svg">
<path fill-rule="evenodd" clip-rule="evenodd" d="M0 24.1119C0 19.1619 3.6214 14.9568 8.51659 14.2225L20.8333 12.375C41.6667 9.25 83.3333 3 125 7.16667C166.667 11.3333 208.333 25.9167 250 28C291.667 30.0833 333.333 19.6667 375 13.4167C416.667 7.16667 458.333 5.08333 479.167 4.04167L489.501 3.52497C495.212 3.23938 500 7.79352 500 13.5125V43C500 48.5228 495.523 53 490 53H479.167C458.333 53 416.667 53 375 53C333.333 53 291.667 53 250 53C208.333 53 166.667 53 125 53C83.3333 53 41.6667 53 20.8333 53H10C4.47715 53 0 48.5228 0 43V24.1119Z" fill="#548686"/>
<path fill-rule="evenodd" clip-rule="evenodd" d="M0 25.1225C0 30.2256 3.84251 34.5101 8.91553 35.0635L20.8333 36.3636C41.6667 38.6364 83.3333 43.1818 125 39.7727C166.667 36.3636 208.333 25 250 28.4091C291.667 31.8182 333.333 50 375 50C416.667 50 458.333 31.8182 479.167 22.7273L495.055 15.7942C498.058 14.4836 500 11.518 500 8.241V8.241C500 3.68962 496.31 0 491.759 0H479.167C458.333 0 416.667 0 375 0C333.333 0 291.667 0 250 0C208.333 0 166.667 0 125 0C83.3333 0 41.6667 0 20.8333 0H10C4.47715 0 0 4.47715 0 10V25.1225Z" fill="#E9E8DE"/>
</svg>
