<svg width="154" height="100" viewBox="0 0 154 100" fill="none" xmlns="http://www.w3.org/2000/svg">
<path fill-rule="evenodd" clip-rule="evenodd" d="M55.5223 -99.649C73.7103 -97.6258 84.8532 -79.6496 100.827 -70.889C117.076 -61.9772 141.365 -63.6261 150.35 -47.6421C159.367 -31.6002 149.507 -11.5049 144.053 6.01235C139.671 20.0825 127.668 29.9947 121.94 43.5924C115.061 59.9238 122.342 84.1317 107.143 93.6351C92.1784 102.992 73.2599 84.4411 55.5223 85.1228C36.7109 85.8459 17.8569 106.845 1.50955 97.6952C-14.8086 88.5613 -6.25614 62.2022 -14.7641 45.7811C-22.6254 30.608 -46.4969 23.0221 -45.9921 6.01235C-45.4832 -11.1376 -20.9641 -17.4553 -12.4426 -32.4429C-3.72489 -47.7758 -8.74407 -69.2076 3.86366 -81.6745C16.9493 -94.614 37.0515 -101.704 55.5223 -99.649Z" fill="#E9E8DE"/>
</svg>
