<svg width="200" height="53" viewBox="0 0 200 53" fill="none" xmlns="http://www.w3.org/2000/svg">
<path fill-rule="evenodd" clip-rule="evenodd" d="M0 30.57C0 34.7384 2.58573 38.4696 6.48876 39.9333L8.33333 40.625C16.6667 43.75 33.3333 50 50 45.8333C66.6667 41.6667 83.3333 27.0833 100 25C116.667 22.9167 133.333 33.3333 150 39.5833C166.667 45.8333 183.333 47.9167 191.667 48.9583V48.9583C196.092 49.5114 200 46.0612 200 41.6018V8.33334C200 3.73096 196.269 0 191.667 0V0C183.333 0 166.667 0 150 0C133.333 0 116.667 0 100 0C83.3333 0 66.6667 0 50 0C33.3333 0 16.6667 0 8.33333 0V0C3.73096 0 0 3.73096 0 8.33333V30.57Z" fill="#548686" fill-opacity="0.7"/>
<path fill-rule="evenodd" clip-rule="evenodd" d="M0 26.547C0 22.0375 3.01821 18.0859 7.36883 16.8994L8.33333 16.6364C16.6667 14.3636 33.3333 9.81818 50 13.2273C66.6667 16.6364 83.3333 28 100 24.5909C116.667 21.1818 133.333 3 150 3C166.667 3 183.333 21.1818 191.667 30.2727L197.42 36.5486C199.079 38.3592 200 40.7262 200 43.1825V44.6667C200 49.269 196.269 53 191.667 53V53C183.333 53 166.667 53 150 53C133.333 53 116.667 53 100 53C83.3333 53 66.6667 53 50 53C33.3333 53 16.6667 53 8.33333 53V53C3.73096 53 0 49.269 0 44.6667V26.547Z" fill="#E9E8DE" fill-opacity="0.7"/>
</svg>
