<svg width="200" height="53" viewBox="0 0 200 53" fill="none" xmlns="http://www.w3.org/2000/svg">
<path fill-rule="evenodd" clip-rule="evenodd" d="M0 22.43C0 18.2616 2.58573 14.5304 6.48876 13.0667L8.33333 12.375C16.6667 9.25 33.3333 3 50 7.16667C66.6667 11.3333 83.3333 25.9167 100 28C116.667 30.0833 133.333 19.6667 150 13.4167C166.667 7.16667 183.333 5.08333 191.667 4.04167V4.04167C196.092 3.48855 200 6.93882 200 11.3982V44.6667C200 49.269 196.269 53 191.667 53V53C183.333 53 166.667 53 150 53C133.333 53 116.667 53 100 53C83.3333 53 66.6667 53 50 53C33.3333 53 16.6667 53 8.33333 53V53C3.73096 53 0 49.269 0 44.6667V22.43Z" fill="#548686"/>
<path fill-rule="evenodd" clip-rule="evenodd" d="M0 26.453C0 30.9625 3.01821 34.9141 7.36883 36.1006L8.33333 36.3636C16.6667 38.6364 33.3333 43.1818 50 39.7727C66.6667 36.3636 83.3333 25 100 28.4091C116.667 31.8182 133.333 50 150 50C166.667 50 183.333 31.8182 191.667 22.7273L197.42 16.4514C199.079 14.6408 200 12.2738 200 9.81751V8.33334C200 3.73097 196.269 0 191.667 0V0C183.333 0 166.667 0 150 0C133.333 0 116.667 0 100 0C83.3333 0 66.6667 0 50 0C33.3333 0 16.6667 0 8.33333 0V0C3.73096 0 0 3.73096 0 8.33333V26.453Z" fill="#E9E8DE"/>
</svg>
