<svg width="350" height="108" viewBox="0 0 350 108" fill="none" xmlns="http://www.w3.org/2000/svg">
<g clip-path="url(#clip0_9_542)">
<path fill-rule="evenodd" clip-rule="evenodd" d="M0 12.2658L14.5833 10.2714C29.1667 8.2769 58.3333 4.28798 87.5 16.2547C116.667 28.2215 155.75 46.5498 184.917 64.5C214.083 82.4502 281.75 95.4945 310.917 93.5C340.083 91.5055 320.833 84.0665 335.417 78.0831L350 72.0997V108H335.417C320.833 108 291.667 108 262.5 108C233.333 108 204.167 108 175 108C145.833 108 116.667 108 87.5 108C58.3333 108 29.1667 108 14.5833 108H0V12.2658Z" fill="#E9E8DE"/>
<path fill-rule="evenodd" clip-rule="evenodd" d="M350 95.7566L335.417 97.5299C320.833 99.3032 291.667 102.85 262.5 95.7566C233.333 88.6636 204.167 70.9308 175 63.8378C145.833 56.7447 116.667 60.2912 87.5 58.5179C58.3333 56.7447 29.1667 49.6516 14.5833 46.105L0 42.5585V0H14.5833C29.1667 0 58.3333 0 87.5 0C116.667 0 145.833 0 175 0C204.167 0 233.333 0 262.5 0C291.667 0 320.833 0 335.417 0H350V95.7566Z" fill="#548686"/>
</g>
<defs>
<clipPath id="clip0_9_542">
<rect width="350" height="108" rx="20" fill="white"/>
</clipPath>
</defs>
</svg>
