<svg width="350" height="108" viewBox="0 0 350 108" fill="none" xmlns="http://www.w3.org/2000/svg">
<g clip-path="url(#clip0_9_542)">
<path fill-rule="evenodd" clip-rule="evenodd" d="M0 95.7342L14.5833 97.7286C29.1667 99.7231 58.3333 103.712 87.5 91.7453C116.667 79.7785 155.75 61.4502 184.917 43.5C214.083 25.5498 281.75 12.5055 310.917 14.5C340.083 16.4945 320.833 23.9335 335.417 29.9169L350 35.9003V0H335.417C320.833 0 291.667 0 262.5 0C233.333 0 204.167 0 175 0C145.833 0 116.667 0 87.5 0C58.3333 0 29.1667 0 14.5833 0H0V95.7342Z" fill="#E9E8DE"/>
<path fill-rule="evenodd" clip-rule="evenodd" d="M350 12.2434L335.417 10.4701C320.833 8.69682 291.667 5.15028 262.5 12.2434C233.333 19.3364 204.167 37.0692 175 44.1622C145.833 51.2553 116.667 47.7088 87.5 49.4821C58.3333 51.2553 29.1667 58.3484 14.5833 61.895L0 65.4415V108H14.5833C29.1667 108 58.3333 108 87.5 108C116.667 108 145.833 108 175 108C204.167 108 233.333 108 262.5 108C291.667 108 320.833 108 335.417 108H350V12.2434Z" fill="#548686"/>
</g>
<defs>
<clipPath id="clip0_9_542">
<rect width="350" height="108" rx="20" transform="matrix(1 0 0 -1 0 108)" fill="white"/>
</clipPath>
</defs>
</svg>
