<svg width="350" height="108" viewBox="0 0 350 108" fill="none" xmlns="http://www.w3.org/2000/svg">
<g clip-path="url(#clip0_9_542)">
<path fill-rule="evenodd" clip-rule="evenodd" d="M350 95.7342L335.417 97.7286C320.833 99.7231 291.667 103.712 262.5 91.7453C233.333 79.7785 194.25 61.4502 165.083 43.5C135.917 25.5498 68.25 12.5055 39.0833 14.5C9.91669 16.4945 29.1667 23.9335 14.5833 29.9169L0 35.9003V0H14.5833C29.1667 0 58.3333 0 87.5 0C116.667 0 145.833 0 175 0C204.167 0 233.333 0 262.5 0C291.667 0 320.833 0 335.417 0H350V95.7342Z" fill="#E9E8DE"/>
<path fill-rule="evenodd" clip-rule="evenodd" d="M0 12.2434L14.5833 10.4701C29.1667 8.69682 58.3333 5.15028 87.5 12.2434C116.667 19.3364 145.833 37.0692 175 44.1622C204.167 51.2553 233.333 47.7088 262.5 49.4821C291.667 51.2553 320.833 58.3484 335.417 61.895L350 65.4415V108H335.417C320.833 108 291.667 108 262.5 108C233.333 108 204.167 108 175 108C145.833 108 116.667 108 87.5 108C58.3333 108 29.1667 108 14.5833 108H0V12.2434Z" fill="#548686"/>
</g>
<defs>
<clipPath id="clip0_9_542">
<rect x="350" y="108" width="350" height="108" rx="20" transform="rotate(180 350 108)" fill="white"/>
</clipPath>
</defs>
</svg>
